<?xml version="1.0" encoding="UTF-8"?>
<svg width="82px" height="100px" viewBox="0 0 82 100" version="1.1" xmlns="http://www.w3.org/2000/svg" xmlns:xlink="http://www.w3.org/1999/xlink">
    <!-- Generator: Sketch 52.6 (67491) - http://www.bohemiancoding.com/sketch -->
    <title>noun_3D printing_2756943</title>
    <desc>Created with Sketch.</desc>
    <g id="Page-1" stroke="none" stroke-width="1" fill="none" fill-rule="evenodd">
        <g id="noun_3D-printing_2756943" fill="#000000">
            <g id="Group">
                <path d="M77.6,13.3 L4.4,13.3 C2,13.3 0,11.3 0,8.9 L0,1.1 C0,0.5 0.5,0 1.1,0 L80.8,0 C81.5,0 82,0.5 82,1.1 L82,8.9 C82,11.3 80,13.3 77.6,13.3 Z M2.3,2.2 L2.3,8.8 C2.3,10 3.3,11 4.5,11 L77.6,11 C78.8,11 79.8,10 79.8,8.8 L79.8,2.2 L2.3,2.2 Z" id="Shape" fill-rule="nonzero"></path>
                <path d="M14.8,22.8 L11.2,22.8 C9,22.8 7.1,21 7.1,18.7 L7.1,12.1 C7.1,11.5 7.6,11 8.2,11 C8.8,11 9.3,11.5 9.3,12.1 L9.3,18.7 C9.3,19.7 10.1,20.5 11.1,20.5 L14.7,20.5 C15.7,20.5 16.5,19.7 16.5,18.7 L16.5,12.1 C16.5,11.5 17,11 17.6,11 C18.2,11 18.7,11.5 18.7,12.1 L18.7,18.7 C18.9,21 17.1,22.8 14.8,22.8 Z" id="Path"></path>
                <path d="M42.8,22.8 L39.2,22.8 C37,22.8 35.1,21 35.1,18.7 L35.1,12.1 C35.1,11.5 35.6,11 36.2,11 C36.8,11 37.3,11.5 37.3,12.1 L37.3,18.7 C37.3,19.7 38.1,20.5 39.1,20.5 L42.7,20.5 C43.7,20.5 44.5,19.7 44.5,18.7 L44.5,12.1 C44.5,11.5 45,11 45.6,11 C46.2,11 46.7,11.5 46.7,12.1 L46.7,18.7 C46.9,21 45,22.8 42.8,22.8 Z" id="Path"></path>
                <path d="M70.8,22.8 L67.2,22.8 C65,22.8 63.1,21 63.1,18.7 L63.1,12.1 C63.1,11.5 63.6,11 64.2,11 C64.8,11 65.3,11.5 65.3,12.1 L65.3,18.7 C65.3,19.7 66.1,20.5 67.1,20.5 L70.7,20.5 C71.7,20.5 72.5,19.7 72.5,18.7 L72.5,12.1 C72.5,11.5 73,11 73.6,11 C74.2,11 74.7,11.5 74.7,12.1 L74.7,18.7 C74.8,21 73,22.8 70.8,22.8 Z" id="Path"></path>
                <path d="M17.3,59 C16.9,59 16.5,58.8 16.3,58.4 C16,57.9 16.2,57.2 16.7,56.9 L35.6,46.2 C36.1,45.9 36.8,46.1 37.1,46.6 C37.4,47.1 37.2,47.8 36.7,48.1 L17.9,58.8 C17.7,58.9 17.5,59 17.3,59 Z" id="Path"></path>
                <path d="M41,72.7 C40.6,72.7 40.2,72.5 40,72.1 C39.7,71.6 39.9,70.9 40.4,70.6 L62.4,57.9 L45.2,48.1 C44.7,47.8 44.5,47.1 44.8,46.6 C45.1,46.1 45.8,45.9 46.3,46.2 L65.2,56.9 C65.6,57.1 65.8,57.5 65.8,57.9 C65.8,58.3 65.6,58.7 65.2,58.9 L41.6,72.5 C41.4,72.6 41.2,72.7 41,72.7 Z" id="Path"></path>
                <path d="M41,100 C40.8,100 40.6,100 40.4,99.8 L16.8,86.2 C16.5,86 16.2,85.6 16.2,85.2 L16.2,57.9 C16.2,57.3 16.7,56.8 17.3,56.8 C17.9,56.8 18.4,57.3 18.4,57.9 L18.4,84.6 L41.5,97.9 C42,98.2 42.2,98.9 41.9,99.4 C41.8,99.8 41.4,100 41,100 Z" id="Path"></path>
                <path d="M41,100 C40.6,100 40.2,99.8 40,99.4 C39.7,98.9 39.9,98.2 40.4,97.9 L63.5,84.6 L63.5,57.9 C63.5,57.3 64,56.8 64.6,56.8 C65.2,56.8 65.7,57.3 65.7,57.9 L65.7,85.2 C65.7,85.6 65.5,86 65.1,86.2 L41.6,99.8 C41.4,100 41.2,100 41,100 Z" id="Path"></path>
                <path d="M41,90.8 C40.4,90.8 39.9,90.3 39.9,89.7 L39.9,71.5 C39.9,70.9 40.4,70.4 41,70.4 C41.6,70.4 42.1,70.9 42.1,71.5 L42.1,89.7 C42.1,90.3 41.6,90.8 41,90.8 Z" id="Path"></path>
                <g transform="translate(11.000000, 25.000000)" id="Oval">
                    <circle cx="2" cy="1.5" r="1.4"></circle>
                    <circle cx="2" cy="10.3" r="1.4"></circle>
                    <circle cx="2" cy="19.1" r="1.4"></circle>
                    <circle cx="2" cy="27.9" r="1.4"></circle>
                </g>
                <g transform="translate(39.000000, 25.000000)" id="Oval">
                    <circle cx="2.1" cy="1.5" r="1.4"></circle>
                    <circle cx="2.1" cy="10.3" r="1.4"></circle>
                    <circle cx="2.1" cy="19.1" r="1.4"></circle>
                    <circle cx="2.1" cy="27.9" r="1.4"></circle>
                </g>
                <g transform="translate(67.000000, 25.000000)" id="Oval">
                    <circle cx="2" cy="1.5" r="1.4"></circle>
                    <circle cx="2" cy="10.3" r="1.4"></circle>
                    <circle cx="2" cy="19.1" r="1.4"></circle>
                    <circle cx="2" cy="27.9" r="1.4"></circle>
                </g>
            </g>
        </g>
    </g>
</svg>