<?xml version="1.0" encoding="UTF-8"?>
<svg width="98px" height="98px" viewBox="0 0 98 98" version="1.1" xmlns="http://www.w3.org/2000/svg" xmlns:xlink="http://www.w3.org/1999/xlink">
    <!-- Generator: Sketch 52.6 (67491) - http://www.bohemiancoding.com/sketch -->
    <title>Shape</title>
    <desc>Created with Sketch.</desc>
    <g id="Page-1" stroke="none" stroke-width="1" fill="none" fill-rule="evenodd">
        <g id="apeture" fill="#000000" fill-rule="nonzero">
            <path d="M48.7516892,0 C22.0168919,0 0,22.0168919 0,48.7516892 C0,75.4864865 22.0168919,97.5033784 48.7516892,97.5033784 C75.4864865,97.5033784 97.5033784,75.4864865 97.5033784,48.7516892 C97.5033784,22.0168919 75.4864865,0 48.7516892,0 Z M21.3878378,48.7516892 L34.9125,25.1621622 L62.2763514,25.1621622 L75.8010135,48.7516892 L62.2763514,72.3412162 L34.9125,72.3412162 L21.3878378,48.7516892 Z M90.2692568,30.1945946 C92.785473,35.8560811 94.3581081,42.1466216 94.3581081,48.7516892 C94.3581081,57.2439189 91.8418919,65.4216216 87.7530405,72.3412162 L66.0506757,72.3412162 L90.2692568,30.1945946 Z M88.6966216,26.7347973 L77.6881757,45.6064189 L53.4695946,3.4597973 C68.5668919,5.03243243 81.777027,13.8391892 88.6966216,26.7347973 Z M48.7516892,3.14527027 C49.0662162,3.14527027 49.3807432,3.14527027 49.6952703,3.14527027 L60.7037162,22.0168919 L11.952027,22.0168919 C20.1297297,10.6939189 33.6543919,3.14527027 48.7516892,3.14527027 Z M9.75033784,25.1621622 L31.4527027,25.1621622 L7.23412162,67.3087838 C4.71790541,61.6472973 3.14527027,55.3567568 3.14527027,48.7516892 C3.14527027,40.2594595 5.66148649,32.0817568 9.75033784,25.1621622 Z M8.80675676,70.7685811 L19.8152027,51.8969595 L44.3483108,94.0435811 C28.9364865,92.4709459 15.7263514,83.6641892 8.80675676,70.7685811 Z M48.7516892,94.3581081 C48.4371622,94.3581081 48.1226351,94.3581081 47.8081081,94.3581081 L36.7996622,75.4864865 L85.5513514,75.4864865 C77.3736486,86.8094595 63.8489865,94.3581081 48.7516892,94.3581081 Z" id="Shape"></path>
        </g>
    </g>
</svg>