<?xml version="1.0" encoding="UTF-8"?>
<svg width="86px" height="64px" viewBox="0 0 86 64" version="1.1" xmlns="http://www.w3.org/2000/svg" xmlns:xlink="http://www.w3.org/1999/xlink">
    <!-- Generator: Sketch 52.6 (67491) - http://www.bohemiancoding.com/sketch -->
    <title>Group</title>
    <desc>Created with Sketch.</desc>
    <g id="Page-1" stroke="none" stroke-width="1" fill="none" fill-rule="evenodd">
        <g id="noun_applications_1723918-(1)" transform="translate(-7.000000, -1.000000)" fill="#000000" fill-rule="nonzero">
            <g id="Group" transform="translate(7.000000, 0.637820)">
                <path d="M13.169916,0.70593 C11.695646,0.70593 10.482416,1.92044 10.482416,3.39343 L10.482416,5.67468 L8.201166,5.67468 C6.726886,5.67468 5.513666,6.8892 5.513666,8.36218 L5.513666,10.64343 L3.201166,10.64343 C1.7268859,10.64343 0.5136659,11.88919 0.5136659,13.36218 L0.5136659,21.11218 C0.453623403,21.3055429 0.453623403,21.5125671 0.5136659,21.70593 L0.5136659,61.3309 C0.5136659,62.8039 1.7268859,64.0184 3.201166,64.0184 L72.888666,64.0184 C74.362946,64.0184 75.576166,62.8039 75.576166,61.3309 L75.576166,59.0497 L77.857416,59.0497 C79.331726,59.0497 80.544916,57.8352 80.544916,56.3622 L80.544916,54.0809 L82.857416,54.0809 C84.331696,54.0809 85.513666,52.8664 85.513666,51.3934 L85.513666,11.67468 C85.537266,11.55117 85.537266,11.42319 85.513666,11.29968 L85.513666,3.39343 C85.513666,1.92044 84.331686,0.70593 82.857416,0.70593 L13.169916,0.70593 Z M13.169916,2.70593 L82.857416,2.70593 C83.248006,2.70593 83.513666,2.9837 83.513666,3.39343 L83.513666,10.48718 L80.544916,10.48718 L80.544916,8.36218 C80.544916,6.88919 79.331736,5.67468 77.857416,5.67468 L12.482416,5.67468 L12.482416,3.39343 C12.482416,2.9837 12.779326,2.70593 13.169916,2.70593 Z M8.201166,7.67468 L77.857416,7.67468 C78.248156,7.67468 78.544916,7.95245 78.544916,8.36218 L78.544916,15.45593 L75.576166,15.45593 L75.576166,13.36218 C75.576166,11.88919 74.362946,10.64343 72.888666,10.64343 L24.763666,10.64343 L11.982416,10.64343 L7.513666,10.64343 L7.513666,8.36218 C7.513666,7.95244 7.810586,7.67468 8.201166,7.67468 Z M80.544916,12.48718 L83.513666,12.48718 L83.513666,51.3934 C83.513666,51.8032 83.247996,52.0809 82.857416,52.0809 L80.544916,52.0809 L80.544916,16.64343 C80.568516,16.51992 80.568516,16.39194 80.544916,16.26843 L80.544916,12.48718 Z M3.201166,12.64343 L11.826166,12.64343 L24.763666,12.64343 C25.257546,12.64343 26.110696,13.22849 26.294916,13.70593 L28.888666,20.42468 L2.5136659,20.42468 L2.5136659,13.36218 C2.5136659,12.95243 2.8105859,12.64343 3.201166,12.64343 Z M27.982416,12.64343 L72.888666,12.64343 C73.279246,12.64343 73.576166,12.95243 73.576166,13.36218 L73.576166,20.42468 L31.044916,20.42468 L28.169916,12.98718 C28.122476,12.86422 28.041886,12.75893 27.982416,12.64343 Z M7.169916,13.92468 C5.712976,13.92468 4.513666,15.09475 4.513666,16.54968 C4.513666,18.00462 5.712976,19.23718 7.169916,19.23718 C8.626846,19.23718 9.826166,18.00462 9.826166,16.54968 C9.826166,15.09475 8.626846,13.92468 7.169916,13.92468 Z M13.951166,13.92468 C12.494226,13.92468 11.294916,15.09475 11.294916,16.54968 C11.294916,18.00462 12.494226,19.23718 13.951166,19.23718 C15.408096,19.23718 16.607416,18.00462 16.607416,16.54968 C16.607416,15.09475 15.408096,13.92468 13.951166,13.92468 Z M20.732416,13.92468 C19.275486,13.92468 18.076166,15.09475 18.076166,16.54968 C18.076166,18.00462 19.275486,19.23718 20.732416,19.23718 C22.189356,19.23718 23.388666,18.00462 23.388666,16.54968 C23.388666,15.09475 22.189356,13.92468 20.732416,13.92468 Z M7.169916,15.92468 C7.537286,15.92468 7.826166,16.16705 7.826166,16.54968 C7.826166,16.93231 7.537286,17.23718 7.169916,17.23718 C6.802546,17.23718 6.513666,16.93231 6.513666,16.54968 C6.513666,16.16705 6.802546,15.92468 7.169916,15.92468 Z M13.951166,15.92468 C14.318526,15.92468 14.607416,16.16705 14.607416,16.54968 C14.607416,16.93231 14.318526,17.23718 13.951166,17.23718 C13.583796,17.23718 13.294916,16.93231 13.294916,16.54968 C13.294916,16.16705 13.583796,15.92468 13.951166,15.92468 Z M20.732416,15.92468 C21.099786,15.92468 21.357416,16.16705 21.357416,16.54968 C21.357416,16.93231 21.099786,17.23718 20.732416,17.23718 C20.365056,17.23718 20.076166,16.93231 20.076166,16.54968 C20.076166,16.16705 20.365056,15.92468 20.732416,15.92468 Z M75.576166,17.45593 L78.544916,17.45593 L78.544916,56.3622 C78.544916,56.7719 78.248166,57.0497 77.857416,57.0497 L75.576166,57.0497 L75.576166,21.61218 C75.5998108,21.4882982 75.5998108,21.3610618 75.576166,21.23718 L75.576166,17.45593 Z M2.5136659,22.42468 L73.576166,22.42468 L73.576166,61.3309 C73.576166,61.7407 73.279246,62.0184 72.888666,62.0184 L3.201166,62.0184 C2.8105859,62.0184 2.5136659,61.7407 2.5136659,61.3309 L2.5136659,22.42468 Z" id="Shape"></path>
            </g>
        </g>
    </g>
</svg>