<?xml version="1.0" encoding="UTF-8"?>
<svg width="100px" height="100px" viewBox="0 0 100 100" version="1.1" xmlns="http://www.w3.org/2000/svg" xmlns:xlink="http://www.w3.org/1999/xlink">
    <!-- Generator: Sketch 52.6 (67491) - http://www.bohemiancoding.com/sketch -->
    <title>Shape</title>
    <desc>Created with Sketch.</desc>
    <g id="Page-1" stroke="none" stroke-width="1" fill="none" fill-rule="evenodd">
        <g id="noun_Blockchain_2029676-(1)" fill="#000000" fill-rule="nonzero">
            <path d="M99.738,19.39 C99.738,19.37 99.738,19.36 99.728,19.34 L99.728,19.33 C99.728,19.32 99.728,19.32 99.716,19.31 L96.216,4.52 C96.126,4.16 95.836,3.87 95.478,3.78 L80.729,0.3 L80.639,0.28 C80.298,0.2 79.95,0.3 79.708,0.55 L79.698,0.55 L79.677,0.52 L68.387,11.81 C68.137,12.06 68.037,12.41 68.117,12.75 L68.637,14.91 L71.278,26.04 L58.12,22.94 C58.108,22.94 58.108,22.93 58.099,22.93 L58.008,22.91 C57.668,22.83 57.328,22.93 57.078,23.18 L57.067,23.18 L57.046,23.15 L45.756,34.44 C45.516,34.68 45.416,35.04 45.496,35.38 L46.006,37.54 L48.636,48.66 L35.536,45.57 L35.525,45.56 L35.385,45.53 C35.055,45.45 34.696,45.55 34.455,45.79 L34.455,45.8 L34.425,45.77 L23.145,57.059 C22.895,57.299 22.795,57.663 22.875,57.993 L23.385,60.151 L26.015,71.28 L12.906,68.18 L12.765,68.151 C12.435,68.071 12.076,68.172 11.835,68.422 L11.805,68.393 L0.528,79.68 C0.278,79.92 0.178,80.28 0.258,80.61 L0.768,82.77 L3.758,95.379 L3.778,95.481 C3.789,95.52 3.799,95.549 3.808,95.583 C3.829,95.651 3.858,95.712 3.898,95.771 C3.978,95.914 4.098,96.021 4.228,96.101 C4.289,96.14 4.358,96.171 4.428,96.191 C4.449,96.203 4.458,96.203 4.478,96.212 C4.518,96.224 4.568,96.233 4.619,96.243 L19.389,99.743 C19.459,99.763 19.539,99.77 19.619,99.77 C19.879,99.77 20.129,99.67 20.318,99.481 L31.608,88.19 C31.699,88.1 31.778,87.981 31.829,87.86 C31.858,87.799 31.869,87.743 31.879,87.672 C31.889,87.643 31.899,87.609 31.889,87.57 C31.899,87.541 31.899,87.502 31.899,87.468 C31.899,87.388 31.889,87.298 31.87,87.208 L28.729,73.98 L42.009,77.119 C42.079,77.139 42.159,77.15 42.239,77.15 C42.499,77.15 42.759,77.039 42.938,76.849 L54.229,65.57 C54.319,65.48 54.399,65.359 54.451,65.24 C54.53,65.049 54.551,64.84 54.501,64.629 C54.501,64.619 54.489,64.6 54.489,64.59 L51.348,51.36 L64.619,54.5 C64.699,54.52 64.779,54.529 64.859,54.529 C65.119,54.529 65.369,54.429 65.558,54.24 L76.847,42.949 C76.898,42.899 76.949,42.839 76.988,42.769 C77.029,42.709 77.058,42.639 77.089,42.569 C77.11,42.519 77.119,42.469 77.129,42.419 C77.139,42.319 77.139,42.219 77.129,42.109 C77.119,42.079 77.119,42.059 77.119,42.039 L77.119,42.029 C77.119,42.019 77.119,42.019 77.119,42.009 L73.959,28.719 L87.249,31.879 C87.329,31.889 87.398,31.899 87.478,31.899 C87.738,31.899 87.999,31.799 88.189,31.609 L99.398,20.389 L99.466,20.319 C99.656,20.129 99.767,19.879 99.767,19.609 C99.77,19.529 99.759,19.47 99.738,19.39 Z M2.329,80.699 L11.959,71.07 L14.938,83.638 L14.938,83.65 L5.308,93.269 L2.329,80.699 Z M28.919,88.049 L19.299,97.67 L6.729,94.69 L16.349,85.059 L16.359,85.059 L18.929,85.67 L28.929,88.039 L28.919,88.049 Z M29.559,86.139 L16.87,83.129 L13.89,70.469 L26.55,73.449 L29.559,86.139 Z M27.929,70.65 L24.95,58.08 L34.58,48.45 L37.559,61.019 L37.559,61.029 L27.929,70.65 Z M41.929,75.049 L29.349,72.07 L38.969,62.439 L38.979,62.439 L51.549,65.418 L41.929,75.049 Z M52.18,63.52 L39.49,60.51 L36.51,47.85 L49.17,50.83 L52.18,63.52 Z M50.549,48.029 L47.569,35.459 L57.2,25.829 L59.21,34.319 L59.32,34.759 L60.179,38.399 L60.179,38.409 L60.167,38.409 L60.167,38.419 L50.549,48.029 Z M74.159,42.81 L64.539,52.43 L51.969,49.451 L61.589,39.821 L61.6,39.821 L64.169,40.431 L74.169,42.801 L74.159,42.81 Z M74.799,40.899 L62.11,37.889 L59.122,25.229 L71.792,28.209 L74.799,40.899 Z M73.18,25.399 L70.579,14.449 L70.199,12.829 L79.818,3.209 L82.797,15.779 L82.797,15.789 L73.18,25.399 Z M87.169,29.799 L74.6,26.819 L84.209,17.199 L84.219,17.199 L96.789,20.179 L87.169,29.799 Z M84.738,15.259 L84.728,15.259 L83.488,9.979 L83.119,8.409 L82.848,7.279 L81.748,2.599 L94.418,5.589 L97.418,18.269 L84.738,15.259 Z" id="Shape"></path>
        </g>
    </g>
</svg>