<?xml version="1.0" encoding="UTF-8"?>
<svg width="88px" height="56px" viewBox="0 0 88 56" version="1.1" xmlns="http://www.w3.org/2000/svg" xmlns:xlink="http://www.w3.org/1999/xlink">
    <!-- Generator: Sketch 52.6 (67491) - http://www.bohemiancoding.com/sketch -->
    <title>noun_books_1536074</title>
    <desc>Created with Sketch.</desc>
    <g id="Page-1" stroke="none" stroke-width="1" fill="none" fill-rule="evenodd">
        <g id="noun_books_1536074" fill="#000000" fill-rule="nonzero">
            <path d="M2.146,43.716 C2.169,43.708 2.948,43.45 4.283,43.111 L4.283,45.924 L5.238,45.653 C6.186,45.383 7.153,45.174 8.131,45.007 L8.131,50.9 L9.177,50.451 C9.658,50.244 10.189,50.079 10.747,49.936 L10.747,54.227 L11.763,53.841 C18.013,51.466 39.329,54.616 43.25,55.224 L43.25,55.466 L44,55.341 L44.75,55.464 L44.75,55.222 C48.671,54.615 69.99,51.465 76.237,53.839 L77.254,54.225 L77.254,49.934 C77.812,50.076 78.343,50.241 78.823,50.448 L79.869,50.898 L79.869,45.005 C80.848,45.172 81.815,45.382 82.764,45.651 L83.719,45.922 L83.719,43.11 C85.053,43.451 85.831,43.708 85.855,43.715 L87.051,44.118 L79.52,0.938 L78.951,0.883 C77.452,0.74 75.958,0.668 74.51,0.668 C55.677,0.67 46.43,12.84 44,16.644 C41.571,12.84 32.323,0.67 13.492,0.67 C12.044,0.67 10.55,0.742 9.051,0.885 L8.482,0.94 L0.95,44.119 L2.146,43.716 Z M5.783,43.955 L5.783,42.751 C8.71,42.095 13.155,41.346 18.2,41.346 C28.435,41.346 36.858,44.294 43.25,50.097 L43.25,50.909 C38.612,48.563 20.69,40.271 5.783,43.955 Z M9.631,48.684 L9.631,44.789 C24.072,43.064 40.561,51.205 43.251,52.599 L43.251,53.412 L43.251,53.53 C38.568,51.948 19.032,45.73 9.631,48.684 Z M12.247,52.121 L12.247,49.628 C18.474,48.701 27.874,50.684 34.789,52.554 C27.275,51.669 17.196,50.864 12.247,52.121 Z M75.754,52.121 C70.806,50.867 60.723,51.671 53.208,52.555 C60.123,50.686 69.527,48.702 75.754,49.628 L75.754,52.121 Z M78.369,48.684 C68.967,45.729 49.432,51.949 44.75,53.53 L44.75,53.412 L44.75,52.599 C47.438,51.206 63.92,43.066 78.369,44.79 L78.369,48.684 Z M82.219,43.955 C67.306,40.271 49.39,48.562 44.751,50.908 L44.751,50.096 C51.143,44.293 59.567,41.345 69.801,41.345 C74.847,41.345 79.292,42.094 82.219,42.75 L82.219,43.955 Z M74.509,2.17 C75.727,2.17 76.979,2.223 78.239,2.328 L85.146,41.933 C82.733,41.249 76.905,39.845 69.8,39.845 C59.709,39.845 51.291,42.619 44.75,48.098 L44.75,18.298 C45.668,16.651 54.321,2.17 74.509,2.17 Z M9.762,2.328 C11.022,2.223 12.274,2.17 13.492,2.17 C33.643,2.17 42.329,16.652 43.25,18.299 L43.25,48.099 C36.709,42.62 28.291,39.846 18.2,39.846 C11.096,39.846 5.267,41.25 2.854,41.934 L9.762,2.328 Z" id="Shape"></path>
        </g>
    </g>
</svg>