<?xml version="1.0" encoding="UTF-8"?>
<svg width="46px" height="46px" viewBox="0 0 46 46" version="1.1" xmlns="http://www.w3.org/2000/svg" xmlns:xlink="http://www.w3.org/1999/xlink">
    <!-- Generator: Sketch 52.6 (67491) - http://www.bohemiancoding.com/sketch -->
    <title>Shape</title>
    <desc>Created with Sketch.</desc>
    <g id="Page-1" stroke="none" stroke-width="1" fill="none" fill-rule="evenodd">
        <g id="noun_connect_606996" fill="#000000" fill-rule="nonzero">
            <path d="M39,32.5 C36.668,32.5 34.625,33.738 33.479,35.588 L13.018,25.448 C13.327,24.691 13.5,23.866 13.5,23 C13.5,22.104 13.318,21.25 12.989,20.473 L33.435,10.34 C34.574,12.229 36.639,13.5 39,13.5 C42.584,13.5 45.5,10.584 45.5,7 C45.5,3.416 42.584,0.5 39,0.5 C35.416,0.5 32.5,3.416 32.5,7 C32.5,7.866 32.674,8.692 32.982,9.448 L12.522,19.588 C11.375,17.738 9.332,16.5 7,16.5 C3.416,16.5 0.5,19.416 0.5,23 C0.5,26.584 3.416,29.5 7,29.5 C9.362,29.5 11.427,28.229 12.565,26.341 L33.011,36.473 C32.683,37.25 32.5,38.104 32.5,39 C32.5,42.584 35.416,45.5 39,45.5 C42.584,45.5 45.5,42.584 45.5,39 C45.5,35.416 42.584,32.5 39,32.5 Z M39,1.5 C42.032,1.5 44.5,3.967 44.5,7 C44.5,10.033 42.032,12.5 39,12.5 C36.909,12.5 35.088,11.327 34.157,9.604 C34.15,9.55 34.14,9.496 34.115,9.444 C34.092,9.398 34.058,9.363 34.024,9.328 C33.691,8.621 33.5,7.833 33.5,7 C33.5,3.967 35.968,1.5 39,1.5 Z M7,28.5 C3.967,28.5 1.5,26.032 1.5,23 C1.5,19.967 3.967,17.5 7,17.5 C9.093,17.5 10.917,18.676 11.846,20.402 C11.853,20.425 11.853,20.45 11.865,20.472 C11.872,20.487 11.888,20.493 11.897,20.507 C12.279,21.256 12.5,22.102 12.5,23 C12.5,23.833 12.309,24.62 11.976,25.328 C11.942,25.364 11.908,25.399 11.885,25.445 C11.86,25.497 11.849,25.55 11.843,25.604 C10.912,27.327 9.091,28.5 7,28.5 Z M39,44.5 C35.968,44.5 33.5,42.032 33.5,39 C33.5,38.102 33.721,37.256 34.104,36.506 C34.113,36.492 34.128,36.486 34.135,36.472 C34.146,36.451 34.146,36.427 34.154,36.404 C35.083,34.677 36.906,33.5 39,33.5 C42.032,33.5 44.5,35.968 44.5,39 C44.5,42.032 42.032,44.5 39,44.5 Z" id="Shape"></path>
        </g>
    </g>
</svg>