<?xml version="1.0" encoding="UTF-8"?>
<svg width="75px" height="64px" viewBox="0 0 75 64" version="1.1" xmlns="http://www.w3.org/2000/svg" xmlns:xlink="http://www.w3.org/1999/xlink">
    <!-- Generator: Sketch 52.6 (67491) - http://www.bohemiancoding.com/sketch -->
    <title>Group</title>
    <desc>Created with Sketch.</desc>
    <g id="Page-1" stroke="none" stroke-width="1" fill="none" fill-rule="evenodd">
        <g id="noun_candle-stick_2452287" fill="#000000" fill-rule="nonzero">
            <g id="Group">
                <path d="M4,58 L0,58 L0,37 L4,37 L4,33 L6,33 L6,37 L10,37 L10,58 L6,58 L6,64 L4,64 L4,58 Z M1,38 L1,57 L9,57 L9,38 L1,38 Z M58,47 L58,56 L56,56 L56,47 L52,47 L52,24 L56,24 L56,19 L58,19 L58,24 L62,24 L62,47 L58,47 Z M53,46 L61,46 L61,25 L53,25 L53,46 Z M71,46 L75,46 L75,64 L65,64 L65,46 L69,46 L69,42 L71,42 L71,46 Z M66,63 L74,63 L74,47 L66,47 L66,63 Z M19,28 L23,28 L23,42 L19,42 L19,50 L17,50 L17,42 L13,42 L13,28 L17,28 L17,24 L19,24 L19,28 Z M14,29 L14,41 L22,41 L22,29 L14,29 Z M43,18 L39,18 L39,16 L43,16 L43,14 L45,14 L45,16 L49,16 L49,18 L45,18 L45,22 L43,22 L43,18 Z M40,17 L48,17 L40,17 Z M32,4 L36,4 L36,28 L32,28 L32,32 L30,32 L30,28 L26,28 L26,4 L30,4 L30,0 L32,0 L32,4 Z M27,5 L27,27 L35,27 L35,5 L27,5 Z" id="Shape"></path>
            </g>
        </g>
    </g>
</svg>