<?xml version="1.0" encoding="UTF-8"?>
<svg width="76px" height="68px" viewBox="0 0 76 68" version="1.1" xmlns="http://www.w3.org/2000/svg" xmlns:xlink="http://www.w3.org/1999/xlink">
    <!-- Generator: Sketch 52.6 (67491) - http://www.bohemiancoding.com/sketch -->
    <title>noun_centralized network_1607605</title>
    <desc>Created with Sketch.</desc>
    <g id="Page-1" stroke="none" stroke-width="1" fill="none" fill-rule="evenodd">
        <g id="noun_centralized-network_1607605" fill="#000000">
            <path d="M42.5,28 L42.5,5.9 C42.3,6 42.2,6 42,6 C41.8,6 41.7,6 41.5,5.9 L41.5,28 C41.7,28 41.8,28 42,28 C42.2,28 42.3,28 42.5,28 Z" id="Path"></path>
            <path d="M71.6,62.9 L46.6,37.9 C46.4,38.2 46.1,38.4 45.9,38.6 L70.9,63.6 C71.1,63.3 71.3,63.1 71.6,62.9 Z" id="Path"></path>
            <path d="M35.3,46.2 C35.6,46.3 35.9,46.4 36.2,46.6 L39.8,39.5 C39.5,39.4 39.2,39.2 38.9,39 L35.3,46.2 Z" id="Path"></path>
            <path d="M37.4,37.9 L12.4,62.9 C12.7,63.1 12.9,63.3 13.1,63.6 L38.1,38.6 C37.9,38.4 37.6,38.1 37.4,37.9 Z" id="Path"></path>
            <path d="M36,33.5 L13.9,33.5 C13.9,33.7 14,33.8 14,34 C14,34.2 14,34.3 13.9,34.5 L36,34.5 C36,34.3 36,34.2 36,34 C36,33.8 36,33.7 36,33.5 Z" id="Path"></path>
            <path d="M63,20.6 C62.8,20.3 62.6,20.1 62.4,19.8 L46.7,30.3 C46.9,30.6 47.1,30.8 47.3,31.1 L63,20.6 Z" id="Path"></path>
            <path d="M46.6,30.1 L71.6,5.1 C71.3,4.9 71.1,4.7 70.9,4.4 L45.9,29.4 C46.1,29.6 46.4,29.9 46.6,30.1 Z" id="Path"></path>
            <path d="M5.9,19 C5.8,19.3 5.7,19.6 5.5,19.9 L36.3,32.2 C36.4,31.9 36.5,31.6 36.7,31.3 L5.9,19 Z" id="Path"></path>
            <circle id="Oval" cx="42" cy="34" r="4"></circle>
            <circle id="Oval" cx="42" cy="2" r="2"></circle>
            <circle id="Oval" cx="66" cy="18" r="2"></circle>
            <circle id="Oval" cx="34" cy="50" r="2"></circle>
            <circle id="Oval" cx="10" cy="34" r="2"></circle>
            <circle id="Oval" cx="10" cy="66" r="2"></circle>
            <circle id="Oval" cx="2" cy="18" r="2"></circle>
            <circle id="Oval" cx="74" cy="2" r="2"></circle>
            <circle id="Oval" cx="74" cy="66" r="2"></circle>
        </g>
    </g>
</svg>