<?xml version="1.0" encoding="UTF-8"?>
<svg width="90px" height="90px" viewBox="0 0 90 90" version="1.1" xmlns="http://www.w3.org/2000/svg" xmlns:xlink="http://www.w3.org/1999/xlink">
    <!-- Generator: Sketch 52.6 (67491) - http://www.bohemiancoding.com/sketch -->
    <title>noun_chart_973937</title>
    <desc>Created with Sketch.</desc>
    <g id="Page-1" stroke="none" stroke-width="1" fill="none" fill-rule="evenodd">
        <g id="noun_chart_973937" fill="#000000">
            <path d="M89.5,43.5 C89.5,43.5 81,51.8 81,51.8 C81.1,52.2 81.2,52.6 81.2,53 C81.2,55.3 79.5,57.3 77.3,57.6 L77.3,89 C77.3,89.4 77,89.7 76.6,89.7 C76.2,89.7 75.9,89.4 75.9,89 L75.9,57.7 C73.7,57.4 72,55.4 72,53.1 C72,52.7 72.1,52.2 72.2,51.8 L62.5,42.1 C62.1,42.3 61.6,42.4 61.1,42.4 L61.1,89 C61.1,89.4 60.8,89.7 60.4,89.7 C60,89.7 59.7,89.4 59.7,89 L59.7,42.3 C59.5,42.3 59.3,42.2 59.1,42.1 L44.9,56.4 L44.9,89 C44.9,89.4 44.6,89.7 44.2,89.7 C43.8,89.7 43.5,89.4 43.5,89 L43.5,57.8 L32.3,69 C32.5,69.5 32.7,70.2 32.7,70.8 C32.7,73.1 31,75.1 28.8,75.4 L28.8,89 C28.8,89.4 28.5,89.7 28.1,89.7 C27.7,89.7 27.4,89.4 27.4,89 L27.4,75.4 C25.2,75.1 23.5,73.1 23.5,70.8 C23.5,70.3 23.6,69.8 23.7,69.4 L12.9,58.6 L12.6,58.6 L12.6,89 C12.6,89.4 12.3,89.7 11.9,89.7 C11.5,89.7 11.2,89.4 11.2,89 L11.2,58.7 C10.7,58.6 10.3,58.5 9.8,58.3 L2.6,65.5 C2,66.1 1.1,66.1 0.6,65.5 C-8.8817842e-16,64.9 -8.8817842e-16,64 0.6,63.5 L7.8,56.3 C7.5,55.7 7.3,55 7.3,54.2 C7.3,51.9 9,50 11.2,49.6 L11.2,4.2 C10.4,3.9 9.9,3.2 9.9,2.3 C9.9,1.2 10.8,0.3 11.9,0.3 C13,0.3 13.9,1.2 13.9,2.3 C13.9,3.2 13.3,3.9 12.6,4.2 L12.6,49.5 C14.8,49.8 16.5,51.8 16.5,54.1 C16.5,55.2 16.1,56.3 15.4,57.1 L25.3,67.1 C25.9,66.7 26.6,66.4 27.3,66.3 L27.3,4.3 C26.5,4 26,3.3 26,2.4 C26,1.3 26.9,0.4 28,0.4 C29.1,0.4 30,1.3 30,2.4 C30,3.3 29.5,4 28.7,4.3 L28.7,66.3 C29.3,66.4 29.9,66.6 30.3,66.9 L43.4,53.8 L43.4,4.2 C42.6,3.9 42.1,3.2 42.1,2.3 C42.1,1.2 43,0.3 44.1,0.3 C45.2,0.3 46.1,1.2 46.1,2.3 C46.1,3.2 45.6,3.9 44.8,4.2 L44.8,52.2 L56.6,40.3 C56.1,39.6 55.8,38.7 55.8,37.7 C55.8,35.5 57.4,33.6 59.4,33.2 L59.4,4.2 C58.6,3.9 58.1,3.2 58.1,2.3 C58.1,1.2 59,0.3 60.1,0.3 C61.2,0.3 62.1,1.2 62.1,2.3 C62.1,3.2 61.6,3.9 60.8,4.2 L60.8,33.1 C61.4,33.1 61.9,33.3 62.4,33.6 C63.9,34.4 65,35.9 65,37.8 C65,38.7 64.8,39.5 64.3,40.2 L73.5,49.4 C74.1,48.9 74.8,48.6 75.6,48.5 L75.6,4.2 C74.8,3.9 74.3,3.2 74.3,2.3 C74.3,1.2 75.2,0.3 76.3,0.3 C77.4,0.3 78.3,1.2 78.3,2.3 C78.3,3.2 77.8,3.9 77,4.2 L77,48.5 C77.8,48.6 78.5,48.9 79.1,49.4 C79.1,49.4 87.2,41.3 87.2,41.3 C87.8,40.7 88.8,40.7 89.5,41.3 C90.1,41.9 90.1,42.9 89.5,43.5 Z" id="Path"></path>
        </g>
    </g>
</svg>