<?xml version="1.0" encoding="UTF-8"?>
<svg width="84px" height="78px" viewBox="0 0 84 78" version="1.1" xmlns="http://www.w3.org/2000/svg" xmlns:xlink="http://www.w3.org/1999/xlink">
    <!-- Generator: Sketch 52.6 (67491) - http://www.bohemiancoding.com/sketch -->
    <title>noun_cloud technology_1592980</title>
    <desc>Created with Sketch.</desc>
    <g id="Page-1" stroke="none" stroke-width="1" fill="none" fill-rule="evenodd">
        <g id="noun_cloud-technology_1592980" fill="#000000">
            <g id="Group">
                <path d="M65.53,11.171 C64.041,11.171 62.569,11.351 61.143,11.705 C56.879,4.755 49.258,0.466 41.081,0.466 C30.247,0.466 20.788,7.943 18.233,18.378 C17.19,18.147 16.12,18.029 15.04,18.029 C6.912,18.029 0.299,24.642 0.299,32.77 C0.299,40.895 6.905,47.506 15.027,47.513 C15.031,47.513 15.035,47.514 15.039,47.514 L20.006,47.514 C20.508,47.514 20.916,47.107 20.916,46.604 C20.916,46.102 20.508,45.695 20.006,45.695 L15.048,45.695 C15.045,45.695 15.042,45.694 15.039,45.694 C7.914,45.694 2.118,39.896 2.118,32.77 C2.118,25.645 7.914,19.849 15.039,19.849 C16.272,19.849 17.49,20.022 18.661,20.365 C24.137,21.957 27.961,27.059 27.961,32.77 C27.961,33.003 27.955,33.241 27.942,33.476 C27.915,33.977 28.301,34.406 28.802,34.433 C29.302,34.46 29.732,34.074 29.759,33.572 C29.773,33.305 29.78,33.035 29.78,32.77 C29.78,26.541 25.791,20.951 19.982,18.883 C22.313,9.219 31.058,2.286 41.08,2.286 C48.841,2.286 56.06,6.474 59.923,13.215 C61.794,16.476 62.783,20.202 62.783,23.989 C62.783,26.155 62.465,28.294 61.837,30.346 C61.691,30.826 61.961,31.335 62.441,31.482 C62.53,31.509 62.619,31.522 62.708,31.522 C63.097,31.522 63.458,31.27 63.577,30.878 C64.258,28.653 64.602,26.336 64.602,23.989 C64.602,20.285 63.726,16.635 62.064,13.359 C63.195,13.115 64.355,12.992 65.528,12.992 C74.544,12.992 81.879,20.326 81.879,29.343 C81.879,38.359 74.544,45.694 65.528,45.694 C65.524,45.694 65.52,45.695 65.516,45.695 L62.154,45.695 C61.652,45.695 61.245,46.102 61.245,46.605 C61.245,47.107 61.652,47.514 62.154,47.514 L65.529,47.514 C65.533,47.514 65.538,47.513 65.543,47.513 C75.555,47.505 83.698,39.357 83.698,29.343 C83.698,19.322 75.548,11.171 65.53,11.171 Z" id="Path"></path>
                <path d="M41.991,55.725 L41.991,35.261 C41.991,34.759 41.584,34.351 41.081,34.351 C40.578,34.351 40.171,34.759 40.171,35.261 L40.171,55.725 C38.504,56.134 37.263,57.636 37.263,59.427 C37.263,61.531 38.975,63.242 41.079,63.242 C43.183,63.242 44.895,61.53 44.895,59.427 C44.897,57.637 43.656,56.135 41.991,55.725 Z M41.081,61.424 C39.98,61.424 39.084,60.528 39.084,59.427 C39.084,58.326 39.98,57.431 41.081,57.431 C42.182,57.431 43.077,58.327 43.077,59.427 C43.076,60.528 42.181,61.424 41.081,61.424 Z" id="Shape" fill-rule="nonzero"></path>
                <path d="M14.88,70.018 L14.88,62.568 L23.473,53.975 C23.499,53.95 23.518,53.92 23.54,53.893 C23.554,53.874 23.571,53.859 23.584,53.839 C23.609,53.802 23.628,53.762 23.647,53.723 C23.654,53.709 23.662,53.697 23.668,53.683 C23.689,53.635 23.703,53.586 23.714,53.536 C23.716,53.529 23.719,53.521 23.721,53.514 C23.734,53.451 23.74,53.389 23.739,53.325 L23.739,41.993 C23.739,41.49 23.332,41.083 22.829,41.083 C22.326,41.083 21.919,41.49 21.919,41.993 L21.919,52.957 L13.326,61.55 C13.285,61.591 13.25,61.636 13.219,61.682 C13.218,61.684 13.217,61.685 13.216,61.686 C13.189,61.727 13.167,61.771 13.146,61.815 C13.142,61.825 13.136,61.833 13.132,61.842 C13.111,61.891 13.097,61.942 13.085,61.992 C13.084,61.999 13.081,62.005 13.079,62.012 C13.067,62.074 13.06,62.137 13.06,62.2 L13.06,70.02 C11.394,70.429 10.154,71.931 10.154,73.721 C10.154,75.825 11.866,77.537 13.97,77.537 C16.074,77.537 17.785,75.825 17.785,73.721 C17.785,71.93 16.545,70.428 14.88,70.018 Z M13.969,75.716 C12.868,75.716 11.973,74.82 11.973,73.72 C11.973,72.62 12.869,71.724 13.969,71.724 C15.069,71.724 15.965,72.62 15.965,73.72 C15.965,74.82 15.07,75.716 13.969,75.716 Z" id="Shape" fill-rule="nonzero"></path>
                <path d="M31.421,38.091 C30.919,38.091 30.511,38.498 30.511,39.001 L30.511,57.897 L26.646,61.762 C26.602,61.805 26.563,61.853 26.529,61.904 C26.52,61.918 26.514,61.932 26.506,61.946 C26.485,61.983 26.463,62.021 26.445,62.061 C26.438,62.08 26.434,62.099 26.427,62.118 C26.414,62.156 26.401,62.192 26.393,62.232 C26.389,62.256 26.389,62.282 26.386,62.306 C26.382,62.34 26.376,62.372 26.376,62.407 L26.376,64.635 C24.711,65.044 23.471,66.546 23.471,68.336 C23.471,70.44 25.182,72.151 27.286,72.151 C29.39,72.151 31.102,70.439 31.102,68.336 C31.102,66.545 29.861,65.043 28.195,64.634 L28.195,62.785 L32.062,58.918 C32.104,58.876 32.142,58.829 32.175,58.779 C32.19,58.757 32.2,58.732 32.213,58.708 C32.229,58.681 32.246,58.652 32.258,58.622 C32.271,58.592 32.278,58.56 32.287,58.528 C32.294,58.503 32.304,58.478 32.309,58.452 C32.321,58.393 32.328,58.334 32.328,58.274 L32.328,39 C32.33,38.498 31.923,38.091 31.421,38.091 Z M29.283,68.335 C29.283,69.436 28.388,70.331 27.287,70.331 C26.186,70.331 25.291,69.435 25.291,68.335 C25.291,67.235 26.187,66.339 27.287,66.339 C28.388,66.339 29.283,67.234 29.283,68.335 Z" id="Shape" fill-rule="nonzero"></path>
                <path d="M55.783,64.633 L55.783,62.406 C55.783,62.385 55.778,62.365 55.777,62.343 C55.774,62.305 55.772,62.267 55.765,62.229 C55.758,62.196 55.746,62.164 55.736,62.131 C55.728,62.108 55.723,62.082 55.714,62.059 C55.699,62.024 55.68,61.992 55.661,61.958 C55.65,61.939 55.642,61.92 55.631,61.901 C55.597,61.851 55.559,61.804 55.516,61.761 L51.651,57.895 L51.651,39 C51.651,38.498 51.244,38.09 50.741,38.09 C50.239,38.09 49.832,38.497 49.832,39 L49.832,58.269 C49.831,58.331 49.838,58.392 49.85,58.454 C49.854,58.471 49.861,58.485 49.865,58.502 C49.876,58.543 49.886,58.584 49.903,58.623 C49.912,58.644 49.924,58.664 49.934,58.685 C49.951,58.717 49.966,58.749 49.986,58.78 C50.008,58.813 50.036,58.843 50.062,58.873 C50.075,58.888 50.084,58.903 50.098,58.918 L53.965,62.785 L53.965,64.634 C52.299,65.044 51.059,66.546 51.059,68.336 C51.059,70.44 52.77,72.151 54.874,72.151 C56.978,72.151 58.689,70.439 58.689,68.336 C58.689,66.545 57.448,65.043 55.783,64.633 Z M54.873,70.331 C53.772,70.331 52.877,69.435 52.877,68.335 C52.877,67.235 53.773,66.339 54.873,66.339 C55.973,66.339 56.869,67.235 56.869,68.335 C56.869,69.435 55.974,70.331 54.873,70.331 Z" id="Shape" fill-rule="nonzero"></path>
                <path d="M69.102,70.018 L69.102,62.196 C69.102,62.133 69.095,62.072 69.083,62.011 C69.08,61.999 69.075,61.988 69.072,61.976 C69.06,61.93 69.049,61.885 69.03,61.841 C69.024,61.826 69.015,61.813 69.009,61.799 C68.989,61.76 68.971,61.721 68.946,61.685 C68.937,61.671 68.925,61.661 68.916,61.647 C68.891,61.614 68.865,61.58 68.835,61.548 L60.242,52.956 L60.242,41.991 C60.242,41.488 59.835,41.081 59.332,41.081 C58.83,41.081 58.423,41.488 58.423,41.991 L58.423,53.32 C58.421,53.444 58.445,53.568 58.494,53.684 C58.497,53.691 58.501,53.697 58.504,53.704 C58.525,53.751 58.549,53.797 58.578,53.84 C58.583,53.847 58.589,53.853 58.595,53.86 C58.623,53.9 58.653,53.939 58.689,53.975 L67.282,62.568 L67.282,70.018 C65.617,70.428 64.377,71.929 64.377,73.719 C64.377,75.823 66.089,77.534 68.192,77.534 C70.296,77.534 72.008,75.823 72.008,73.719 C72.007,71.929 70.767,70.427 69.102,70.018 Z M68.192,75.716 C67.091,75.716 66.196,74.82 66.196,73.72 C66.196,72.62 67.092,71.724 68.192,71.724 C69.292,71.724 70.188,72.62 70.188,73.72 C70.188,74.82 69.292,75.716 68.192,75.716 Z" id="Shape" fill-rule="nonzero"></path>
            </g>
        </g>
    </g>
</svg>