<?xml version="1.0" encoding="UTF-8"?>
<svg width="53px" height="76px" viewBox="0 0 53 76" version="1.1" xmlns="http://www.w3.org/2000/svg" xmlns:xlink="http://www.w3.org/1999/xlink">
    <!-- Generator: Sketch 52.6 (67491) - http://www.bohemiancoding.com/sketch -->
    <title>Group</title>
    <desc>Created with Sketch.</desc>
    <g id="Page-1" stroke="none" stroke-width="1" fill="none" fill-rule="evenodd">
        <g id="noun_Settings-File_1403491" fill="#000000">
            <g id="Group">
                <g>
                    <path d="M52.39521,16.25781 L25.24293,0.58319 L25.21552,0.56738 C25.1983815,0.560422355 25.1808438,0.554491851 25.163,0.54962 C25.1245804,0.53072142 25.0838505,0.516937472 25.04185,0.50862 C24.9786672,0.506122654 24.9153858,0.508549993 24.85258,0.51588 C24.8211452,0.525374587 24.7907244,0.537948882 24.76176,0.55342 C24.7370854,0.561259373 24.7131142,0.571160965 24.6901,0.58302 L22.1428,2.2649 L19.2165,0.56738 C19.1946346,0.558017277 19.1720898,0.550328504 19.14906,0.54438 C19.11638,0.529128735 19.0821435,0.517463969 19.04695,0.50959 C19.0139927,0.505840147 18.9807362,0.505505035 18.94771,0.50859 C18.9176673,0.507681061 18.8876061,0.509623088 18.85793,0.51439 C18.8210459,0.524430528 18.7854688,0.538768767 18.75193,0.55711 C18.7307789,0.563943909 18.7101375,0.572264653 18.69016,0.58201 L16.74546,1.86332 L13.7497,0.13379 L13.7345,0.12756 L13.72431,0.12012 C13.69593,0.1048 13.6648,0.09918 13.63544,0.08679 C13.5876969,0.0644428502 13.5382673,0.0458921146 13.48761,0.03131 C13.4015868,0.0185395456 13.3150927,0.00917224258 13.22833,0.00323 C13.186833,0.00597012057 13.1455506,0.0113308109 13.10473,0.01928 C13.0589125,0.0242511437 13.013494,0.0323872486 12.9688,0.04363 C12.9310375,0.0565838985 12.8940847,0.0717877835 12.85814,0.08916 C12.8211169,0.101824321 12.7848969,0.116725074 12.74968,0.13378 C12.74022,0.13921 12.73338,0.14763 12.72417,0.15337 C12.71644,0.1582 12.70753,0.16 12.6999,0.165 L1.30537,7.66113 C1.27805832,7.68212705 1.25189712,7.70457955 1.227,7.72839 C1.19304643,7.7539792 1.16075459,7.78170182 1.13032,7.81139 C1.10060175,7.84514144 1.07323415,7.88089205 1.04841,7.91839 C0.979764319,8.02179519 0.92562959,8.13412921 0.88752,8.25225 C0.876747005,8.30297999 0.869909989,8.35446657 0.86707,8.40625 C0.86426,8.43652 0.85517,8.46533 0.85517,8.49609 L0.85517,52.7334 C0.855073081,53.0907398 1.04568914,53.4209669 1.35517,53.59961 L39.92158,75.86621 C40.2310096,76.0448593 40.6122468,76.0448417 40.9216599,75.8661639 C41.2310731,75.687486 41.421646,75.3572986 41.42158,75 L41.42158,72.85168 L45.89521,75.43261 C46.0498498,75.5218914 46.2403652,75.5219289 46.3950401,75.4327083 C46.5497149,75.3434877 46.6450698,75.1785526 46.64521,74.99999 L46.64521,72.40613 L51.89521,75.4336 C51.9713996,75.4769801 52.0575364,75.4998615 52.14521,75.50001 C52.4211378,75.4994927 52.6446927,75.2759378 52.64521,75.00001 L52.64521,16.69043 C52.6451584,16.5119137 52.549854,16.3469913 52.39521,16.25781 Z M12.2497,13.06445 C12.2407056,13.1425952 12.2397238,13.2214551 12.24677,13.2998 C12.1582907,13.279835 12.0737856,13.2451744 11.99677,13.19726 L3.75867,8.44026 L12.2497,2.85444 L12.2497,13.06445 Z M39.42158,73.26758 L2.85517,52.15625 L2.85517,10.22852 L10.99677,14.92969 C11.1922521,15.0423054 11.4001734,15.1317937 11.61634,15.19635 C11.68464,15.21686 11.7508,15.2196 11.81873,15.23389 C11.9531959,15.2660866 12.0902846,15.2861273 12.22834,15.29377 C12.24622,15.2942 12.26508,15.30177 12.28291,15.30177 C12.3798398,15.2968255 12.476272,15.2847293 12.57142,15.26558 C12.6313,15.25685 12.69306,15.25728 12.75142,15.243 C12.9221968,15.2027494 13.0863645,15.1383618 13.23897,15.05178 C13.9123473,14.6225676 14.2994433,13.8614661 14.24971,13.06448 L14.24971,2.73242 L39.42158,17.26465 L39.42158,73.26758 Z M45.64521,74.13477 L41.42158,71.698 L41.42158,16.6875 C41.4216769,16.3301602 41.2310609,15.9999331 40.92158,15.82129 L17.71516,2.42322 L18.98268,1.58814 L21.904,3.28223 C21.92353,3.29297 21.944,3.30274 21.96455,3.31153 L45.64521,16.97953 L45.64521,74.13477 Z M51.64522,74.13477 L46.64521,71.25068 L46.64521,16.69043 C46.6451584,16.5119137 46.549854,16.3469913 46.39521,16.25781 L23.11512,2.82086 L24.98322,1.58716 L51.64522,16.97949 L51.64522,74.13477 Z" id="Shape" fill-rule="nonzero"></path>
                    <path d="M4.81513,19.40137 C4.97774995,19.5103918 5.16914701,19.5685281 5.36493,19.56837 C5.86387527,19.5710932 6.28954637,19.2079605 6.36547829,18.7148194 C6.4414102,18.2216783 6.14469341,17.7473151 5.66803963,17.5998195 C5.19138584,17.4523238 4.67860698,17.6761967 4.46274282,18.1260372 C4.24687867,18.5758777 4.39305791,19.1159637 4.80634,19.39552 L4.81513,19.40137 Z" id="Path"></path>
                    <path d="M4.81513,23.42285 C4.97774995,23.5318718 5.16914701,23.5900081 5.36493,23.58985 C5.86387527,23.5925732 6.28954637,23.2294405 6.36547829,22.7362994 C6.4414102,22.2431583 6.14469341,21.7687951 5.66803963,21.6212995 C5.19138584,21.4738038 4.67860698,21.6976767 4.46274282,22.1475172 C4.24687867,22.5973577 4.39305791,23.1374437 4.80634,23.417 L4.81513,23.42285 Z" id="Path"></path>
                    <path d="M4.81513,27.44434 C4.97774995,27.5533618 5.16914701,27.6114981 5.36493,27.61134 C5.86387527,27.6140632 6.28954637,27.2509305 6.36547829,26.7577894 C6.4414102,26.2646483 6.14469341,25.7902851 5.66803963,25.6427895 C5.19138584,25.4952938 4.67860698,25.7191667 4.46274282,26.1690072 C4.24687867,26.6188477 4.39305791,27.1589337 4.80634,27.43849 L4.81513,27.44434 Z" id="Path"></path>
                    <path d="M5.84638,29.75488 C5.36414947,29.4910375 4.75937018,29.666006 4.49250348,30.1465695 C4.22563677,30.627133 4.39680247,31.2329996 4.87568,31.50288 L4.88447,31.50776 C5.03161676,31.5900445 5.19732942,31.633413 5.36592,31.63376 C5.82262059,31.632743 6.22078388,31.3228738 6.33392966,30.8804097 C6.44707544,30.4379455 6.24653984,29.9749785 5.84639,29.75485 L5.84638,29.75488 Z" id="Path"></path>
                    <path d="M5.84638,33.77637 C5.53391567,33.6002749 5.15106215,33.6050577 4.84309439,33.7889036 C4.53512662,33.9727495 4.34924218,34.3074832 4.35597546,34.666089 C4.36270874,35.0246948 4.56102785,35.3522146 4.87568,35.52437 L4.88447,35.52925 C5.03161676,35.6115345 5.19732942,35.654903 5.36592,35.65525 C5.82262059,35.654233 6.22078388,35.3443638 6.33392966,34.9018997 C6.44707544,34.4594355 6.24653984,33.9964685 5.84639,33.77634 L5.84638,33.77637 Z" id="Path"></path>
                    <path d="M5.84638,37.79785 C5.36414947,37.5340075 4.75937018,37.708976 4.49250348,38.1895395 C4.22563677,38.670103 4.39680247,39.2759696 4.87568,39.54585 L4.88447,39.55073 C5.03161676,39.6330145 5.19732942,39.676383 5.36592,39.67673 C5.82262059,39.675713 6.22078388,39.3658438 6.33392966,38.9233797 C6.44707544,38.4809155 6.24653984,38.0179485 5.84639,37.79782 L5.84638,37.79785 Z" id="Path"></path>
                    <path d="M5.84638,41.81934 C5.53391567,41.6432449 5.15106215,41.6480277 4.84309439,41.8318736 C4.53512662,42.0157195 4.34924218,42.3504532 4.35597546,42.709059 C4.36270874,43.0676648 4.56102785,43.3951846 4.87568,43.56734 L4.88447,43.57222 C5.03161676,43.6545045 5.19732942,43.697873 5.36592,43.69822 C5.82262059,43.697203 6.22078388,43.3873338 6.33392966,42.9448697 C6.44707544,42.5024055 6.24653984,42.0394385 5.84639,41.81931 L5.84638,41.81934 Z" id="Path"></path>
                    <path d="M5.84638,45.84082 C5.36414947,45.5769775 4.75937018,45.751946 4.49250348,46.2325095 C4.22563677,46.713073 4.39680247,47.3189396 4.87568,47.58882 L4.88447,47.5937 C5.03161676,47.6759845 5.19732942,47.719353 5.36592,47.7197 C5.82262059,47.718683 6.22078388,47.4088138 6.33392966,46.9663497 C6.44707544,46.5238855 6.24653984,46.0609185 5.84639,45.84079 L5.84638,45.84082 Z" id="Path"></path>
                    <path d="M5.84638,49.8623 C5.53391567,49.6862049 5.15106215,49.6909877 4.84309439,49.8748336 C4.53512662,50.0586795 4.34924218,50.3934132 4.35597546,50.752019 C4.36270874,51.1106248 4.56102785,51.4381446 4.87568,51.6103 L4.88447,51.61518 C5.03161676,51.6974645 5.19732942,51.740833 5.36592,51.74118 C5.82262059,51.740163 6.22078388,51.4302938 6.33392966,50.9878297 C6.44707544,50.5453655 6.24653984,50.0823985 5.84639,49.86227 L5.84638,49.8623 Z" id="Path"></path>
                    <path d="M11.0588118,34.6653947 C10.949504,34.9697269 10.9942636,35.3081442 11.1789318,35.5735947 L14.7219318,40.6673447 C14.9249751,40.9634106 15.2710871,41.1279866 15.628883,41.0985995 C15.986679,41.0692123 16.3012992,40.8503678 16.4533133,40.5251398 C16.6053273,40.1999117 16.5714273,39.8181662 16.3644818,39.5248147 L13.6222918,35.5824347 L15.8156518,34.9623147 C16.1600515,34.8656074 16.4265379,34.5922612 16.5144627,34.2455153 C16.6023875,33.8987694 16.4983507,33.5314691 16.2416454,33.2823388 C15.9849402,33.0332085 15.6146894,32.9402166 15.2707318,33.0384847 L11.7277318,34.0404847 C11.4167464,34.128224 11.1674804,34.3610901 11.0588118,34.6653947 Z" id="Path"></path>
                    <path d="M25.0385288,46.3686644 C25.1600281,46.7988332 25.5524708,47.0959566 25.9994688,47.0962044 C26.0919583,47.0965058 26.1840227,47.0836813 26.2729088,47.0581144 L29.8159088,46.0561144 C30.1268446,45.9679785 30.3760496,45.7350618 30.4849702,45.4307835 C30.5938908,45.1265052 30.5491082,44.7883516 30.3647388,44.5229144 L26.8217388,39.4291644 C26.6176366,39.1357457 26.2725013,38.9735029 25.9163421,39.0035513 C25.560183,39.0335997 25.247109,39.2513743 25.0950521,39.5748414 C24.9429952,39.8983084 24.9750565,40.2783257 25.1791588,40.5717444 L27.9213088,44.5141744 L25.7279488,45.1342944 C25.4727808,45.2064701 25.2567606,45.3771021 25.1274541,45.6086186 C24.9981476,45.840135 24.9661578,46.1135517 25.0385288,46.3686644 Z" id="Path"></path>
                    <path d="M17.4970036,44.988202 C17.7262087,45.1216338 17.9990393,45.1585263 18.2554507,45.0907602 C18.5118621,45.0229941 18.7308407,44.856123 18.8641936,44.626872 L24.1786436,35.502872 C24.3583232,35.1941016 24.3596269,34.8129281 24.1820638,34.5029359 C24.0045006,34.1929436 23.6750465,34.0012278 23.3178038,34.0000059 C22.960561,33.998784 22.6298032,34.1882416 22.4501236,34.497012 L17.1356736,43.621012 C16.8581901,44.098367 17.0199084,44.710272 17.4970036,44.988202 Z" id="Path"></path>
                </g>
            </g>
        </g>
    </g>
</svg>