<?xml version="1.0" encoding="UTF-8"?>
<svg width="91px" height="91px" viewBox="0 0 91 91" version="1.1" xmlns="http://www.w3.org/2000/svg" xmlns:xlink="http://www.w3.org/1999/xlink">
    <!-- Generator: Sketch 52.6 (67491) - http://www.bohemiancoding.com/sketch -->
    <title>compilation</title>
    <desc>Created with Sketch.</desc>
    <g id="Page-1" stroke="none" stroke-width="1" fill="none" fill-rule="evenodd">
        <g id="compilation" transform="translate(-1.000000, -1.000000)">
            <g id="Group" transform="translate(0.097641, 0.117371)" fill="#000000">
                <path d="M8.49,2.3993 C8.431,2.3993149 8.34621,2.39563 8.23562,2.38824 C8.12501,2.38088 8.0439,2.377195 7.9923,2.37718 C7.1001,2.377195 6.4955,2.55047 6.1784,2.89701 C5.86133,3.24358 5.7028,3.96991 5.70281,5.07591 L5.70281,7.75251 C5.702803,8.97651 5.54243,9.84471 5.22169,10.35721 C4.90094,10.86967 4.33134,11.24019 3.51289,11.46881 C4.33134,11.69002 4.90099,12.05685 5.22169,12.56931 C5.54243,13.08177 5.7028,13.95001 5.70281,15.17401 L5.70281,17.85061 C5.702803,18.94921 5.86318,19.67001 6.18393,20.01291 C6.50467,20.35577 7.12957,20.52721 8.05863,20.52721 L8.48998,20.52721 L8.49,21.90971 L8.10287,21.90971 C7.37289,21.909706 6.78487,21.86546 6.33877,21.77699 C5.89267,21.6885 5.51478,21.54103 5.20507,21.33458 C4.79952,21.06913 4.5138,20.70046 4.3479,20.22858 C4.18199,19.75667 4.09904,18.97138 4.09904,17.87278 L4.09904,15.17408 C4.09904,14.05308 3.89604,13.26808 3.49054,12.81808 C3.08494,12.36808 2.38814,12.14308 1.40014,12.14308 C1.348523,12.143085 1.26742,12.14678 1.15682,12.15414 C1.04622,12.16154 0.96142,12.16521 0.90243,12.1652 L0.90243,10.7606 C0.961416,10.760606 1.04621,10.7643 1.15682,10.77166 C1.26742,10.77906 1.34853,10.78273 1.40014,10.78272 C2.38818,10.782727 3.08494,10.55599 3.49054,10.10252 C3.89608,9.64906 4.09885,8.85822 4.09885,7.73012 L4.09885,5.03142 C4.098845,3.90332 4.1818,3.10882 4.34771,2.64792 C4.51361,2.18709 4.79933,1.82764 5.20488,1.56952 C5.51456,1.36308 5.89061,1.21561 6.33298,1.12711 C6.77538,1.038644 7.36528,0.9944 8.10258,0.99439 L8.48969,0.99439 L8.49,2.3993 Z" id="Path"></path>
                <path d="M12.339,16.402 C12.338998,16.07019 12.45697,15.78632 12.69293,15.55036 C12.92888,15.31441 13.21276,15.19644 13.54457,15.19643 C13.88375,15.196432 14.17131,15.31256 14.40727,15.54483 C14.64322,15.7771 14.76119,16.06282 14.7612,16.402 C14.761196,16.72643 14.64138,17.00847 14.40174,17.24811 C14.1621,17.48775 13.87638,17.60757 13.54457,17.60757 C13.22751,17.607569 12.94731,17.48591 12.70399,17.24258 C12.46066,16.99926 12.339,16.71906 12.339,16.402 Z" id="Path"></path>
                <path d="M18.798,16.402 C18.797998,16.07019 18.91597,15.78632 19.15193,15.55036 C19.38788,15.31441 19.67176,15.19644 20.00357,15.19643 C20.34275,15.196432 20.63031,15.31256 20.86627,15.54483 C21.10222,15.7771 21.22019,16.06282 21.2202,16.402 C21.220195,16.72643 21.10038,17.00847 20.86074,17.24811 C20.6211,17.48775 20.33538,17.60757 20.00357,17.60757 C19.68651,17.607569 19.40631,17.48591 19.16299,17.24258 C18.91966,16.99926 18.798,16.71906 18.798,16.402 Z" id="Path"></path>
                <path d="M25.257,16.402 C25.256998,16.07019 25.37497,15.78632 25.61093,15.55036 C25.84688,15.31441 26.13076,15.19644 26.46257,15.19643 C26.80175,15.196432 27.08931,15.31256 27.32527,15.54483 C27.56122,15.7771 27.67919,16.06282 27.6792,16.402 C27.679195,16.72643 27.55938,17.00847 27.31974,17.24811 C27.0801,17.48775 26.79438,17.60757 26.46257,17.60757 C26.14551,17.607569 25.86531,17.48591 25.62199,17.24258 C25.37866,16.99926 25.257,16.71906 25.257,16.402 Z" id="Path"></path>
                <path d="M35.93,5.0316 L35.93,7.7303 C35.929994,8.8511 36.13461,9.64 36.54384,10.0972 C36.95306,10.55436 37.65534,10.78294 38.65084,10.78293 C38.70244,10.782937 38.78355,10.77923 38.89416,10.77187 C39.00475,10.76447 39.08955,10.76082 39.14854,10.76081 L39.14854,12.16541 C39.08954,12.165415 39.00475,12.16171 38.89416,12.15435 C38.78355,12.14695 38.70244,12.1433 38.65084,12.14329 C37.65541,12.143295 36.95304,12.37187 36.54384,12.82902 C36.1346,13.28618 35.92999,14.07512 35.93,15.19592 L35.93,17.87252 C35.929994,19.00062 35.84888,19.79882 35.68668,20.26702 C35.52446,20.73523 35.24426,21.10206 34.8461,21.36752 C34.55853,21.55923 34.19907,21.69748 33.7677,21.78228 C33.33635,21.86707 32.7446,21.90947 31.9925,21.90947 L31.53903,21.90947 L31.53903,20.52697 C31.59802,20.526967 31.68281,20.53067 31.79341,20.53803 C31.90401,20.54543 31.98512,20.54909 32.03673,20.54909 C32.92155,20.549087 33.52433,20.37397 33.84503,20.02373 C34.16577,19.67349 34.32615,18.94163 34.32615,17.82823 L34.32615,15.17373 C34.326145,13.94973 34.48652,13.08153 34.80727,12.56903 C35.12801,12.05658 35.69761,11.68975 36.51607,11.46853 C35.69761,11.23996 35.12797,10.86944 34.80727,10.35693 C34.48652,9.84448 34.32615,8.97623 34.32615,7.75223 L34.32615,5.07563 C34.32615,3.97643 34.16415,3.25203 33.84015,2.90173 C33.51515,2.55153 32.89215,2.37643 31.97115,2.37643 L31.5398,2.37643 L31.5398,0.99393 L31.92691,0.99393 C32.66425,0.9939463 33.25781,1.04003 33.70761,1.13218 C34.15739,1.224365 34.53712,1.36999 34.84681,1.56906 C35.24497,1.82715 35.52516,2.18845 35.68739,2.65296 C35.8496,3.1175 35.93071,3.91016 35.93071,5.03086 L35.93,5.0316 Z" id="Path"></path>
            </g>
            <path d="M24.941,89.183 L45.118,89.183 L45.118,69.006 L24.941,69.006 L24.941,89.183 Z M47.118,67.006 L47.118,91.183 L22.941,91.183 L22.941,67.006 L47.118,67.006 Z" id="Rectangle" fill="#000000" fill-rule="nonzero"></path>
            <path d="M46.882,69.006 L46.882,89.183 L67.059,89.183 L67.059,69.006 L46.882,69.006 Z M69.059,67.006 L69.059,91.183 L44.882,91.183 L44.882,67.006 L69.059,67.006 Z" id="Rectangle" fill="#000000" fill-rule="nonzero"></path>
            <path d="M68.823,89.183 L89,89.183 L89,69.006 L68.823,69.006 L68.823,89.183 Z M91,67.006 L91,91.183 L66.823,91.183 L66.823,67.006 L91,67.006 Z" id="Rectangle" fill="#000000" fill-rule="nonzero"></path>
            <path d="M17.3506418,40.089203 L17.3506418,60.2662029 L37.5276417,60.2662029 L37.5276417,40.089203 L17.3506418,40.089203 Z M39.5276417,38.089203 L39.5276417,62.2662029 L15.3506418,62.2662029 L15.3506418,38.089203 L39.5276417,38.089203 Z" id="Rectangle" fill="#000000" fill-rule="nonzero" transform="translate(27.439142, 50.177703) rotate(-23.205030) translate(-27.439142, -50.177703) "></path>
            <path d="M68.823,45.177 L89,45.177 L89,25 L68.823,25 L68.823,45.177 Z M91,23 L91,47.177 L66.823,47.177 L66.823,23 L91,23 Z" id="Rectangle" fill="#000000" fill-rule="nonzero"></path>
            <path d="M46.941,67.177 L67.118,67.177 L67.118,47 L46.941,47 L46.941,67.177 Z M69.118,45 L69.118,69.177 L44.941,69.177 L44.941,45 L69.118,45 Z" id="Rectangle" fill="#000000" fill-rule="nonzero"></path>
            <path d="M68.882,67.177 L89.059,67.177 L89.059,47 L68.882,47 L68.882,67.177 Z M91.059,45 L91.059,69.177 L66.882,69.177 L66.882,45 L91.059,45 Z" id="Rectangle" fill="#000000" fill-rule="nonzero"></path>
            <path d="M16.499,22.302 C17.06298,27.1163 20.1775,32.964 22.2256,35.581" id="Path" stroke="#000000" stroke-width="1.9"></path>
        </g>
    </g>
</svg>