<?xml version="1.0" encoding="UTF-8"?>
<svg width="78px" height="78px" viewBox="0 0 78 78" version="1.1" xmlns="http://www.w3.org/2000/svg" xmlns:xlink="http://www.w3.org/1999/xlink">
    <!-- Generator: Sketch 52.6 (67491) - http://www.bohemiancoding.com/sketch -->
    <title>Shape</title>
    <desc>Created with Sketch.</desc>
    <g id="Page-1" stroke="none" stroke-width="1" fill="none" fill-rule="evenodd">
        <g id="noun_connect_1115164" fill="#000000" fill-rule="nonzero">
            <path d="M77.537,0.463 C76.952,-0.123 76.001,-0.123 75.416,0.463 L65.488,10.391 C60.091,5.528 53.279,3.094 46.468,3.094 C39.19,3.094 31.913,5.869 26.361,11.422 L21.719,16.064 L27.995,22.339 L22.338,27.996 L16.063,21.721 L11.422,26.362 C0.674,37.11 0.33,54.325 10.391,65.488 L0.463,75.416 C-0.123,76.001 -0.123,76.951 0.463,77.537 C1.048,78.123 1.999,78.123 2.584,77.537 L12.512,67.609 C17.908,72.472 24.72,74.906 31.531,74.906 C38.81,74.906 46.086,72.131 51.639,66.578 L56.28,61.937 L49.916,55.573 L55.573,49.916 L61.937,56.279 L66.578,51.638 C77.326,40.89 77.67,23.675 67.609,12.512 L77.537,2.584 C78.123,1.998 78.123,1.048 77.537,0.463 Z M29.409,35.067 L35.066,29.41 L48.501,42.845 L42.844,48.503 L29.409,35.067 Z M30.117,24.46 L32.946,27.289 L27.289,32.946 L24.46,30.117 L30.117,24.46 Z M49.518,64.457 C44.714,69.261 38.326,71.906 31.531,71.906 C24.736,71.906 18.348,69.26 13.544,64.456 C8.74,59.652 6.094,53.264 6.094,46.469 C6.094,39.675 8.74,33.287 13.543,28.483 L16.063,25.963 L52.037,61.938 L49.518,64.457 Z M53.452,47.795 L47.795,53.452 L44.966,50.624 L50.623,44.966 L53.452,47.795 Z M64.457,49.518 L61.937,52.038 L25.962,16.063 L28.482,13.542 C33.286,8.738 39.674,6.093 46.468,6.093 C53.263,6.093 59.651,8.739 64.455,13.543 C74.374,23.462 74.374,39.6 64.457,49.518 Z" id="Shape"></path>
        </g>
    </g>
</svg>