<?xml version="1.0" encoding="UTF-8"?>
<svg width="71px" height="76px" viewBox="0 0 71 76" version="1.1" xmlns="http://www.w3.org/2000/svg" xmlns:xlink="http://www.w3.org/1999/xlink">
    <!-- Generator: Sketch 52.6 (67491) - http://www.bohemiancoding.com/sketch -->
    <title>Shape</title>
    <desc>Created with Sketch.</desc>
    <g id="Page-1" stroke="none" stroke-width="1" fill="none" fill-rule="evenodd">
        <g id="noun_crypto-shopping-bag_2463646" fill="#000000" fill-rule="nonzero">
            <path d="M68.93,24.69 L47.73,24.69 L47.73,13.34 C47.8583809,8.81332029 45.5167623,4.5744554 41.6165409,2.2732418 C37.7163195,-0.0279717989 32.8736805,-0.0279717989 28.9734591,2.2732418 C25.0732377,4.5744554 22.7316191,8.81332029 22.86,13.34 L22.86,24.69 L1.65,24.69 C0.821572875,24.69 0.15,25.3615729 0.15,26.19 L0.15,73.78 C0.15,74.6084271 0.821572875,75.28 1.65,75.28 L68.93,75.28 C69.7584271,75.28 70.43,74.6084271 70.43,73.78 L70.43,26.19 C70.43,25.3615729 69.7584271,24.69 68.93,24.69 Z M25.86,13.34 C25.7478611,9.89594859 27.5212331,6.66441876 30.4865814,4.9092051 C33.4519296,3.15399144 37.1380704,3.15399144 40.1034186,4.9092051 C43.0687669,6.66441876 44.8421389,9.89594859 44.73,13.34 L44.73,24.69 L25.86,24.69 L25.86,13.34 Z M67.43,72.28 L3.15,72.28 L3.15,27.69 L67.43,27.69 L67.43,72.28 Z M32.1,45.19 C30.384868,46.9089987 29.7182883,49.4130682 30.3518014,51.7572729 C30.9853144,54.1014775 32.8224703,55.9289213 35.17,56.55 C36.1901978,56.8194994 37.2601949,56.8400763 38.29,56.61 C39.5811191,56.3464612 40.7666652,55.7102297 41.7,54.78 C42.2881833,54.1945782 43.2395782,54.1968167 43.825,54.785 C44.4104218,55.3731833 44.4081833,56.3245782 43.82,56.91 C42.7767416,57.9396918 41.5157837,58.7222375 40.13,59.2 L40.13,61.52 C40.13,62.3484271 39.4584271,63.02 38.63,63.02 C37.8015729,63.02 37.13,62.3484271 37.13,61.52 L37.13,59.76 L36.85,59.76 C36.6634562,59.769579 36.4765438,59.769579 36.29,59.76 L36.29,61.55 C36.29,62.3784271 35.6184271,63.05 34.79,63.05 C33.9615729,63.05 33.29,62.3784271 33.29,61.55 L33.29,59.08 C32.0583437,58.5856931 30.9392799,57.8475872 30,56.91 C28.1576137,55.0764394 27.1218267,52.5842945 27.1218267,49.985 C27.1218267,47.3857055 28.1576137,44.8935606 30,43.06 C30.9451481,42.1201644 32.0712102,41.3819304 33.31,40.89 L33.31,38.45 C33.31,37.6215729 33.9815729,36.95 34.81,36.95 C35.6384271,36.95 36.31,37.6215729 36.31,38.45 L36.31,40.23 C36.59,40.23 36.87,40.23 37.15,40.23 L37.15,38.45 C37.15,37.6215729 37.8215729,36.95 38.65,36.95 C39.4784271,36.95 40.15,37.6215729 40.15,38.45 L40.15,40.77 C41.5365212,41.2462096 42.7978057,42.0289579 43.84,43.06 C44.2204879,43.4387015 44.3700383,43.991624 44.2323171,44.5104869 C44.0945959,45.0293499 43.6905261,45.4353256 43.1723171,45.575487 C42.654108,45.7156483 42.1004879,45.5687015 41.72,45.19 C40.7980429,44.2678697 39.6266984,43.6352741 38.35,43.37 C37.3148496,43.1309906 36.2370157,43.1481536 35.21,43.42 C34.0308906,43.714281 32.9551573,44.3265151 32.1,45.19 Z" id="Shape"></path>
        </g>
    </g>
</svg>