<?xml version="1.0" encoding="UTF-8"?>
<svg width="80px" height="92px" viewBox="0 0 80 92" version="1.1" xmlns="http://www.w3.org/2000/svg" xmlns:xlink="http://www.w3.org/1999/xlink">
    <!-- Generator: Sketch 52.6 (67491) - http://www.bohemiancoding.com/sketch -->
    <title>noun_cube_531841</title>
    <desc>Created with Sketch.</desc>
    <g id="Page-1" stroke="none" stroke-width="1" fill="none" fill-rule="evenodd">
        <g id="noun_cube_531841" transform="translate(0.000000, -1.000000)" fill="#000000" fill-rule="nonzero">
            <path d="M79.44,23.63 L40.47,1.13 C40.1605989,0.951367205 39.7794011,0.951367205 39.47,1.13 L0.5,23.63 C0.189365807,23.809341 -0.00142400634,24.1413152 3.10862447e-15,24.5 L3.10862447e-15,69.5 C-0.00142400634,69.8586848 0.189365807,70.190659 0.5,70.37 L39.5,92.87 C39.8094011,93.0486328 40.1905989,93.0486328 40.5,92.87 L79.5,70.37 C79.8106342,70.190659 80.001424,69.8586848 80,69.5 L80,24.5 C79.9895213,24.1284641 79.7738434,23.7933931 79.44,23.63 Z M40,3.15 L77,24.5 L40,45.84 L3,24.5 L40,3.15 Z M2,26.23 L39,47.58 L39,90.27 L2,68.92 L2,26.23 Z M41,90.23 L41,47.58 L78,26.24 L78,68.92 L41,90.23 Z" id="Shape"></path>
        </g>
    </g>
</svg>