<?xml version="1.0" encoding="UTF-8"?>
<svg width="65px" height="67px" viewBox="0 0 65 67" version="1.1" xmlns="http://www.w3.org/2000/svg" xmlns:xlink="http://www.w3.org/1999/xlink">
    <!-- Generator: Sketch 52.6 (67491) - http://www.bohemiancoding.com/sketch -->
    <title>Group</title>
    <desc>Created with Sketch.</desc>
    <g id="Page-1" stroke="none" stroke-width="1" fill="none" fill-rule="evenodd">
        <g id="noun_Forex-trading_981181" fill="#000000">
            <g id="Group">
                <path d="M16.6,42.1 C17.9,42.1 19.1,42.4 20.3,43.1 L21,41.8 C19.6,41 18.1,40.6 16.6,40.6 C12.4,40.6 8.9,43.4 7.8,47.2 L4.5,47.2 L4.5,48.7 L7.5,48.7 C7.5,49 7.4,49.4 7.4,49.7 C7.4,50 7.4,50.4 7.5,50.7 L4.5,50.7 L4.5,52.2 L7.8,52.2 C8.9,56 12.4,58.8 16.6,58.8 C18.1,58.8 19.6,58.4 21,57.6 L20.3,56.3 C19.1,57 17.9,57.3 16.6,57.3 C13.3,57.3 10.4,55.2 9.4,52.2 L17.4,52.2 L17.4,50.7 L9,50.7 C9,50.4 8.9,50 8.9,49.7 C8.9,49.4 8.9,49 9,48.7 L17.3,48.7 L17.3,47.2 L9.3,47.2 C10.4,44.3 13.2,42.1 16.6,42.1 Z" id="Path"></path>
                <path d="M49.6,42.5 C51.7,42.5 53.4,44.2 53.4,46.3 L54.9,46.3 C54.9,43.4 52.5,41 49.6,41 C46.7,41 44.3,43.4 44.3,46.3 C44.3,47.6 44.8,48.8 45.2,50 C45.3,50.2 45.4,50.4 45.4,50.7 L43.3,50.7 L43.3,52.2 L45.8,52.2 C45.8,52.3 45.8,52.5 45.8,52.6 C45.8,54.9 44.8,57.1 43.1,58.7 C43.1,58.7 43.1,58.7 43.1,58.7 L44.1,59.8 C44.2,59.7 46.1,58 49.6,58.9 C49.7,58.9 52.5,59.9 54.5,58.9 L53.8,57.6 C52.6,58.2 50.8,57.8 50.1,57.5 C48.5,57.1 47.2,57.2 46.1,57.4 C46.9,56 47.3,54.3 47.3,52.7 C47.3,52.6 47.3,52.4 47.3,52.3 L52.6,52.3 L52.6,50.8 L47,50.8 C46.9,50.4 46.7,50 46.6,49.6 C46.2,48.6 45.8,47.5 45.8,46.5 C45.7,44.3 47.5,42.5 49.6,42.5 Z" id="Path"></path>
                <path d="M46.9,22.7 C46.3,22.2 46,21.5 46,20.8 L44.5,20.8 C44.5,22 45,23.1 46,23.9 C46.7,24.5 47.6,24.9 48.6,25.1 L48.6,28.1 L50,28.1 L50,25.1 C51,25 51.9,24.6 52.6,23.9 C53.5,23.1 54.1,22 54.1,20.8 C54.1,19.6 53.6,18.5 52.6,17.7 C51.7,16.9 50.5,16.5 49.2,16.5 C48.3,16.5 47.4,16.2 46.8,15.6 C46.2,15.1 45.9,14.4 45.9,13.7 C45.9,13 46.2,12.3 46.8,11.8 C48.1,10.7 50.3,10.7 51.6,11.8 C52.2,12.3 52.5,13 52.5,13.7 L54,13.7 C54,12.5 53.5,11.4 52.5,10.6 C51.9,10 51,9.6 50,9.5 L50,6.5 L48.5,6.5 L48.5,9.5 C47.5,9.6 46.6,10 45.9,10.7 C45,11.5 44.4,12.6 44.4,13.8 C44.4,15 44.9,16.1 45.9,16.9 C46.8,17.7 48,18.1 49.3,18.1 C50.2,18.1 51.1,18.4 51.7,19 C52.3,19.5 52.6,20.2 52.6,20.9 C52.6,21.6 52.3,22.3 51.7,22.8 C50.4,23.8 48.1,23.8 46.9,22.7 Z" id="Path"></path>
                <path d="M49.3,33 C58,33 65,25.9 65,17.2 C65,8.5 58,1.5 49.3,1.5 C40.6,1.5 33.6,8.6 33.6,17.2 C33.5,25.9 40.6,33 49.3,33 Z M49.3,3 C57.2,3 63.5,9.4 63.5,17.2 C63.5,25.1 57.1,31.4 49.3,31.4 C41.4,31.4 35.1,25 35.1,17.2 C35,9.4 41.4,3 49.3,3 Z" id="Shape" fill-rule="nonzero"></path>
                <path d="M15.7,0.8 C7,0.8 0,7.8 0,16.5 C0,25.2 7,32.2 15.7,32.2 C24.4,32.2 31.4,25.1 31.4,16.5 C31.4,7.9 24.4,0.8 15.7,0.8 Z M15.7,30.7 C7.8,30.7 1.5,24.3 1.5,16.5 C1.5,8.6 7.9,2.3 15.7,2.3 C23.6,2.3 30,8.6 30,16.5 C30,24.4 23.6,30.7 15.7,30.7 Z" id="Shape" fill-rule="nonzero"></path>
                <polygon id="Path" points="20.6 8 15.7 15.8 10.9 8 9.6 8.8 14.4 16.5 10.1 16.5 10.1 18 15 18 15 20.9 10.1 20.9 10.1 22.4 15 22.4 15 26.2 16.5 26.2 16.5 22.4 21.4 22.4 21.4 20.9 16.5 20.9 16.5 18 21.4 18 21.4 16.5 17.1 16.5 21.9 8.8"></polygon>
                <path d="M49.3,34.8 C40.6,34.8 33.6,41.9 33.6,50.5 C33.6,59.2 40.7,66.2 49.3,66.2 C58,66.3 65,59.2 65,50.5 C65,41.8 58,34.8 49.3,34.8 Z M49.3,64.8 C41.4,64.8 35.1,58.4 35.1,50.6 C35.1,42.7 41.5,36.4 49.3,36.4 C57.2,36.4 63.5,42.8 63.5,50.6 C63.5,58.4 57.1,64.8 49.3,64.8 Z" id="Shape" fill-rule="nonzero"></path>
                <path d="M15.7,34 C7,34 0,41.1 0,49.8 C0,58.5 7,65.5 15.7,65.5 C24.4,65.5 31.4,58.4 31.4,49.8 C31.5,41.1 24.4,34 15.7,34 Z M15.7,64 C7.9,64 1.5,57.6 1.5,49.8 C1.5,41.9 7.9,35.6 15.7,35.6 C23.6,35.6 29.9,42 29.9,49.8 C30,57.6 23.6,64 15.7,64 Z" id="Shape" fill-rule="nonzero"></path>
            </g>
        </g>
    </g>
</svg>