<?xml version="1.0" encoding="UTF-8"?>
<svg width="94px" height="86px" viewBox="0 0 94 86" version="1.1" xmlns="http://www.w3.org/2000/svg" xmlns:xlink="http://www.w3.org/1999/xlink">
    <!-- Generator: Sketch 52.6 (67491) - http://www.bohemiancoding.com/sketch -->
    <title>Group</title>
    <desc>Created with Sketch.</desc>
    <g id="Page-1" stroke="none" stroke-width="1" fill="none" fill-rule="evenodd">
        <g id="noun_Halftone-Circle-dots_1878506" transform="translate(-260.000000, -122.000000)" fill="#000000">
            <g id="Group" transform="translate(260.000000, 122.000000)">
                <path d="M24.9,5.2 C26.3,5.2 27.4,4.1 27.4,2.7 C27.4,1.5 26.6,0.6 25.6,0.3 C24.6,0.8 23.5,1.4 22.5,2 C22.4,2.2 22.4,2.4 22.4,2.7 C22.4,4.1 23.5,5.2 24.9,5.2 Z" id="Path"></path>
                <circle id="Oval" cx="36" cy="2.7" r="2.5"></circle>
                <circle id="Oval" cx="13.9" cy="14.2" r="2.5"></circle>
                <circle id="Oval" cx="24.9" cy="14.2" r="2.5"></circle>
                <circle id="Oval" cx="36" cy="14.2" r="2.5"></circle>
                <path d="M5.3,25.7 C5.3,24.7 4.7,23.9 3.9,23.5 C3.2,25 2.7,26.6 2.2,28.2 C2.4,28.3 2.6,28.3 2.8,28.3 C4.2,28.3 5.3,27.1 5.3,25.7 Z" id="Path"></path>
                <circle id="Oval" cx="13.9" cy="25.7" r="2.5"></circle>
                <circle id="Oval" cx="24.9" cy="25.7" r="2.5"></circle>
                <circle id="Oval" cx="36" cy="25.7" r="2.5"></circle>
                <circle id="Oval" cx="47" cy="2.7" r="2.5"></circle>
                <circle id="Oval" cx="58" cy="2.7" r="2.5"></circle>
                <path d="M66.6,2.7 C66.6,4.1 67.7,5.2 69.1,5.2 C70.5,5.2 71.6,4.1 71.6,2.7 C71.6,2.5 71.6,2.2 71.5,2 C70.5,1.4 69.5,0.8 68.4,0.3 C67.4,0.6 66.6,1.6 66.6,2.7 Z" id="Path"></path>
                <circle id="Oval" cx="47" cy="14.2" r="2.5"></circle>
                <circle id="Oval" cx="58" cy="14.2" r="2.5"></circle>
                <circle id="Oval" cx="69.1" cy="14.2" r="2.5"></circle>
                <circle id="Oval" cx="80.1" cy="14.2" r="2.5"></circle>
                <circle id="Oval" cx="47" cy="25.7" r="2.5"></circle>
                <circle id="Oval" cx="58" cy="25.7" r="2.5"></circle>
                <circle id="Oval" cx="69.1" cy="25.7" r="2.5"></circle>
                <circle id="Oval" cx="80.1" cy="25.7" r="2.5"></circle>
                <path d="M88.7,25.7 C88.7,27.1 89.8,28.2 91.2,28.2 C91.4,28.2 91.6,28.2 91.8,28.1 C91.3,26.5 90.7,24.9 90.1,23.4 C89.3,23.9 88.7,24.7 88.7,25.7 Z" id="Path"></path>
                <path d="M2.8,39.8 C4.2,39.8 5.3,38.7 5.3,37.3 C5.3,35.9 4.2,34.8 2.8,34.8 C1.7,34.8 0.7,35.5 0.4,36.6 C0.4,36.9 0.3,37.2 0.3,37.5 C0.4,38.7 1.5,39.8 2.8,39.8 Z" id="Path"></path>
                <circle id="Oval" cx="13.9" cy="37.2" r="2.5"></circle>
                <circle id="Oval" cx="24.9" cy="37.2" r="2.5"></circle>
                <circle id="Oval" cx="36" cy="37.2" r="2.5"></circle>
                <path d="M2.8,51.3 C4.2,51.3 5.3,50.2 5.3,48.8 C5.3,47.4 4.2,46.3 2.8,46.3 C1.7,46.3 0.8,47 0.4,48 C0.5,48.8 0.6,49.6 0.8,50.4 C1.3,50.9 2,51.3 2.8,51.3 Z" id="Path"></path>
                <circle id="Oval" cx="13.9" cy="48.7" r="2.5"></circle>
                <circle id="Oval" cx="24.9" cy="48.7" r="2.5"></circle>
                <circle id="Oval" cx="36" cy="48.7" r="2.5"></circle>
                <path d="M5.3,60.3 C5.3,58.9 4.2,57.8 2.8,57.8 C2.8,57.8 2.8,57.8 2.8,57.8 C3.3,59.3 3.9,60.7 4.6,62.1 C5,61.6 5.3,61 5.3,60.3 Z" id="Path"></path>
                <circle id="Oval" cx="13.9" cy="60.3" r="2.5"></circle>
                <circle id="Oval" cx="24.9" cy="60.3" r="2.5"></circle>
                <circle id="Oval" cx="36" cy="60.3" r="2.5"></circle>
                <path d="M16.4,71.8 C16.4,70.4 15.3,69.3 13.9,69.3 C12.5,69.3 11.4,70.4 11.4,71.8 C11.4,72.2 11.5,72.5 11.6,72.9 C11.9,73.3 12.2,73.6 12.5,74 C12.9,74.2 13.3,74.4 13.8,74.4 C15.2,74.3 16.4,73.1 16.4,71.8 Z" id="Path"></path>
                <circle id="Oval" cx="24.9" cy="71.8" r="2.5"></circle>
                <circle id="Oval" cx="36" cy="71.8" r="2.5"></circle>
                <path d="M24.9,80.8 C23.9,80.8 23.1,81.4 22.6,82.2 C24,83.1 25.5,83.8 27,84.6 C27.2,84.2 27.4,83.8 27.4,83.3 C27.4,81.9 26.3,80.8 24.9,80.8 Z" id="Path"></path>
                <circle id="Oval" cx="36" cy="83.3" r="2.5"></circle>
                <circle id="Oval" cx="47" cy="37.2" r="2.5"></circle>
                <circle id="Oval" cx="58" cy="37.2" r="2.5"></circle>
                <circle id="Oval" cx="69.1" cy="37.2" r="2.5"></circle>
                <circle id="Oval" cx="80.1" cy="37.2" r="2.5"></circle>
                <path d="M91.2,34.7 C89.8,34.7 88.7,35.8 88.7,37.2 C88.7,38.6 89.8,39.7 91.2,39.7 C92.5,39.7 93.6,38.7 93.7,37.3 C93.7,37 93.6,36.7 93.6,36.4 C93.3,35.5 92.3,34.7 91.2,34.7 Z" id="Path"></path>
                <circle id="Oval" cx="47" cy="48.7" r="2.5"></circle>
                <circle id="Oval" cx="58" cy="48.7" r="2.5"></circle>
                <circle id="Oval" cx="69.1" cy="48.7" r="2.5"></circle>
                <circle id="Oval" cx="80.1" cy="48.7" r="2.5"></circle>
                <path d="M91.2,46.2 C89.8,46.2 88.7,47.3 88.7,48.7 C88.7,50.1 89.8,51.2 91.2,51.2 C92,51.2 92.7,50.8 93.2,50.2 C93.3,49.4 93.5,48.6 93.6,47.8 C93.2,46.9 92.3,46.2 91.2,46.2 Z" id="Path"></path>
                <circle id="Oval" cx="47" cy="60.3" r="2.5"></circle>
                <circle id="Oval" cx="58" cy="60.3" r="2.5"></circle>
                <circle id="Oval" cx="69.1" cy="60.3" r="2.5"></circle>
                <circle id="Oval" cx="80.1" cy="60.3" r="2.5"></circle>
                <path d="M88.7,60.3 C88.7,61 89,61.6 89.5,62.1 C90.2,60.7 90.8,59.3 91.3,57.8 C91.3,57.8 91.3,57.8 91.3,57.8 C89.8,57.7 88.7,58.9 88.7,60.3 Z" id="Path"></path>
                <circle id="Oval" cx="47" cy="71.8" r="2.5"></circle>
                <circle id="Oval" cx="58" cy="71.8" r="2.5"></circle>
                <circle id="Oval" cx="69.1" cy="71.8" r="2.5"></circle>
                <path d="M80.1,69.2 C78.7,69.2 77.6,70.3 77.6,71.7 C77.6,73.1 78.7,74.2 80.1,74.2 C80.6,74.2 81,74.1 81.4,73.8 C81.7,73.5 82,73.1 82.3,72.7 C82.5,72.4 82.5,72 82.5,71.6 C82.7,70.4 81.5,69.2 80.1,69.2 Z" id="Path"></path>
                <circle id="Oval" cx="47" cy="83.3" r="2.5"></circle>
                <circle id="Oval" cx="58" cy="83.3" r="2.5"></circle>
                <path d="M69.1,80.8 C67.7,80.8 66.6,81.9 66.6,83.3 C66.6,83.8 66.7,84.2 67,84.6 C68.5,83.9 70,83.1 71.4,82.2 C70.9,81.3 70.1,80.8 69.1,80.8 Z" id="Path"></path>
            </g>
        </g>
    </g>
</svg>