<?xml version="1.0" encoding="UTF-8"?>
<svg width="82px" height="82px" viewBox="0 0 82 82" version="1.1" xmlns="http://www.w3.org/2000/svg" xmlns:xlink="http://www.w3.org/1999/xlink">
    <!-- Generator: Sketch 52.6 (67491) - http://www.bohemiancoding.com/sketch -->
    <title>earth</title>
    <desc>Created with Sketch.</desc>
    <g id="Page-1" stroke="none" stroke-width="1" fill="none" fill-rule="evenodd">
        <g id="earth" fill="#000000" fill-rule="nonzero">
            <path d="M43.195,4.045 C42.601,2.417 37.142,2.852 35.166,3.293 C34.889,3.355 34.629,3.437 34.345,3.528 C33.738,3.723 33.049,3.943 31.787,4.058 C31.235,4.108 30.849,4.318 30.642,4.683 C30.197,5.463 30.747,6.621 31.509,8.225 C31.789,8.814 32.093,9.456 32.372,10.133 C32.671,10.859 33.056,11.268 33.549,11.383 C33.647,11.406 33.745,11.417 33.843,11.417 C34.63,11.417 35.446,10.704 36.613,9.683 C37.793,8.65 39.261,7.366 41.23,6.344 C42.242,5.817 43.546,5.007 43.195,4.045 Z M35.956,8.929 C35.074,9.7 34.172,10.492 33.779,10.409 C33.629,10.374 33.458,10.14 33.298,9.751 C33.012,9.057 32.7,8.399 32.413,7.795 C31.928,6.774 31.325,5.504 31.512,5.178 C31.546,5.119 31.686,5.072 31.879,5.054 C33.251,4.929 34.027,4.68 34.651,4.481 C34.905,4.399 35.137,4.325 35.385,4.269 C38.361,3.606 41.946,3.869 42.253,4.355 C42.252,4.358 42.176,4.725 40.771,5.455 C38.694,6.533 37.111,7.918 35.956,8.929 Z" id="Shape"></path>
            <path d="M67.63,48.753 C66.59,49.143 65.479,49.982 64.402,53.462 C63.761,55.531 64.284,56.267 64.836,56.519 C65,56.594 65.179,56.629 65.363,56.629 C66.181,56.629 67.134,55.955 67.627,55.165 C68.407,53.917 69.174,49.856 68.45,48.972 C68.247,48.724 67.932,48.637 67.63,48.753 Z M66.779,54.636 C66.347,55.327 65.522,55.732 65.252,55.61 C65.139,55.558 64.935,55.124 65.357,53.757 C66.278,50.78 67.172,50.059 67.726,49.794 C67.868,50.682 67.439,53.578 66.779,54.636 Z" id="Shape"></path>
            <path d="M41.518,9.514 C41.576,9.514 41.637,9.511 41.698,9.505 C42.51,9.423 43.53,8.805 43.761,7.949 C43.856,7.599 43.918,7.202 43.664,6.905 C43.386,6.579 42.969,6.622 42.483,6.674 C42.309,6.693 42.107,6.714 41.878,6.724 C41.054,6.761 40.674,7.12 40.501,7.415 C40.25,7.843 40.269,8.435 40.551,8.997 C40.721,9.331 41.067,9.514 41.518,9.514 Z M41.366,7.921 C41.432,7.808 41.636,7.735 41.924,7.723 C42.175,7.712 42.398,7.688 42.591,7.668 C42.66,7.661 42.737,7.652 42.808,7.646 C42.805,7.659 42.801,7.673 42.797,7.688 C42.731,7.934 42.445,8.203 42.071,8.373 C41.705,8.54 41.453,8.524 41.446,8.549 C41.323,8.302 41.291,8.05 41.366,7.921 Z" id="Shape"></path>
            <path d="M41,0 C18.393,0 0,18.393 0,41 C0,63.607 18.393,82 41,82 C63.607,82 82,63.607 82,41 C82,18.393 63.607,0 41,0 Z M67.756,27.172 L67.915,27.394 C68.387,28.055 69.134,28.288 69.793,28.495 C70.673,28.77 71.037,28.936 71.095,29.48 C71.139,29.895 70.414,30.916 68.945,32.064 C67.29,33.357 65.983,33.829 65.718,33.734 C65.309,33.474 64.327,31.149 63.678,29.61 C62.251,26.231 61.64,24.948 60.877,24.884 C60.632,24.862 60.426,24.967 60.298,25.159 C60.036,25.554 59.677,26.096 64.547,35.392 L64.609,35.51 C64.853,35.975 65.151,36.251 65.521,36.354 C66.088,36.511 66.61,36.195 67.07,35.915 C67.692,35.535 67.926,35.449 68.17,35.658 C68.632,36.054 66.673,38.898 65.836,40.112 C65.105,41.173 64.415,42.174 64.082,42.902 C63.62,43.909 63.784,45.421 63.958,47.021 C64.148,48.775 64.365,50.763 63.502,51.289 C62.062,52.165 61.45,54.21 60.802,56.374 C60.476,57.463 60.139,58.59 59.698,59.502 C59.033,60.877 57.895,61.834 56.802,61.94 C56.086,62.013 55.442,61.705 54.955,61.055 C53.512,59.13 52.517,51.479 53.457,49.523 C54.088,48.207 53.453,47.061 52.84,45.954 C52.271,44.927 51.682,43.864 51.878,42.493 C52.089,41.013 51.925,40.092 51.346,39.506 C50.863,39.016 50.154,38.836 49.185,38.836 C48.61,38.836 47.942,38.9 47.174,39.001 C46.231,39.123 45.333,38.846 44.5,38.173 C42.89,36.871 41.741,34.197 41.5,31.195 C41.139,26.692 46.19,21.552 48.283,21.141 C50.331,20.737 51.454,21.356 54.232,23.701 C56.755,25.83 58.498,24.736 60.036,23.77 C60.373,23.559 60.713,23.345 61.068,23.16 C61.353,23.011 62.221,22.558 62.055,21.841 C61.828,20.866 59.756,20.74 59.126,20.725 C58.783,20.717 58.618,20.378 58.349,19.66 C58.155,19.142 57.953,18.608 57.529,18.277 C57.251,18.06 56.982,18.005 56.737,18.107 C56.341,18.273 56.29,18.701 56.24,19.115 C56.224,19.247 56.19,19.534 56.132,19.701 C56.08,19.585 56.024,19.435 55.977,19.312 C55.638,18.415 55.07,16.913 53.149,16.222 C52.915,16.137 52.426,15.96 52.188,16.381 C51.935,16.827 52.236,17.074 53.235,17.894 C53.625,18.213 54.079,18.586 54.473,18.952 C54.547,19.021 54.591,19.075 54.618,19.114 C54.533,19.143 54.377,19.17 54.17,19.14 C54.011,19.116 53.617,19.023 53.411,18.676 C52.864,17.753 51.707,17.249 50.803,17.159 C50.009,17.081 49.341,17.284 48.934,17.735 L48.734,17.963 C46.553,20.455 45.615,20.831 45.212,20.709 C44.984,20.64 44.807,20.25 44.726,19.639 C44.621,18.85 44.69,18.297 44.932,17.994 C45.208,17.648 45.768,17.598 46.31,17.549 C46.999,17.487 47.858,17.41 48.072,16.556 C48.273,15.75 47.899,15.057 47.651,14.599 C47.613,14.527 47.566,14.44 47.529,14.366 C47.561,14.361 47.598,14.355 47.641,14.35 C48.59,14.245 49.28,13.323 49.834,12.583 C50.011,12.347 50.261,12.012 50.423,11.866 C51.345,13.48 53.539,12.395 54.991,11.676 L55.377,11.486 C55.972,11.198 56.245,10.542 56.107,9.731 C55.97,8.922 55.4,8.015 54.613,7.924 C54.243,7.883 53.564,7.991 53.062,9.185 L52.804,9.809 C52.696,10.073 52.597,10.313 52.526,10.466 C52.222,10.326 51.717,10.096 50.823,10.001 C50.213,9.936 49.844,9.551 49.861,8.999 C49.891,8.051 51.148,6.586 54.493,6.437 C56.845,6.332 58.467,6.491 59.552,6.705 C69.843,12.292 77.343,22.38 79.417,34.307 C79.315,35.567 79.02,36.345 78.844,36.424 C78.843,36.424 78.778,36.414 78.649,36.294 C78.226,35.9 77.59,34.309 76.975,32.771 C75.956,30.222 74.903,27.585 73.658,26.85 C72.564,26.204 71.811,26.108 71.083,26.016 C70.483,25.94 69.864,25.861 68.965,25.449 C68.151,25.076 67.446,24.805 67.081,25.251 C66.699,25.705 67.097,26.257 67.756,27.172 Z M48.018,20.173 C48.515,19.699 49.009,19.16 49.483,18.619 L49.675,18.401 C49.857,18.198 50.238,18.104 50.701,18.151 C51.473,18.228 52.233,18.651 52.548,19.183 C52.999,19.945 53.886,20.209 54.566,20.139 C54.791,20.115 54.991,20.053 55.156,19.96 C55.368,20.467 55.684,20.979 56.332,20.784 C56.959,20.596 57.127,19.972 57.2,19.483 C57.275,19.644 57.345,19.828 57.413,20.01 C57.681,20.722 58.047,21.697 59.102,21.723 C59.868,21.742 60.64,21.898 60.969,22.048 C60.897,22.104 60.782,22.179 60.604,22.272 C60.226,22.47 59.862,22.697 59.503,22.922 C58.015,23.857 56.839,24.593 54.875,22.936 C52.604,21.019 51.204,20.029 49.336,20.029 C48.944,20.029 48.532,20.072 48.088,20.16 C48.064,20.163 48.042,20.168 48.018,20.173 Z M46.818,12.457 C46.98,12.538 47.171,12.543 47.347,12.468 C47.415,12.444 47.564,12.468 47.688,12.511 C47.551,12.588 47.421,12.665 47.299,12.739 C47.169,12.816 47.009,12.912 46.886,12.974 C46.882,12.943 46.878,12.907 46.874,12.866 C46.865,12.727 46.845,12.591 46.818,12.457 Z M51.031,11.035 C51.572,11.126 51.89,11.272 52.112,11.375 C52.354,11.487 52.606,11.603 52.9,11.486 C53.248,11.349 53.369,11.056 53.725,10.185 L53.98,9.569 C54.177,9.1 54.405,8.895 54.494,8.915 C54.682,8.936 55.026,9.358 55.118,9.895 C55.139,10.025 55.192,10.459 54.937,10.583 L54.542,10.777 C53.064,11.509 51.707,12.103 51.285,11.366 C51.21,11.231 51.125,11.121 51.031,11.035 Z M16.842,25.844 C16.878,26.351 16.947,27.338 16.925,27.991 C16.872,27.861 16.822,27.718 16.774,27.578 C16.542,26.913 16.253,26.087 15.431,25.735 C14.727,25.435 13.774,25.563 12.521,26.132 C9.779,27.378 9.323,29.979 9.248,30.747 C9.164,31.61 9.274,32.676 9.834,33.076 C10.067,33.243 10.352,33.272 10.611,33.153 C11.034,32.961 11.477,32.568 11.946,32.152 C12.274,31.861 12.801,31.394 13.063,31.296 C13.072,31.501 12.927,31.955 12.845,32.213 C12.652,32.819 12.47,33.391 12.733,33.829 C12.821,33.975 12.995,34.162 13.327,34.223 C13.864,34.32 14.207,35.285 14.294,36.941 C14.297,36.99 14.301,37.037 14.307,37.082 C14.135,36.89 13.963,36.685 13.789,36.476 C13.136,35.691 12.46,34.88 11.516,34.55 C11.175,34.431 10.793,34.318 10.397,34.2 C8.902,33.758 7.208,33.256 6.93,32.147 C6.374,29.922 5.652,27.392 4.977,26.068 C7.936,18.957 12.937,12.902 19.25,8.645 C20.19,8.315 21.184,8.088 21.839,8.219 C21.483,8.496 20.772,8.892 20.262,9.177 C18.645,10.079 17.249,10.859 17.695,11.824 C18.088,12.675 19.137,13.639 20.31,13.751 C20.995,13.819 22.01,13.625 22.935,12.336 C23.992,10.864 24.743,10.187 25.371,10.138 C25.764,10.104 26.179,10.33 26.656,10.817 L26.863,11.026 C27.66,11.83 28.564,12.74 28.418,13.686 C28.284,14.552 27.299,15.472 25.49,16.421 C20.076,19.261 16.789,23.682 16.789,24.867 C16.789,25.077 16.813,25.43 16.842,25.844 Z M27.061,7.179 C26.9,6.731 26.396,6.605 25.863,6.471 C25.175,6.299 24.829,6.168 24.845,5.931 C24.851,5.841 24.869,5.808 24.868,5.808 C25.135,5.626 26.594,6.202 27.465,6.547 C27.845,6.697 28.242,6.854 28.647,7.004 C29.163,7.195 29.378,7.34 29.464,7.414 C29.29,7.587 28.772,7.848 28.478,7.995 L28.16,8.157 C27.594,8.452 26.777,8.796 25.805,8.702 C26.224,8.543 26.639,8.32 26.9,7.967 C27.147,7.633 27.124,7.354 27.061,7.179 Z M25.62,7.44 C25.714,7.464 25.831,7.493 25.936,7.523 C25.647,7.731 25.15,7.873 24.799,7.973 C24.283,8.12 23.838,8.247 23.83,8.715 C23.823,9.088 24.138,9.276 24.445,9.396 C23.753,9.752 23.029,10.491 22.125,11.751 C21.605,12.475 21.031,12.813 20.407,12.754 C19.6,12.677 18.894,11.961 18.636,11.464 C18.83,11.121 20.073,10.427 20.753,10.048 C22.271,9.201 23.062,8.728 23.032,8.069 C23.024,7.895 22.943,7.572 22.487,7.369 C22.228,7.254 21.93,7.2 21.613,7.183 C22.348,6.76 23.095,6.356 23.859,5.98 C23.872,6.991 24.956,7.274 25.62,7.44 Z M41,80 C19.495,80 2,62.505 2,41 C2,36.209 2.873,31.62 4.46,27.376 C4.955,28.75 5.583,30.879 5.96,32.388 C6.376,34.052 8.448,34.665 10.113,35.158 C10.492,35.27 10.858,35.378 11.185,35.492 C11.868,35.731 12.427,36.403 13.02,37.115 C13.755,37.998 14.517,38.911 15.645,39.127 C15.816,39.16 15.882,39.239 15.924,39.312 C16.359,40.072 15.506,42.463 14.996,43.891 C14.873,44.236 14.757,44.559 14.662,44.846 C13.921,47.068 15.274,50.301 17.01,52.145 C17.625,52.798 18.117,53.061 18.476,53.252 C19.247,53.663 19.535,53.816 20.146,60.539 C21.118,71.231 24.181,72.733 25.454,72.884 C25.524,72.892 25.59,72.896 25.652,72.896 C26.088,72.896 26.326,72.708 26.453,72.538 C26.888,71.954 26.477,70.998 26.041,69.985 C25.874,69.597 25.717,69.231 25.646,68.966 C25.321,67.751 24.866,64.406 26.633,63.524 C28.202,62.739 29.024,60.749 29.749,58.993 C30.163,57.992 30.553,57.047 31.023,56.434 C32.936,53.939 33.87,50.792 33.88,46.812 C33.884,44.923 32.492,44.134 31.146,43.372 C29.975,42.708 28.763,42.021 28.245,40.571 C27.574,38.693 23.144,35.776 20.65,35.216 C19.69,35 18.992,35.107 18.569,35.529 C17.484,36.614 15.895,37.342 15.409,37.153 C15.372,37.139 15.303,37.112 15.291,36.889 C15.248,36.077 15.12,33.638 13.601,33.26 C13.618,33.078 13.726,32.736 13.796,32.517 C14.017,31.823 14.267,31.037 13.768,30.538 C13.058,29.829 12.114,30.666 11.281,31.405 C10.957,31.693 10.624,31.988 10.356,32.155 C10.25,31.899 10.144,31.287 10.297,30.45 C10.462,29.55 11.023,27.911 12.933,27.043 C13.901,26.603 14.608,26.472 15.036,26.655 C15.453,26.833 15.635,27.356 15.828,27.908 C15.993,28.382 16.164,28.871 16.52,29.195 C16.586,29.255 16.648,29.288 16.71,29.325 C14.907,28.887 14.721,29.285 14.627,29.513 C14.401,30.07 15.016,30.455 15.844,30.901 C16.342,31.169 16.723,31.39 17.019,31.561 C17.581,31.886 17.902,32.072 18.198,32.072 C18.277,32.072 18.354,32.058 18.434,32.031 C18.445,32.027 18.451,32.02 18.462,32.015 C18.568,32.467 18.963,32.804 19.572,32.917 C19.732,32.947 19.903,32.962 20.076,32.962 C20.809,32.962 21.591,32.694 21.865,32.147 C22.038,31.801 21.995,31.428 21.747,31.124 C21.281,30.551 20.121,30.308 19.051,30.538 L19.04,30.533 C19.02,30.476 19.019,30.415 18.988,30.361 C18.612,29.712 17.518,29.501 17.221,29.455 C17.199,29.449 17.184,29.446 17.162,29.44 C17.251,29.43 17.33,29.41 17.385,29.383 C18.002,29.084 17.995,28.002 17.838,25.775 C17.811,25.391 17.787,25.064 17.787,24.869 C17.819,24.226 20.622,20.103 25.953,17.307 C28.088,16.187 29.218,15.052 29.405,13.838 C29.628,12.394 28.488,11.245 27.572,10.322 L27.369,10.117 C27.192,9.937 27.016,9.783 26.841,9.652 C27.687,9.519 28.329,9.197 28.62,9.046 L28.926,8.891 C29.72,8.492 30.54,8.079 30.501,7.362 C30.464,6.696 29.676,6.321 28.994,6.069 C28.597,5.922 28.206,5.767 27.833,5.619 C27.17,5.357 26.586,5.129 26.075,4.977 C30.675,3.061 35.715,2 41,2 C46.676,2 52.068,3.229 56.937,5.419 C56.204,5.392 55.381,5.392 54.444,5.434 C50.676,5.602 48.907,7.382 48.858,8.964 C48.831,9.848 49.342,10.569 50.152,10.864 C49.748,11.021 49.408,11.474 49.029,11.982 C48.956,12.079 48.88,12.18 48.802,12.281 C48.79,12.242 48.786,12.199 48.769,12.163 C48.556,11.724 47.917,11.427 47.351,11.461 C47.328,11.301 47.308,11.096 47.294,10.952 C47.228,10.259 47.175,9.71 46.755,9.505 C46.549,9.404 46.315,9.424 46.109,9.556 C45.224,10.119 45.405,11.046 45.612,11.787 C45.378,11.516 45.056,11.305 44.647,11.245 C44.538,11.227 43.995,11.161 43.588,11.526 C43.388,11.707 43.159,12.053 43.211,12.68 C43.261,13.284 43.534,13.753 43.982,13.999 C44.197,14.118 44.445,14.177 44.699,14.177 C44.966,14.177 45.239,14.112 45.489,13.981 C45.718,13.862 45.879,13.666 45.971,13.424 C46.04,13.636 46.158,13.837 46.381,13.953 C46.426,13.976 46.471,13.972 46.515,13.986 C46.396,14.354 46.576,14.719 46.766,15.073 C46.971,15.452 47.204,15.883 47.096,16.312 C47.058,16.465 46.723,16.506 46.215,16.552 C45.535,16.613 44.689,16.689 44.146,17.369 C43.721,17.901 43.584,18.686 43.729,19.77 C43.872,20.832 44.271,21.47 44.918,21.666 C45.056,21.708 45.22,21.725 45.339,21.724 C42.84,23.839 40.215,27.712 40.501,31.276 C40.767,34.591 42.025,37.461 43.869,38.952 C44.908,39.793 46.1,40.153 47.303,39.994 C48.957,39.775 50.157,39.73 50.633,40.211 C50.962,40.543 51.044,41.244 50.886,42.354 C50.643,44.057 51.344,45.323 51.963,46.44 C52.582,47.557 52.942,48.283 52.553,49.092 C51.441,51.41 52.457,59.395 54.153,61.656 C54.785,62.499 55.644,62.951 56.598,62.951 C56.697,62.951 56.796,62.946 56.896,62.936 C58.352,62.795 59.771,61.647 60.597,59.939 C61.074,58.955 61.422,57.79 61.759,56.662 C62.324,54.774 62.909,52.821 64.021,52.144 C65.427,51.289 65.186,49.065 64.952,46.915 C64.801,45.519 64.644,44.077 64.99,43.32 C65.287,42.673 65.954,41.705 66.659,40.682 C68.36,38.214 69.966,35.883 68.82,34.901 C67.99,34.19 67.123,34.714 66.549,35.064 C66.278,35.23 65.94,35.439 65.787,35.393 C65.748,35.382 65.64,35.327 65.495,35.049 L65.433,34.93 C65.38,34.83 65.329,34.73 65.277,34.632 C66.158,35.055 67.825,34.071 68.75,33.444 C69.109,33.199 72.263,31.011 72.09,29.376 C71.959,28.125 70.924,27.801 70.093,27.541 C69.534,27.366 69.007,27.201 68.73,26.813 L68.569,26.589 C68.496,26.486 68.414,26.373 68.334,26.26 C68.399,26.288 68.47,26.319 68.546,26.354 C69.584,26.83 70.312,26.922 70.954,27.003 C71.639,27.09 72.23,27.165 73.147,27.707 C74.098,28.269 75.177,30.969 76.043,33.138 C76.87,35.208 77.405,36.503 77.966,37.023 C78.526,37.544 79.004,37.44 79.242,37.332 C79.456,37.234 79.629,37.053 79.774,36.827 C79.92,38.198 80,39.589 80,41 C80,62.505 62.505,80 41,80 Z M24.682,69.224 C24.771,69.559 24.943,69.957 25.124,70.379 C25.311,70.813 25.644,71.587 25.645,71.896 C25.625,71.896 25.601,71.894 25.571,71.89 C23.991,71.704 21.883,68.597 21.143,60.45 C20.507,53.456 20.189,53.033 18.948,52.371 C18.617,52.194 18.241,51.993 17.739,51.46 C16.231,49.859 15.017,46.946 15.612,45.163 C15.706,44.882 15.819,44.565 15.939,44.228 C16.799,41.818 17.409,39.89 16.794,38.815 C16.599,38.474 16.288,38.247 15.894,38.157 C17.041,38.003 18.48,37.033 19.278,36.235 C19.337,36.177 19.592,36.002 20.433,36.191 C22.805,36.724 26.787,39.457 27.306,40.908 C27.95,42.709 29.388,43.523 30.656,44.242 C32.039,45.025 32.886,45.569 32.883,46.81 C32.874,50.562 32.007,53.511 30.233,55.825 C29.682,56.543 29.267,57.548 28.828,58.612 C28.138,60.283 27.424,62.012 26.189,62.63 C23.336,64.054 24.625,69.014 24.682,69.224 Z M17.09,30.445 C17.552,30.519 18.066,30.725 18.116,30.877 C18.101,30.914 18.084,30.957 18.066,31 C17.927,30.929 17.729,30.814 17.524,30.695 C17.396,30.62 17.251,30.537 17.09,30.445 Z M19.402,31.489 C20.194,31.361 20.887,31.596 20.973,31.699 C20.923,31.793 20.531,31.975 20.034,31.96 C19.63,31.952 19.442,31.832 19.422,31.789 C19.41,31.661 19.404,31.563 19.402,31.489 Z M45.026,13.093 C44.834,13.193 44.612,13.204 44.464,13.122 C44.279,13.02 44.223,12.78 44.207,12.597 C44.191,12.404 44.224,12.3 44.257,12.269 C44.287,12.24 44.362,12.228 44.426,12.228 C44.447,12.228 44.466,12.229 44.483,12.231 L44.501,12.234 C44.778,12.273 44.951,12.513 45.021,12.725 C45.085,12.924 45.051,13.069 45.026,13.093 Z" id="Shape"></path>
        </g>
    </g>
</svg>