<?xml version="1.0" encoding="UTF-8"?>
<svg width="70px" height="70px" viewBox="0 0 70 70" version="1.1" xmlns="http://www.w3.org/2000/svg" xmlns:xlink="http://www.w3.org/1999/xlink">
    <!-- Generator: Sketch 52.6 (67491) - http://www.bohemiancoding.com/sketch -->
    <title>noun_feather_1181003</title>
    <desc>Created with Sketch.</desc>
    <g id="Page-1" stroke="none" stroke-width="1" fill="none" fill-rule="evenodd">
        <g id="noun_feather_1181003" transform="translate(0.000000, -1.000000)" fill="#000000" fill-rule="nonzero">
            <g id="Group" transform="translate(0.000000, 0.637820)">
                <path d="M2.99039,0.36611 C3.28353,0.42851 3.54401,0.6309 3.67799,0.90043 C6.16605,4.074 10.50707,5.05944 13.8982,6.02363 C19.37254,7.57185 26.36821,9.12703 33.46351,11.64971 C47.6541,16.69507 62.38438,25.74211 65.96817,46.1292 C65.98687,47.2467 65.95277,48.4171 65.68688,49.3036 L68.99986,49.3036 C69.79865,49.2846 70.29309,50.4737 69.71871,51.0323 C67.81595,52.9266 66.62067,54.0373 63.90538,55.8726 C66.18106,60.3087 68.20075,65.115 70,70.3622 L66.99957,68.3506 C65.82268,64.6028 64.29605,60.7918 62.37391,56.9727 C61.14357,57.6875 59.58189,58.135 57.87326,58.4185 C55.49847,58.8126 52.91123,58.8078 50.71598,58.2614 C50.04788,58.0836 49.77077,57.099 50.24717,56.5955 L52.96636,53.8611 C50.69293,54.2006 48.47799,54.2654 46.05912,53.6411 C42.5019,52.723 38.44441,50.7074 32.40091,47.1979 C23.91529,41.3144 17.26969,36.744 11.49171,30.91681 C7.35935,26.6764 3.65033,21.87832 1.61529,16.77301 C-0.41975,11.6677 -0.75074,6.17143 1.89658,0.90053 C2.20938,0.36832 2.5948,0.3485 2.99039,0.36611 Z M3.14671,3.28921 C1.50814,7.52271 1.80232,11.78345 3.49051,16.01862 C5.37454,20.74509 8.87879,25.37796 12.89811,29.50238 C15.22025,31.88527 17.69754,34.062 20.11789,36.04 C26.99911,35.2264 28.79429,35.4301 34.99503,34.1541 C28.71781,36.8595 27.24372,36.3648 21.24306,36.9515 C26.7634,41.3388 31.75849,44.4566 33.40105,45.4378 C39.39693,48.9196 43.34426,50.8627 46.55919,51.6924 C49.77412,52.5222 52.26402,52.3199 55.6855,51.3467 C56.51687,51.1395 57.24148,52.3853 56.65439,53.0125 L53.12263,56.5642 C54.56253,56.6877 56.09826,56.6811 57.56077,56.4384 C59.12169,56.1795 60.50852,55.671 61.43632,55.1498 C53.35743,40.121 38.94589,25.37473 14.99216,16.05006 C37.27204,23.25181 52.60065,34.9276 62.96779,54.0811 C64.5329,53.0068 65.53285,52.1786 66.46829,51.3152 L63.99919,51.3152 C63.20039,51.3342 62.70595,50.1451 63.28034,49.5866 C63.80604,48.6174 63.97792,47.4843 63.99919,46.4436 C60.55061,26.90173 46.70103,18.50692 32.80721,13.56708 C32.07324,13.30612 31.35129,13.05491 30.6194,12.81275 C30.92585,14.44564 30.76738,16.29202 30.21309,19.19317 C30.03825,16.5751 30.01973,14.72813 29.43173,12.43558 C23.6481,10.58928 18.02367,9.258 13.36693,7.941 C9.66576,6.76028 5.865,5.902 3.14671,3.28921 Z" id="Shape"></path>
            </g>
        </g>
    </g>
</svg>