<?xml version="1.0" encoding="UTF-8"?>
<svg width="90px" height="80px" viewBox="0 0 90 80" version="1.1" xmlns="http://www.w3.org/2000/svg" xmlns:xlink="http://www.w3.org/1999/xlink">
    <!-- Generator: Sketch 52.6 (67491) - http://www.bohemiancoding.com/sketch -->
    <title>noun_applications_1406714</title>
    <desc>Created with Sketch.</desc>
    <g id="Page-1" stroke="none" stroke-width="1" fill="none" fill-rule="evenodd">
        <g id="noun_applications_1406714" fill="#000000" fill-rule="nonzero">
            <g id="Group" transform="translate(0.000000, 0.637820)">
                <path d="M41.052863,0.13086 L40.896663,0.19286 L1.2716634,13.88046 C1.2709634,13.88046 0.9283634,14.06786 0.9278634,14.06786 C0.9276634,14.06816 0.7093634,14.34876 0.7090634,14.34916 C0.7090634,14.34956 0.6150634,14.59866 0.6150634,14.59916 C0.6148634,14.59966 0.5860634,14.73996 0.5840634,14.78666 L0.5840634,14.88066 L0.5840634,15.00566 L0.6470634,15.16186 L18.959463,68.1307 L19.272063,69.0994 L20.209463,68.7557 L30.053263,65.3494 L32.803263,73.3181 C32.982063,73.8355 33.598363,74.1532 34.115763,73.9744 L45.115763,70.1619 L47.803263,77.9431 C47.982163,78.4605 48.598463,78.7157 49.115763,78.5369 L88.709463,64.8494 C89.226763,64.6706 89.544563,64.0855 89.365763,63.5681 L71.053263,10.56806 C70.874463,10.05086 70.258063,9.79556 69.740763,9.97436 L58.740763,13.78686 L56.053263,6.00566 C55.874363,5.48836 55.258063,5.20146 54.740763,5.38066 L44.928263,8.75566 L42.178263,0.81806 C42.178263,0.81796 41.990863,0.47466 41.990763,0.47436 C41.990463,0.47406 41.710063,0.25566 41.709463,0.25566 C41.709263,0.25536 41.460163,0.16166 41.459463,0.16166 C41.458963,0.16156 41.318763,0.13266 41.272063,0.13066 L41.209063,0.13066 C40.880963,0.13066 40.948463,0.15066 41.052863,0.13066 L41.052863,0.13086 Z M40.615363,2.38086 L43.052863,9.41206 L15.115363,19.06826 C14.597963,19.24746 14.311563,19.86346 14.490363,20.38086 L29.396663,63.4746 L20.521663,66.5683 L2.8340634,15.44326 L40.615363,2.38086 Z M54.459063,7.56826 L56.834063,14.44326 L30.146663,23.66206 C29.629363,23.84086 29.311463,24.42606 29.490363,24.94326 L44.459063,68.2559 L34.365363,71.7559 L16.709063,20.63086 L54.459063,7.56826 Z M69.490363,12.19326 L87.146663,63.2871 L49.365363,76.3496 L31.709063,25.22456 L69.490363,12.19326 Z" id="Shape"></path>
            </g>
        </g>
    </g>
</svg>