<?xml version="1.0" encoding="UTF-8"?>
<svg width="94px" height="94px" viewBox="0 0 94 94" version="1.1" xmlns="http://www.w3.org/2000/svg" xmlns:xlink="http://www.w3.org/1999/xlink">
    <!-- Generator: Sketch 52.6 (67491) - http://www.bohemiancoding.com/sketch -->
    <title>noun_Glasses_2583850</title>
    <desc>Created with Sketch.</desc>
    <g id="Page-1" stroke="none" stroke-width="1" fill="none" fill-rule="evenodd">
        <g id="noun_Glasses_2583850" fill="#000000">
            <path d="M5.75,72 L8.25,72 C8.25,64.418457 14.4179688,58.25 22,58.25 L22,55.75 C13.0400391,55.75 5.75,63.0395508 5.75,72 Z" id="Path"></path>
            <path d="M26.5849609,84.9609375 L27.415039,87.3193359 C32.0009765,85.7041015 35.7031249,82.0019531 37.3183593,77.415039 L34.9609374,76.5849609 C33.5947266,80.4638672 30.4638672,83.5952148 26.5849609,84.9609375 Z" id="Path"></path>
            <path d="M55.75,72 L58.25,72 C58.25,64.418457 64.4179688,58.25 72,58.25 L72,55.75 C63.0400391,55.75 55.75,63.0395508 55.75,72 Z" id="Path"></path>
            <path d="M76.5849609,84.9609375 L77.415039,87.3193359 C82.0009765,85.7041015 85.7031249,82.0019531 87.3183593,77.415039 L84.9609374,76.5849609 C83.5947266,80.4638672 80.4638672,83.5952148 76.5849609,84.9609375 Z" id="Path"></path>
            <path d="M72,0.75 L72,3.25 C82.3388672,3.25 90.75,11.6611328 90.75,22 L90.75,62.0211792 C87.1702881,55.3220825 80.1118774,50.75 72,50.75 C65.9074097,50.75 60.1947632,53.3226318 56.1681519,57.8354492 C53.3317871,56.4727783 50.1853638,55.75 47,55.75 C43.8145752,55.75 40.6680298,56.4728394 37.831665,57.8355103 C33.8043213,53.3221436 28.0921021,50.75 22,50.75 C13.8881226,50.75 6.8297119,55.3220825 3.25,62.0211792 L3.25,22 C3.25,11.6611328 11.6611328,3.25 22,3.25 L22,0.75 C10.2822266,0.75 0.75,10.2827148 0.75,22 L0.75,72 C0.75,83.7172852 10.2822266,93.25 22,93.25 C25.5283203,93.25 29.0126953,92.3710937 32.0722656,90.7109375 C38.9667969,87.0053711 43.25,79.8354492 43.25,72 C43.25,71.421936 43.2224731,70.8458862 43.175354,70.2723999 C43.159668,70.0812988 43.1301269,69.892334 43.1092529,69.7019653 C43.0675049,69.3206787 43.0234985,68.9397583 42.9612426,68.5620117 C42.9243774,68.3383179 42.8757934,68.1171875 42.8318481,67.8950195 C42.7644043,67.5541992 42.6942749,67.2140503 42.6104126,66.8773193 C42.5524292,66.6446533 42.486145,66.4144287 42.4204102,66.1839599 C42.3287964,65.8626098 42.2317505,65.5429077 42.1251831,65.2263793 C42.0470581,64.9943847 41.9643555,64.7642211 41.8783569,64.5350951 C41.7619018,64.2250365 41.637207,63.9182738 41.5064697,63.6138915 C41.4101562,63.3896483 41.3129883,63.1658324 41.2089233,62.9450072 C41.0650024,62.6394652 40.909729,62.3395384 40.7512817,62.0409545 C40.6408081,61.8327636 40.5332031,61.6231689 40.4158325,61.41864 C40.2355346,61.1046141 40.0405884,60.7990111 39.8440552,60.4942015 C39.7295532,60.3165892 39.6215821,60.1352537 39.501709,59.9609373 C39.4754639,59.9227903 39.4532471,59.8822019 39.4267578,59.8442381 C44.1552734,57.7514647 49.8447266,57.7514647 54.5732422,59.8442381 C54.546875,59.8820189 54.5247803,59.9224241 54.4986572,59.960388 C54.3792724,60.133972 54.2717285,60.314636 54.1576538,60.4915159 C53.9603882,60.7974241 53.7647705,61.1041868 53.5838623,61.4193113 C53.4671631,61.6226194 53.3602295,61.8309324 53.2503662,62.0378416 C53.0911865,62.3377684 52.9351807,62.639221 52.7905884,62.9461668 C52.6870728,63.1660154 52.5903931,63.3886717 52.4944458,63.6118162 C52.3631592,63.9172361 52.2380371,64.2251585 52.1212158,64.5363157 C52.0354614,64.7645872 51.9530029,64.9940794 51.8751831,65.2252195 C51.7683105,65.5425413 51.6712036,65.8628538 51.5793457,66.1849363 C51.5137329,66.4148557 51.4476318,66.6445921 51.3897705,66.8767088 C51.3056641,67.2142942 51.2353516,67.5551756 51.1677856,67.8968504 C51.1240234,68.1181639 51.0756225,68.3384398 51.0388793,68.5612791 C50.9765014,68.939575 50.9325561,69.3211058 50.8906859,69.7030027 C50.8698729,69.8930051 50.8402709,70.0816648 50.8246459,70.2723997 C50.7775269,70.8458862 50.75,71.421936 50.75,72 C50.75,72.9794312 50.8168945,73.9484253 50.9475098,74.9016113 C51.0535889,75.6760864 51.2017212,76.4400634 51.3901368,77.1906128 C52.7089845,82.4451904 56.0012818,87.0424194 60.6646729,89.9753418 C61.0751954,90.2336426 61.4963379,90.4790649 61.9277344,90.7109375 L61.9279175,90.7105713 C64.9904175,92.3717041 68.4732056,93.25 72,93.25 C83.7177734,93.25 93.25,83.7172852 93.25,72 L93.25,22 C93.25,10.2827148 83.7177734,0.75 72,0.75 Z M40.75,72 C40.75,73.2962646 40.6171265,74.5719604 40.3612061,75.8106689 C40.2332154,76.4299926 40.0744019,77.0401611 39.8861084,77.638977 C38.5678711,81.8306274 35.8007202,85.470459 32,87.8616943 C31.6387329,88.0888672 31.2682495,88.3048095 30.8886719,88.508789 L30.8887329,88.5089111 C30.8873901,88.5096435 30.8861084,88.510498 30.8847656,88.5112304 C28.1845703,89.9755859 25.1132813,90.75 22,90.75 C11.6611328,90.75 3.25,82.3388672 3.25,72 C3.25,61.6611328 11.6611328,53.25 22,53.25 C27.6738281,53.25 32.9765625,55.7749023 36.5498047,60.1791992 C39.2587891,63.5058594 40.75,67.7036133 40.75,72 Z M72,90.75 C68.8867187,90.75 65.8154297,89.9755859 63.1113281,88.5087891 C57.0283203,85.2397461 53.25,78.9135742 53.25,72 C53.25,71.4629517 53.2733154,70.9274292 53.319397,70.3949585 C53.3754883,69.7466431 53.4765625,69.1054077 53.5991822,68.4688721 C53.6968385,67.9620362 53.8212281,67.46167 53.958191,66.9649658 C54.2142945,66.0360107 54.5327149,65.1254883 54.9309693,64.2481079 C54.9351197,64.2390137 54.9403077,64.2305298 54.9444581,64.2214966 C55.3812257,63.2634278 55.8978883,62.3404541 56.4923707,61.4654541 C56.7922975,61.0241089 57.1116944,60.5948486 57.4501954,60.1791992 L57.4552613,60.1729126 C61.0274048,55.7731934 66.3283081,53.25 72,53.25 C82.3388672,53.25 90.75,61.6611328 90.75,72 C90.75,82.3388672 82.3388672,90.75 72,90.75 Z" id="Shape" fill-rule="nonzero"></path>
        </g>
    </g>
</svg>