<?xml version="1.0" encoding="UTF-8"?>
<svg width="92px" height="92px" viewBox="0 0 92 92" version="1.1" xmlns="http://www.w3.org/2000/svg" xmlns:xlink="http://www.w3.org/1999/xlink">
    <!-- Generator: Sketch 52.6 (67491) - http://www.bohemiancoding.com/sketch -->
    <title>noun_group_120017</title>
    <desc>Created with Sketch.</desc>
    <g id="Page-1" stroke="none" stroke-width="1" fill="none" fill-rule="evenodd">
        <g id="noun_group_120017" fill="#000000" fill-rule="nonzero">
            <g id="Group">
                <path d="M83.766,56.605 L83.766,29.439 L83.766,27.939 L83.766,0.772 L56.602,0.772 L55.102,0.772 L29.438,0.772 L27.938,0.772 L0.774,0.772 L0.774,27.939 L0.774,29.439 L0.774,55.106 L0.774,56.606 L0.774,83.769 L27.938,83.769 L29.438,83.769 L56.602,83.769 L56.602,56.605 L83.766,56.605 Z M29.438,55.105 L29.438,29.439 L55.102,29.439 L55.102,55.106 L29.438,55.105 Z M82.266,2.272 L82.266,27.939 L56.602,27.939 L56.602,2.272 L82.266,2.272 Z M55.102,2.272 L55.102,27.939 L29.438,27.939 L29.438,2.272 L55.102,2.272 Z M2.274,27.939 L2.274,2.272 L27.938,2.272 L27.938,27.939 L2.274,27.939 Z M2.274,55.105 L2.274,29.439 L27.938,29.439 L27.938,55.106 L2.274,55.105 Z M2.274,82.269 L2.274,56.605 L27.938,56.605 L27.938,82.268 L2.274,82.269 Z M55.102,82.269 L29.438,82.269 L29.438,56.605 L55.102,56.605 L55.102,82.269 Z M56.602,29.439 L82.266,29.439 L82.266,55.106 L56.602,55.106 L56.602,29.439 Z" id="Shape"></path>
                <path d="M91.226,62.564 L62.562,62.564 L62.562,91.228 L91.226,91.228 L91.226,62.564 Z M64.063,89.728 L64.063,64.064 L89.726,64.064 L89.726,89.728 C89.726,89.728 64.063,89.728 64.063,89.728 Z" id="Shape"></path>
            </g>
        </g>
    </g>
</svg>