<?xml version="1.0" encoding="UTF-8"?>
<svg width="60px" height="54px" viewBox="0 0 60 54" version="1.1" xmlns="http://www.w3.org/2000/svg" xmlns:xlink="http://www.w3.org/1999/xlink">
    <!-- Generator: Sketch 52.6 (67491) - http://www.bohemiancoding.com/sketch -->
    <title>Group</title>
    <desc>Created with Sketch.</desc>
    <g id="Page-1" stroke="none" stroke-width="1" fill="none" fill-rule="evenodd">
        <g id="noun_Network_244890" transform="translate(-730.000000, -14.000000)" fill="#000000">
            <g id="Group" transform="translate(730.000000, 14.000000)">
                <path d="M7.2685547,25.4160156 C6.9980469,25.4697265 6.8222656,25.7329101 6.8759766,26.0039062 L6.8955078,26.1020507 C6.9423828,26.3398437 7.1513672,26.5043945 7.3847656,26.5043945 C7.4179687,26.5043945 7.4501953,26.5014648 7.4833984,26.4946289 C7.7539062,26.440918 7.9296875,26.1777344 7.8759765,25.9067383 L7.8564453,25.8085938 C7.8027344,25.5366211 7.5332031,25.362793 7.2685547,25.4160156 Z" id="Path"></path>
                <path d="M7.2880859,28.0629883 L7.3076171,28.1611328 C7.3544921,28.3989258 7.5634765,28.5634766 7.7968749,28.5634766 C7.830078,28.5634766 7.8623046,28.5605469 7.8955077,28.553711 C8.1660156,28.5 8.3417969,28.2368164 8.2880859,27.9658203 L8.2685547,27.8676758 C8.2148438,27.5961914 7.9482422,27.4208985 7.6806641,27.4750977 C7.4101562,27.5288086 7.234375,27.7919922 7.2880859,28.0629883 Z" id="Path"></path>
                <path d="M6.8554688,23.3569336 C6.584961,23.4106445 6.4091797,23.6738281 6.4628907,23.9448242 L6.4824219,24.0429687 C6.5292969,24.2807617 6.7382813,24.4453125 6.9716797,24.4453125 C7.0048828,24.4453125 7.0371094,24.4423828 7.0703125,24.4355469 C7.3408203,24.381836 7.5166016,24.1186524 7.4628906,23.8476563 L7.4433594,23.7495118 C7.3896484,23.4775391 7.1210938,23.300293 6.8554688,23.3569336 Z" id="Path"></path>
                <path d="M36.5849609,15.8520508 L36.5517578,15.9462891 C36.4599609,16.206543 36.6132812,16.4448243 36.8740234,16.5366211 C36.9199218,16.5532227 36.9677734,16.5605469 37.015625,16.5605469 C37.2353516,16.5605469 37.453125,16.3984375 37.5283203,16.1840821 C37.6201172,15.9238282 37.4833984,15.6381837 37.2226562,15.5463868 C36.9609375,15.4550781 36.6757812,15.5917969 36.5849609,15.8520508 Z" id="Path"></path>
                <path d="M38.2802734,12.5791016 C38.3261718,12.5957032 38.3740234,12.6030274 38.421875,12.6030274 C38.6416016,12.6030274 38.859375,12.440918 38.9345703,12.2265626 C39.0263672,11.9663087 38.8896484,11.6806642 38.6289062,11.5888673 C38.3671874,11.4975587 38.0820312,11.6347657 37.9912109,11.8945314 L37.9580078,11.9887697 C37.8662109,12.2490234 38.0195312,12.4873047 38.2802734,12.5791016 Z" id="Path"></path>
                <path d="M35.8818359,17.8310547 L35.8486328,17.925293 C35.7568359,18.1855469 35.9101562,18.4238282 36.1708984,18.515625 C36.2167968,18.5322266 36.2646484,18.5395508 36.3125,18.5395508 C36.5322266,18.5395508 36.75,18.3774414 36.8251953,18.163086 C36.9169922,17.9028321 36.7802734,17.6171876 36.5195312,17.5253907 C36.2578125,17.434082 35.9726562,17.5712891 35.8818359,17.8310547 Z" id="Path"></path>
                <path d="M37.2880859,13.8735352 L37.2548828,13.9677735 C37.1630859,14.2280274 37.3164062,14.4663087 37.5771484,14.5581055 C37.6230468,14.5747071 37.6708984,14.5820313 37.71875,14.5820313 C37.9384766,14.5820313 38.15625,14.4199219 38.2314453,14.2055665 C38.3232422,13.9453126 38.1865234,13.6596681 37.9257812,13.5678712 C37.6640625,13.4765625 37.3789062,13.6132812 37.2880859,13.8735352 Z" id="Path"></path>
                <path d="M51.0839844,30.6069336 C51.34375,30.6069336 51.5703125,30.3642578 51.59375,30.1015625 C51.6181641,29.8266602 51.4150391,29.5839844 51.1396484,29.5595703 C50.8789062,29.5268555 50.6220703,29.7373047 50.5976562,30.0136719 L50.5888671,30.112793 C50.564453,30.3876953 50.7724609,30.5810547 51.0468749,30.6049805 C51.0595703,30.6064453 51.0722656,30.6069336 51.0839844,30.6069336 Z" id="Path"></path>
                <path d="M50.3945312,32.0986328 L50.3847656,32.1982422 C50.3583984,32.4731445 50.5595703,32.7177734 50.8339844,32.7446289 C50.850586,32.7460937 50.8671875,32.7470703 50.8837891,32.7470703 C51.1376953,32.7470703 51.3554688,32.5541992 51.3808594,32.2958984 L51.390625,32.196289 C51.4169922,31.9213867 51.2158203,31.6767578 50.9414062,31.6499023 C50.6757812,31.6318359 50.421875,31.8232422 50.3945312,32.0986328 Z" id="Path"></path>
                <path d="M44.046875,10.7050781 C44.1445312,10.840332 44.2978516,10.9121093 44.4521484,10.9121093 C44.5537109,10.9121093 44.65625,10.8813476 44.7451172,10.8173827 C44.96875,10.6557616 45.0195313,10.3427733 44.8574219,10.1191405 L44.7988281,10.0380858 C44.6367187,9.8139647 44.3242187,9.76416 44.1005859,9.9257811 C43.8769531,10.0874022 43.8261718,10.4003905 43.9882812,10.6240233 L44.046875,10.7050781 Z" id="Path"></path>
                <path d="M46.5048828,14.1108398 C46.602539,14.2460937 46.7558594,14.317871 46.9101562,14.317871 C47.0117187,14.317871 47.1142578,14.2871093 47.203125,14.2231444 C47.4267578,14.0615233 47.4775391,13.748535 47.3154297,13.5249022 L47.2568359,13.4438475 C47.0947265,13.2192381 46.7822265,13.17041 46.5585937,13.3315428 C46.3349609,13.4931639 46.2841796,13.8061522 46.446289,14.029785 L46.5048828,14.1108398 Z" id="Path"></path>
                <path d="M45.3300781,11.628418 C45.1064453,11.7900391 45.055664,12.1030274 45.2177734,12.3266602 L45.2763672,12.4077149 C45.3740234,12.5429688 45.5273438,12.6147461 45.6816406,12.6147461 C45.7832031,12.6147461 45.8857422,12.5839844 45.9746094,12.5200195 C46.1982422,12.3583984 46.2490235,12.0454101 46.0869141,11.8217773 L46.0283203,11.7407226 C45.8662109,11.5161133 45.5527344,11.4667969 45.3300781,11.628418 Z" id="Path"></path>
                <path d="M26.2685547,42.125 L26.2285156,42.2167969 C26.118164,42.4697266 26.2333984,42.7641602 26.4863281,42.875 C26.5517578,42.9033203 26.6191406,42.9165039 26.6865234,42.9165039 C26.8789062,42.9165039 27.0625,42.8041992 27.1445312,42.6162109 L27.1845703,42.524414 C27.2949219,42.2714843 27.1796875,41.9765624 26.9267578,41.8662109 C26.6748047,41.7578125 26.3798828,41.871582 26.2685547,42.125 Z" id="Path"></path>
                <path d="M27.3447266,40.9033203 C27.4003907,40.9277344 27.4589844,40.9389648 27.5175782,40.9389648 C27.7265626,40.9389648 27.9365235,40.7978515 28.0234376,40.6005859 C28.1337892,40.3476562 28.0195314,40.0527343 27.7666017,39.9418945 C27.5156251,39.8339843 27.2187501,39.946289 27.107422,40.1992187 L27.0673829,40.2905273 C26.9570312,40.543457 27.0917969,40.7924805 27.3447266,40.9033203 Z" id="Path"></path>
                <path d="M18.3115234,44.3554688 C18.453125,44.3554688 18.5947265,44.2954102 18.6933593,44.1782227 C18.8720702,43.9677735 18.8457031,43.6523438 18.6347655,43.4736329 L18.5585936,43.4091798 C18.3486327,43.232422 18.0712889,43.2885743 17.8916014,43.5004884 C17.7128905,43.7109376 17.7773436,44.0585939 17.9882811,44.2373048 C18.0820312,44.3164062 18.1972656,44.3554688 18.3115234,44.3554688 Z" id="Path"></path>
                <path d="M16.7050781,43.0029297 C16.8466797,43.0029297 16.9882812,42.9428711 17.086914,42.8256836 C17.2656249,42.6152344 17.2392578,42.2998047 17.0283202,42.1210938 L16.9521483,42.0566407 C16.7412108,41.8789063 16.4648436,41.9355469 16.2851561,42.1479493 C16.1064452,42.3583985 16.1708983,42.7060548 16.3818358,42.8847657 C16.4755859,42.9638672 16.5908203,43.0029297 16.7050781,43.0029297 Z" id="Path"></path>
                <path d="M15.5214844,13.4375 C15.6083985,13.4375 15.6953125,13.418457 15.7734375,13.3798828 C16.0205078,13.2563476 16.1201172,12.9560547 15.9970703,12.7089844 C15.8720703,12.4614258 15.5751953,12.3637696 15.3261719,12.4853516 L15.2373047,12.5297852 C14.9902344,12.6533204 14.9345703,12.9316407 15.0585938,13.1782227 C15.1425781,13.3476562 15.3310547,13.4375 15.5214844,13.4375 Z" id="Path"></path>
                <path d="M13.5810547,14.4145508 C13.65625,14.4145508 13.7324219,14.397461 13.8046875,14.3618164 L13.8945313,14.3168945 C14.1416016,14.1933593 14.241211,13.8930664 14.1181641,13.6459961 C13.9941407,13.3984375 13.694336,13.2998047 13.4472657,13.4223633 L13.3574219,13.4672852 C13.1103516,13.5908204 13.0107422,13.8911133 13.1337891,14.1381836 C13.2216797,14.3134766 13.3984375,14.4145508 13.5810547,14.4145508 Z" id="Path"></path>
                <path d="M11.7021484,15.3515625 C11.7773437,15.3515625 11.852539,15.3349609 11.9238281,15.2998047 L12.0136719,15.2553711 C12.2607422,15.1328125 12.3623047,14.8330078 12.2402344,14.5854492 C12.1181641,14.336914 11.8154297,14.237793 11.5703125,14.3588867 L11.4804687,14.4033203 C11.2333984,14.5258789 11.1318359,14.8256836 11.2539062,15.0732422 C11.3408203,15.2495117 11.5185547,15.3515625 11.7021484,15.3515625 Z" id="Path"></path>
                <path d="M16.3759766,22.9394531 C16.4384766,22.9707031 16.5048828,22.9853515 16.5722657,22.9853515 C16.772461,22.9853515 16.9775391,22.8583984 17.0703126,22.6743163 C17.1953126,22.4277343 17.0957032,22.126953 16.8496095,22.0024413 C16.6035157,21.8774413 16.3017579,21.9760741 16.1777345,22.2231444 L16.1328126,22.3120116 C16.0078125,22.5585938 16.1298828,22.8149414 16.3759766,22.9394531 Z" id="Path"></path>
                <path d="M17.5810547,21.0795898 C17.7617188,21.0795898 17.9375,20.9804687 18.0253906,20.8081054 L18.071289,20.7187499 C18.1982421,20.4731444 18.1005859,20.1718749 17.8554687,20.0454101 C17.6113281,19.9204101 17.3085937,20.0156249 17.1826171,20.2617187 L17.1367187,20.3510742 C17.0097656,20.5966797 17.1074218,20.8979492 17.352539,21.024414 C17.4257812,21.0620117 17.5039062,21.0795898 17.5810547,21.0795898 Z" id="Path"></path>
                <path d="M15.8466797,23.9604492 C15.5996094,23.8349609 15.2998047,23.934082 15.1748047,24.1811523 L15.1298828,24.2700195 C15.0048828,24.5166015 15.1269531,24.7729492 15.3730469,24.8974609 C15.4355469,24.9287109 15.5019531,24.9433593 15.569336,24.9433593 C15.7695313,24.9433593 15.9746094,24.8164062 16.0673829,24.6323241 C16.1923828,24.3857422 16.0927734,24.0849609 15.8466797,23.9604492 Z" id="Path"></path>
                <path d="M13.3408203,28.8564453 C13.4140625,28.894043 13.4921875,28.9121094 13.5703125,28.9121094 C13.7509766,28.9121094 13.9257813,28.8134766 14.0146484,28.6416016 L14.0605468,28.5527344 C14.1874999,28.3071289 14.0908202,28.0058594 13.845703,27.8789063 C13.6025389,27.7543946 13.2998046,27.8476563 13.1718749,28.0937501 L13.1259765,28.1826173 C12.9990234,28.4282227 13.0957031,28.7294922 13.3408203,28.8564453 Z" id="Path"></path>
                <path d="M19.8623047,16.1298828 C19.6191406,16.0053711 19.3164063,16.0986328 19.1884766,16.3447266 L19.1425782,16.4335938 C19.0156251,16.6791993 19.1123048,16.9804688 19.357422,17.1074219 C19.4306642,17.1450196 19.5087892,17.163086 19.5869142,17.163086 C19.7675783,17.163086 19.942383,17.0644532 20.0312501,16.8925782 L20.0771485,16.803711 C20.2041016,16.5581055 20.1074219,16.2568359 19.8623047,16.1298828 Z" id="Path"></path>
                <path d="M18.859375,18.0878906 C18.6171875,17.9638672 18.3134766,18.0561523 18.1855469,18.3027344 L18.1396485,18.3916016 C18.0126954,18.6372071 18.1093751,18.9384766 18.3544923,19.0654297 C18.4277345,19.1030274 18.5058595,19.1210938 18.5839845,19.1210938 C18.7646486,19.1210938 18.9394533,19.022461 19.0283204,18.850586 L19.0742188,18.7617188 C19.2011719,18.5161133 19.1044922,18.2148438 18.859375,18.0878906 Z" id="Path"></path>
                <path d="M14.3447266,26.8989258 C14.4179688,26.9365235 14.4960938,26.9541016 14.5732422,26.9541016 C14.7539063,26.9541016 14.9296875,26.8549805 15.0175781,26.6826172 L15.0634765,26.5932617 C15.1904296,26.3476562 15.0927734,26.0463867 14.8476562,25.9199219 C14.6035156,25.7944336 14.3007812,25.8896485 14.1748046,26.1362305 L14.1289062,26.225586 C14.0019531,26.4711914 14.0996094,26.7724609 14.3447266,26.8989258 Z" id="Path"></path>
                <path d="M19.8779297,33.2978516 C19.9423828,33.5141602 20.1416016,33.6538086 20.3564453,33.6538086 C20.4042969,33.6538086 20.4521484,33.6469727 20.5009765,33.6328125 L20.5966796,33.6040039 C20.8603515,33.5244141 20.9628905,33.2597656 20.8828124,32.9951172 C20.8027343,32.7304688 20.4785155,32.597168 20.211914,32.6748047 C19.9482422,32.7543945 19.7978516,33.0336914 19.8779297,33.2978516 Z" id="Path"></path>
                <path d="M18.2001953,33.2763672 C17.9365234,33.355957 17.7861328,33.6352539 17.8662109,33.8994141 C17.930664,34.1157227 18.1298828,34.2553711 18.3447265,34.2553711 C18.3925781,34.2553711 18.4404296,34.2485352 18.4892577,34.234375 L18.5849608,34.2055664 C18.8486327,34.1259766 18.9511717,33.8613281 18.8710936,33.5966797 C18.7910156,33.3325195 18.4667969,33.199707 18.2001953,33.2763672 Z" id="Path"></path>
                <path d="M43.4091797,25.3398438 C43.4755859,25.3398438 43.5429688,25.3266602 43.6074219,25.2988282 L43.6992188,25.2592774 C43.9521485,25.1503907 44.0234376,24.8759766 43.9140626,24.6220704 C43.8046876,24.3681642 43.4638673,24.2709962 43.2109376,24.3808595 C42.9580079,24.4897462 42.8408204,24.7841798 42.9501954,25.0375978 C43.03125,25.2270508 43.2158203,25.3398438 43.4091797,25.3398438 Z" id="Path"></path>
                <path d="M39.578125,16.3232422 C39.7714844,16.3232422 39.9560547,16.2104492 40.0371094,16.0209961 C40.1464844,15.7675781 40.0292969,15.4731445 39.7763672,15.3642578 L39.6845703,15.324707 C39.4287109,15.2148437 39.1826172,15.352539 39.0732422,15.6054687 C38.9638672,15.8593749 39.1269531,16.1733398 39.3798828,16.2822265 C39.4443359,16.3100586 39.5117188,16.3232422 39.578125,16.3232422 Z" id="Path"></path>
                <path d="M43.2402344,17.9370117 C43.3046875,17.9648437 43.3720703,17.9780273 43.4384766,17.9780273 C43.631836,17.9780273 43.8164063,17.8652343 43.897461,17.6757812 C44.006836,17.4223632 43.8896485,17.1279296 43.6367188,17.0190429 L43.5449219,16.9794921 C43.2900391,16.8696288 43.0419922,17.0073241 42.9335938,17.2602538 C42.8242188,17.5141602 42.9873047,17.828125 43.2402344,17.9370117 Z" id="Path"></path>
                <path d="M41.3125,17.1103516 C41.3769531,17.1376954 41.4433594,17.1503907 41.5087891,17.1503907 C41.703125,17.1503907 41.8876953,17.0366212 41.96875,16.8466798 C42.0771484,16.5922853 41.9589844,16.2988282 41.7050781,16.1904298 L41.6123047,16.150879 C41.3564453,16.0429688 41.0644531,16.1606446 40.9560547,16.4145509 C40.8476563,16.6689454 40.9658203,16.9624025 41.2197266,17.0708009 L41.3125,17.1103516 Z" id="Path"></path>
                <path d="M31.90625,13.0786133 C31.9707031,13.1064453 32.0380859,13.1196289 32.1044922,13.1196289 C32.2978516,13.1196289 32.4824219,13.0068359 32.5634766,12.8173828 C32.6728516,12.5639648 32.5556641,12.2695312 32.3027344,12.1606445 L32.2109375,12.1210937 C31.9541016,12.0126953 31.7080078,12.1484375 31.5996094,12.4018554 C31.4902344,12.6557617 31.6533203,12.9697266 31.90625,13.0786133 Z" id="Path"></path>
                <path d="M33.8369141,13.9057617 C33.9013672,13.9335937 33.96875,13.9467773 34.0351563,13.9467773 C34.2285157,13.9467773 34.413086,13.8334961 34.4941407,13.6445312 C34.6035157,13.3911132 34.4863282,13.0966796 34.2333985,12.9877929 L34.1416016,12.9482421 C33.8857422,12.8388671 33.6386719,12.9755859 33.5302735,13.2290038 C33.4208984,13.4829102 33.5839844,13.796875 33.8369141,13.9057617 Z" id="Path"></path>
                <path d="M42.5996094,29.6054688 C42.5996094,23.8872071 37.9472656,19.2353516 32.2294922,19.2353516 C26.5117188,19.2353516 21.859375,23.887207 21.859375,29.6054688 C21.859375,35.3237306 26.5117188,39.9760743 32.2294922,39.9760743 C37.9472656,39.9760743 42.5996094,35.3237305 42.5996094,29.6054688 Z M22.859375,29.6054688 C22.859375,24.4389649 27.0625,20.2353516 32.2294922,20.2353516 C37.3964844,20.2353516 41.5996094,24.4389649 41.5996094,29.6054688 C41.5996094,34.772461 37.3964844,38.9760743 32.2294922,38.9760743 C27.0625,38.9760743 22.859375,34.7724609 22.859375,29.6054688 Z" id="Shape" fill-rule="nonzero"></path>
                <path d="M23.5390625,16.496582 C26.5625,16.496582 29.2861328,14.7016601 30.4785156,11.9233398 C30.883789,10.9814453 31.0888672,9.9799804 31.0888672,8.9472656 C31.0888672,4.7846679 27.7021484,1.3979492 23.5390625,1.3979492 C19.3759766,1.3979492 15.9892578,4.784668 15.9892578,8.9472656 C15.9892578,13.1098632 19.3759766,16.496582 23.5390625,16.496582 Z M23.5390625,2.3979492 C27.1503906,2.3979492 30.0888672,5.3359375 30.0888672,8.9472656 C30.0888672,9.8432617 29.9111328,10.711914 29.5605469,11.5288086 C28.5253907,13.9389648 26.1621094,15.496582 23.5390625,15.496582 C19.9277344,15.496582 16.9892578,12.5585937 16.9892578,8.9472656 C16.9892578,5.3359375 19.9277344,2.3979492 23.5390625,2.3979492 Z" id="Shape" fill-rule="nonzero"></path>
                <path d="M44.4013672,20.8027344 C44.4013672,24.9658203 47.788086,28.3525391 51.9501953,28.3525391 C56.1132812,28.3525391 59.5,24.9658203 59.5,20.8027344 C59.5,16.6401367 56.1132812,13.253418 51.9501953,13.253418 C47.7880859,13.253418 44.4013672,16.6401367 44.4013672,20.8027344 Z M51.9501953,14.253418 C55.5615234,14.253418 58.5,17.1914063 58.5,20.8027344 C58.5,24.4140625 55.5615234,27.3525391 51.9501953,27.3525391 C48.3388672,27.3525391 45.4013672,24.4140625 45.4013672,20.8027344 C45.4013672,17.1914063 48.3388672,14.253418 51.9501953,14.253418 Z" id="Shape" fill-rule="nonzero"></path>
                <path d="M1.9228516,36.4150391 C1.9228516,40.5776368 5.3095704,43.9643555 9.4716797,43.9643555 C13.6347656,43.9643555 17.0214844,40.5776367 17.0214844,36.4150391 C17.0214844,32.2524415 13.6347656,28.8657227 9.4716797,28.8657227 C5.3095703,28.8657227 1.9228516,32.2524414 1.9228516,36.4150391 Z M9.4716797,29.8657227 C13.0830078,29.8657227 16.0214844,32.803711 16.0214844,36.4150391 C16.0214844,40.0263672 13.0830078,42.9643555 9.4716797,42.9643555 C5.8603516,42.9643555 2.9228516,40.0263672 2.9228516,36.4150391 C2.9228516,32.803711 5.8603516,29.8657227 9.4716797,29.8657227 Z" id="Shape" fill-rule="nonzero"></path>
                <path d="M23.9560547,53.8510742 C26.8486328,53.8510742 29.2011719,51.4975586 29.2011719,48.6049804 C29.2011719,45.7124022 26.8486328,43.3593749 23.9560547,43.3593749 C21.0634766,43.3593749 18.7099609,45.7124022 18.7099609,48.6049804 C18.7099609,51.4975586 21.0634766,53.8510742 23.9560547,53.8510742 Z M23.9560547,44.359375 C26.296875,44.359375 28.2011719,46.2641602 28.2011719,48.6049805 C28.2011719,50.9462891 26.296875,52.8510743 23.9560547,52.8510743 C21.6152344,52.8510743 19.7099609,50.9462891 19.7099609,48.6049805 C19.7099609,46.2641602 21.6152344,44.359375 23.9560547,44.359375 Z" id="Shape" fill-rule="nonzero"></path>
                <path d="M40.8320312,10.640625 C43.7246093,10.640625 46.078125,8.2875977 46.078125,5.3950195 C46.078125,2.5024413 43.7246094,0.1489257 40.8320312,0.1489257 C37.939453,0.1489257 35.5859374,2.5024413 35.5859374,5.3950195 C35.5859374,8.2875977 37.9394531,10.640625 40.8320312,10.640625 Z M40.8320312,1.1489258 C43.1728515,1.1489258 45.078125,3.053711 45.078125,5.3950196 C45.078125,7.7358399 43.1728516,9.6406251 40.8320312,9.6406251 C38.4912108,9.6406251 36.5859374,7.7358399 36.5859374,5.3950196 C36.5859375,3.0537109 38.4912109,1.1489258 40.8320312,1.1489258 Z" id="Shape" fill-rule="nonzero"></path>
                <path d="M44.8974609,39.3276367 C44.8974609,42.2202148 47.2509765,44.5737305 50.1435547,44.5737305 C53.0361329,44.5737305 55.3886719,42.2202149 55.3886719,39.3276367 C55.3886719,36.4350585 53.0361328,34.0820312 50.1435547,34.0820312 C47.2509766,34.0820312 44.8974609,36.4350586 44.8974609,39.3276367 Z M54.3886719,39.3276367 C54.3886719,41.6689453 52.484375,43.5737305 50.1435547,43.5737305 C47.8027344,43.5737305 45.8974609,41.6689453 45.8974609,39.3276367 C45.8974609,36.9868164 47.8027343,35.0820312 50.1435547,35.0820312 C52.4843751,35.0820312 54.3886719,36.9868164 54.3886719,39.3276367 Z" id="Shape" fill-rule="nonzero"></path>
                <path d="M5.7460938,23.0688477 C8.6386719,23.0688477 10.991211,20.7158204 10.991211,17.8232422 C10.991211,14.930664 8.6386719,12.5771484 5.7460938,12.5771484 C2.8535157,12.5771484 0.5,14.9306641 0.5,17.8232422 C0.5,20.7158203 2.8535156,23.0688477 5.7460938,23.0688477 Z M5.7460938,13.5771484 C8.0869141,13.5771484 9.991211,15.4819336 9.991211,17.8232422 C9.991211,20.1640625 8.0869141,22.0688477 5.7460938,22.0688477 C3.4052735,22.0688477 1.5,20.1640625 1.5,17.8232422 C1.5,15.4819336 3.4052734,13.5771484 5.7460938,13.5771484 Z" id="Shape" fill-rule="nonzero"></path>
            </g>
        </g>
    </g>
</svg>