<?xml version="1.0" encoding="UTF-8"?>
<svg width="72px" height="83px" viewBox="0 0 72 83" version="1.1" xmlns="http://www.w3.org/2000/svg" xmlns:xlink="http://www.w3.org/1999/xlink">
    <!-- Generator: Sketch 52.6 (67491) - http://www.bohemiancoding.com/sketch -->
    <title>Group</title>
    <desc>Created with Sketch.</desc>
    <g id="Page-1" stroke="none" stroke-width="1" fill="none" fill-rule="evenodd">
        <g id="noun_Hexagon_1721185">
            <g id="Group">
                <path d="M37.5,3.7 C37.4,3.7 37.3,3.8 37.2,3.8 C37,3.8 36.9,3.7 36.8,3.5 L36.1,2.3 L36,2.2 L35.8,2.3 C35.8,2.3 35.8,2.3 35.8,2.4 L34.5,4.6 C34.4,4.7 34.2,4.9 34.1,4.9 C34,4.9 33.9,4.9 33.8,4.8 C33.6,4.7 33.6,4.6 33.5,4.4 C33.5,4.3 33.5,4.2 33.6,4.1 L34,3.3 L2.4,21.6 L2.4,58.4 C2.6,58.3 2.8,58.3 2.9,58.4 C3,58.5 3.1,58.7 3.2,58.8 C3.2,58.9 3.2,59 3.1,59.1 L2.4,60.3 L2.4,60.5 L2.6,60.6 C2.6,60.6 2.6,60.6 2.7,60.6 L5.2,60.6 C5.5,60.6 5.7,60.8 5.7,61.1 C5.7,61.4 5.5,61.6 5.2,61.6 L4.3,61.6 L35.5,79.6 L35.5,78.5 C35.5,78.2 35.7,78 36,78 C36.3,78 36.5,78.2 36.5,78.5 L36.5,79.6 L67.8,61.5 C67.6,61.4 67.5,61.3 67.5,61.1 C67.5,60.8 67.7,60.6 68,60.6 L69.4,60.6 L69.5,60.5 L69.5,60.3 C69.5,60.3 69.5,60.3 69.5,60.3 L68.3,58 C68.3,57.9 68.2,57.8 68.2,57.7 C68.2,57.5 68.3,57.4 68.5,57.3 C68.7,57.2 69.1,57.3 69.2,57.5 L69.6,58.2 L69.6,21.6 L37.8,3.2 C37.8,3.4 37.7,3.6 37.5,3.7 Z M33.8,30.5 L36.3,30.5 C36.6,30.5 36.8,30.7 36.8,31 C36.8,31.3 36.6,31.5 36.3,31.5 L33.8,31.5 C33.5,31.5 33.3,31.3 33.3,31 C33.3,30.7 33.5,30.5 33.8,30.5 Z M31.2,8.4 L32.5,6.2 C32.6,6 33,5.9 33.2,6 C33.4,6.1 33.5,6.2 33.5,6.4 C33.5,6.5 33.5,6.6 33.4,6.7 L32,8.9 C31.9,9.1 31.7,9.2 31.6,9.2 C31.5,9.2 31.4,9.2 31.3,9.1 C31.2,9 31.1,8.9 31,8.7 C31.1,8.6 31.1,8.5 31.2,8.4 Z M28.7,12.8 L30,10.6 C30.1,10.4 30.5,10.3 30.7,10.4 C30.9,10.5 31,10.6 31,10.8 C31,10.9 31,11 30.9,11.1 L29.6,13.3 C29.5,13.5 29.3,13.6 29.2,13.6 C29.1,13.6 29,13.6 28.9,13.5 C28.7,13.4 28.6,13.3 28.6,13.1 C28.6,12.9 28.6,12.8 28.7,12.8 Z M26.1,17.1 L27.4,14.9 C27.5,14.7 27.9,14.6 28.1,14.7 C28.3,14.8 28.3,15 28.4,15.1 C28.4,15.2 28.4,15.3 28.3,15.4 L27,17.6 C26.9,17.8 26.7,17.9 26.6,17.9 C26.5,17.9 26.4,17.9 26.3,17.8 C26.1,17.7 26,17.5 26,17.4 C26.1,17.3 26.1,17.2 26.1,17.1 Z M23.6,21.5 L24.9,19.3 C25,19.1 25.4,19 25.6,19.1 C25.8,19.2 25.8,19.4 25.9,19.5 C25.9,19.6 25.9,19.7 25.8,19.8 L24.5,22 C24.4,22.1 24.2,22.2 24.1,22.2 C24,22.2 23.9,22.2 23.8,22.1 C23.7,22 23.5,21.8 23.5,21.7 C23.6,21.6 23.6,21.6 23.6,21.5 Z M21.1,25.8 L22.4,23.6 C22.5,23.4 22.8,23.3 23.1,23.4 C23.3,23.5 23.4,23.7 23.4,23.8 C23.4,23.9 23.4,24 23.3,24.1 L22,26.3 C21.9,26.5 21.7,26.6 21.6,26.6 C21.5,26.6 21.4,26.6 21.3,26.5 C21.1,26.4 21.1,26.2 21,26.1 C21,26 21.1,25.9 21.1,25.8 Z M11.7,27 C11.8,26.8 12.2,26.7 12.4,26.8 L14.6,28.1 C14.8,28.2 14.8,28.4 14.9,28.5 C14.9,28.6 14.9,28.7 14.8,28.8 C14.7,28.9 14.5,29.1 14.4,29.1 C14.3,29.1 14.2,29.1 14.1,29 L11.9,27.7 C11.7,27.6 11.6,27.4 11.6,27.3 C11.7,27.2 11.7,27.1 11.7,27 Z M7.4,24.5 C7.5,24.3 7.9,24.2 8.1,24.3 L10.3,25.6 C10.5,25.7 10.5,25.9 10.6,26 C10.6,26.1 10.6,26.2 10.5,26.3 C10.4,26.5 10.2,26.6 10.1,26.6 C10,26.6 9.9,26.6 9.8,26.5 L7.6,25.2 C7.4,25.1 7.4,24.9 7.4,24.8 C7.3,24.6 7.3,24.5 7.4,24.5 Z M2.9,22.2 C2.9,22.1 2.9,22 3,21.9 C3.1,21.7 3.5,21.6 3.7,21.7 L5.9,23 C6,23.1 6.1,23.3 6.1,23.4 C6.1,23.5 6.1,23.6 6,23.7 C6,23.9 5.8,24 5.6,24 C5.5,24 5.4,24 5.3,23.9 L3.1,22.6 C3,22.5 2.9,22.4 2.9,22.2 Z M5.6,54.7 L4.3,56.9 C4.2,57 4,57.1 3.9,57.1 C3.8,57.1 3.7,57.1 3.6,57 C3.4,56.9 3.3,56.7 3.3,56.6 C3.3,56.5 3.3,56.4 3.4,56.3 L4.7,54.1 C4.8,53.9 5.1,53.8 5.4,53.9 C5.6,54 5.6,54.2 5.6,54.3 C5.7,54.5 5.6,54.6 5.6,54.7 Z M6.4,52.8 C6.3,52.8 6.2,52.8 6.1,52.7 C6,52.6 5.9,52.4 5.8,52.3 C5.8,52.2 5.8,52.1 5.9,52 L7.2,49.8 C7.3,49.6 7.7,49.5 7.9,49.6 C8.1,49.7 8.2,49.9 8.2,50 C8.2,50.1 8.2,50.2 8.1,50.3 L6.8,52.5 C6.8,52.7 6.6,52.8 6.4,52.8 Z M10.2,61.5 L7.7,61.5 C7.4,61.5 7.2,61.3 7.2,61 C7.2,60.7 7.4,60.5 7.7,60.5 L10.2,60.5 C10.5,60.5 10.7,60.7 10.7,61 C10.7,61.3 10.4,61.5 10.2,61.5 Z M10.6,46 L9.3,48.2 C9.2,48.4 9,48.5 8.9,48.5 C8.8,48.5 8.7,48.5 8.6,48.4 C8.4,48.3 8.4,48.1 8.3,48 C8.3,47.9 8.3,47.8 8.4,47.7 L9.7,45.5 C9.8,45.3 10.1,45.2 10.4,45.3 C10.5,45.4 10.7,45.5 10.7,45.7 C10.7,45.8 10.7,45.9 10.6,46 Z M11.5,44 C11.4,44 11.3,44 11.2,43.9 C11,43.8 10.9,43.7 10.9,43.5 C10.9,43.4 10.9,43.3 11,43.2 L12.3,41 C12.4,40.8 12.8,40.7 13,40.8 C13.2,40.9 13.3,41.1 13.3,41.2 C13.3,41.3 13.3,41.4 13.2,41.5 L11.9,43.7 C11.8,43.9 11.6,44 11.5,44 Z M15.2,61.5 L12.7,61.5 C12.4,61.5 12.2,61.3 12.2,61 C12.2,60.7 12.4,60.5 12.7,60.5 L15.2,60.5 C15.5,60.5 15.7,60.7 15.7,61 C15.7,61.3 15.5,61.5 15.2,61.5 Z M15.7,37.2 L14.4,39.4 C14.3,39.6 14.1,39.7 14,39.7 C13.9,39.7 13.8,39.7 13.7,39.6 C13.5,39.5 13.4,39.3 13.4,39.2 C13.4,39.1 13.4,39 13.5,38.9 L14.8,36.7 C14.9,36.5 15.3,36.4 15.5,36.5 C15.6,36.6 15.7,36.7 15.8,36.9 C15.8,37.1 15.7,37.2 15.7,37.2 Z M16.5,35.3 C16.4,35.3 16.3,35.3 16.2,35.2 C16.1,35.2 16,35 16,34.8 C16,34.7 16,34.6 16.1,34.5 L17.4,32.3 C17.5,32.1 17.9,32 18.1,32.1 C18.3,32.2 18.3,32.4 18.4,32.5 C18.4,32.6 18.4,32.7 18.3,32.8 L17,35 C16.8,35.2 16.7,35.3 16.5,35.3 Z M20.2,61.5 L17.7,61.5 C17.4,61.5 17.2,61.3 17.2,61 C17.2,60.7 17.4,60.5 17.7,60.5 L20.2,60.5 C20.5,60.5 20.7,60.7 20.7,61 C20.7,61.3 20.5,61.5 20.2,61.5 Z M21.1,35.2 C21,35.2 20.9,35.3 20.8,35.3 C20.6,35.3 20.5,35.2 20.4,35 L19.1,32.8 C19,32.7 19,32.6 19,32.5 C19,32.3 19.1,32.2 19.3,32.1 C19.5,32 19.8,32.1 20,32.3 L21.3,34.5 C21.4,34.6 21.4,34.7 21.4,34.7 C21.4,35 21.3,35.2 21.1,35.2 Z M21.2,31.5 L18.7,31.5 C18.6,31.5 18.5,31.5 18.5,31.4 C18.5,31.4 18.5,31.4 18.5,31.4 L16.3,30.1 C16.2,30 16,29.9 16,29.7 C16,29.6 16,29.5 16.1,29.4 C16.2,29.2 16.6,29.1 16.8,29.2 L18.6,30.2 C18.6,30.1 18.6,30.1 18.6,30.1 L19.9,27.9 C20,27.7 20.4,27.6 20.6,27.7 C20.8,27.8 20.9,28 20.9,28.1 C20.9,28.2 20.9,28.3 20.8,28.4 L19.7,30.4 L21.3,30.4 C21.6,30.4 21.8,30.6 21.8,30.9 C21.8,31.2 21.5,31.5 21.2,31.5 Z M21.6,37 C21.6,36.8 21.7,36.7 21.9,36.6 C22.1,36.5 22.5,36.6 22.6,36.8 L23.9,39 C23.9,39.1 24,39.2 24,39.2 C24,39.4 23.9,39.5 23.7,39.6 C23.6,39.6 23.5,39.7 23.4,39.7 C23.2,39.7 23,39.6 23,39.4 L21.7,37.2 C21.7,37.2 21.6,37.1 21.6,37 Z M25.3,61.5 L22.8,61.5 C22.5,61.5 22.3,61.3 22.3,61 C22.3,60.7 22.5,60.5 22.8,60.5 L25.3,60.5 C25.6,60.5 25.8,60.7 25.8,61 C25.8,61.3 25.5,61.5 25.3,61.5 Z M26.2,44 C26.1,44 26,44 25.9,44 C25.7,44 25.6,43.9 25.5,43.7 L24.2,41.5 C24.2,41.4 24.1,41.3 24.1,41.2 C24.1,41 24.2,40.9 24.4,40.8 C24.6,40.7 24.9,40.8 25.1,41 L26.4,43.2 C26.4,43.3 26.5,43.4 26.5,43.4 C26.4,43.7 26.3,43.9 26.2,44 Z M26.3,31.5 L23.8,31.5 C23.5,31.5 23.3,31.3 23.3,31 C23.3,30.7 23.5,30.5 23.8,30.5 L26.3,30.5 C26.6,30.5 26.8,30.7 26.8,31 C26.8,31.3 26.5,31.5 26.3,31.5 Z M26.7,45.7 C26.7,45.5 26.8,45.4 27,45.3 C27.2,45.2 27.6,45.2 27.7,45.5 L29,47.7 C29,47.8 29.1,47.9 29.1,47.9 C29.1,48.1 29,48.2 28.8,48.3 C28.7,48.3 28.6,48.4 28.6,48.4 C28.4,48.4 28.2,48.3 28.2,48.1 L26.8,46 C26.7,45.9 26.7,45.8 26.7,45.7 Z M30.3,61.5 L27.8,61.5 C27.5,61.5 27.3,61.3 27.3,61 C27.3,60.7 27.5,60.5 27.8,60.5 L30.3,60.5 C30.6,60.5 30.8,60.7 30.8,61 C30.8,61.3 30.6,61.5 30.3,61.5 Z M31.2,52.7 C31.1,52.7 31,52.8 30.9,52.8 C30.7,52.8 30.6,52.7 30.5,52.5 L29.2,50.3 C29.2,50.2 29.1,50.1 29.1,50 C29.1,49.8 29.2,49.7 29.4,49.6 C29.6,49.5 29.9,49.6 30.1,49.8 L31.4,52 C31.4,52.1 31.5,52.2 31.5,52.2 C31.5,52.4 31.4,52.6 31.2,52.7 Z M31.3,31.5 L28.8,31.5 C28.5,31.5 28.3,31.3 28.3,31 C28.3,30.7 28.5,30.5 28.8,30.5 L31.3,30.5 C31.6,30.5 31.8,30.7 31.8,31 C31.8,31.3 31.6,31.5 31.3,31.5 Z M31.7,54.4 C31.7,54.2 31.8,54.1 32,54 C32.2,53.9 32.5,54 32.7,54.2 L34,56.4 C34,56.5 34.1,56.6 34.1,56.6 C34.1,56.8 34,57 33.8,57.1 C33.7,57.1 33.6,57.2 33.5,57.2 C33.3,57.2 33.2,57.1 33.1,56.9 L31.8,54.7 C31.7,54.6 31.7,54.5 31.7,54.4 Z M35.3,61.5 L32.8,61.5 C32.5,61.5 32.3,61.3 32.3,61 C32.3,60.7 32.5,60.5 32.8,60.5 L35.1,60.5 L34.3,59.1 C34.3,59 34.2,58.9 34.2,58.8 C34.2,58.6 34.3,58.5 34.5,58.4 C34.7,58.3 35,58.4 35.2,58.6 L36.5,60.8 C36.6,61 36.6,61.3 36.3,61.5 C36.2,61.5 36.1,61.6 36,61.6 C35.9,61.6 35.8,61.5 35.7,61.5 C35.6,61.4 35.5,61.5 35.3,61.5 Z M36.5,75.9 C36.5,76.2 36.3,76.4 36,76.4 C35.7,76.4 35.5,76.2 35.5,75.9 L35.5,73.4 C35.5,73.1 35.7,72.9 36,72.9 C36.3,72.9 36.5,73.1 36.5,73.4 L36.5,75.9 Z M36.5,70.9 C36.5,71.2 36.3,71.4 36,71.4 C35.7,71.4 35.5,71.2 35.5,70.9 L35.5,68.4 C35.5,68.1 35.7,67.9 36,67.9 C36.3,67.9 36.5,68.1 36.5,68.4 L36.5,70.9 Z M36.5,65.9 C36.5,66.2 36.3,66.4 36,66.4 C35.7,66.4 35.5,66.2 35.5,65.9 L35.5,63.4 C35.5,63.1 35.7,62.9 36,62.9 C36.3,62.9 36.5,63.1 36.5,63.4 L36.5,65.9 Z M40.4,61.5 L37.9,61.5 C37.6,61.5 37.4,61.3 37.4,61 C37.4,60.7 37.6,60.5 37.9,60.5 L40.4,60.5 C40.7,60.5 40.9,60.7 40.9,61 C40.9,61.3 40.7,61.5 40.4,61.5 Z M41.1,53.1 L39.8,55.3 C39.7,55.4 39.5,55.6 39.4,55.6 C39.3,55.6 39.2,55.6 39.1,55.5 C39,55.3 39,55.2 39,55 C39,54.9 39,54.8 39.1,54.7 L40.4,52.5 C40.5,52.3 40.8,52.2 41.1,52.3 C41.2,52.4 41.4,52.6 41.4,52.7 C41.2,52.9 41.2,53 41.1,53.1 Z M38.8,31.5 C38.5,31.5 38.3,31.3 38.3,31 C38.3,30.7 38.5,30.5 38.8,30.5 L41.3,30.5 C41.6,30.5 41.8,30.7 41.8,31 C41.8,31.3 41.6,31.5 41.3,31.5 L38.8,31.5 Z M45.4,61.5 L42.9,61.5 C42.6,61.5 42.4,61.3 42.4,61 C42.4,60.7 42.6,60.5 42.9,60.5 L45.4,60.5 C45.7,60.5 45.9,60.7 45.9,61 C45.9,61.3 45.7,61.5 45.4,61.5 Z M46.2,44.3 L44.9,46.5 C44.8,46.7 44.6,46.8 44.5,46.8 C44.4,46.8 44.3,46.8 44.2,46.7 C44,46.6 43.9,46.4 43.9,46.3 C43.9,46.2 43.9,46.1 44,46 L45.3,43.8 C45.4,43.6 45.8,43.5 46,43.6 C46.1,43.7 46.2,43.9 46.3,44 C46.3,44.2 46.2,44.3 46.2,44.3 Z M43.9,31.5 C43.6,31.5 43.4,31.3 43.4,31 C43.4,30.7 43.6,30.5 43.9,30.5 L46.4,30.5 C46.7,30.5 46.9,30.7 46.9,31 C46.9,31.3 46.7,31.5 46.4,31.5 L43.9,31.5 Z M50.5,61.5 L48,61.5 C47.7,61.5 47.5,61.3 47.5,61 C47.5,60.7 47.7,60.5 48,60.5 L50.5,60.5 C50.8,60.5 51,60.7 51,61 C51,61.3 50.7,61.5 50.5,61.5 Z M51.2,35.6 L50,37.8 C49.9,38 49.7,38.1 49.6,38.1 C49.5,38.1 49.4,38.1 49.3,38 C49.2,37.9 49.1,37.8 49,37.6 C49,37.5 49,37.4 49.1,37.3 L50.4,35.1 C50.5,34.9 50.9,34.8 51.1,34.9 C51.3,35 51.4,35.2 51.4,35.3 C51.3,35.5 51.3,35.6 51.2,35.6 Z M48.9,31.5 C48.6,31.5 48.4,31.3 48.4,31 C48.4,30.7 48.6,30.5 48.9,30.5 L51.4,30.5 C51.7,30.5 51.9,30.7 51.9,31 C51.9,31.3 51.7,31.5 51.4,31.5 L48.9,31.5 Z M55.5,61.5 L53,61.5 C52.7,61.5 52.5,61.3 52.5,61 C52.5,60.7 52.7,60.5 53,60.5 L55.5,60.5 C55.8,60.5 56,60.7 56,61 C56,61.3 55.8,61.5 55.5,61.5 Z M66.1,23 L68.3,21.7 C68.5,21.6 68.9,21.7 69,21.9 C69,22 69.1,22.1 69.1,22.1 C69.1,22.3 69,22.5 68.8,22.6 L66.6,23.9 C66.5,23.9 66.4,24 66.3,24 C66.1,24 66,23.9 65.9,23.7 C65.8,23.6 65.8,23.5 65.8,23.4 C65.9,23.3 66,23.1 66.1,23 Z M66,53 C66.2,52.9 66.5,52.9 66.7,53.2 L68,55.4 C68,55.5 68.1,55.6 68.1,55.7 C68.1,55.9 68,56 67.8,56.1 C67.7,56.1 67.6,56.2 67.5,56.2 C67.3,56.2 67.2,56.1 67.1,55.9 L65.8,53.7 C65.8,53.6 65.7,53.5 65.7,53.4 C65.7,53.2 65.8,53 66,53 Z M66.1,61 C66.1,61.3 65.9,61.5 65.6,61.5 L63,61.5 C62.7,61.5 62.5,61.3 62.5,61 C62.5,60.7 62.7,60.5 63,60.5 L65.5,60.5 C65.8,60.5 66.1,60.7 66.1,61 Z M65.5,51.2 C65.5,51.4 65.4,51.6 65.2,51.6 C65.1,51.6 65,51.7 65,51.7 C64.8,51.7 64.6,51.6 64.6,51.4 L63.3,49.2 C63.3,49.1 63.2,49 63.2,48.9 C63.2,48.7 63.3,48.6 63.5,48.5 C63.7,48.4 64,48.5 64.2,48.7 L65.5,50.9 C65.4,51 65.5,51.1 65.5,51.2 Z M61.8,25.5 L64,24.2 C64.2,24.1 64.5,24.1 64.7,24.4 C64.7,24.5 64.8,24.6 64.8,24.6 C64.8,24.8 64.7,25 64.5,25 L62.3,26.3 C62.2,26.3 62.1,26.4 62,26.4 C61.8,26.4 61.7,26.3 61.6,26.1 C61.6,26 61.5,25.9 61.5,25.8 C61.5,25.8 61.6,25.6 61.8,25.5 Z M60.9,44.2 C61.1,44.1 61.4,44.2 61.6,44.4 L62.9,46.6 C62.9,46.7 63,46.8 63,46.8 C63,47 62.9,47.1 62.7,47.2 C62.6,47.2 62.5,47.3 62.4,47.3 C62.2,47.3 62.1,47.2 62,47 L60.7,44.8 C60.7,44.7 60.6,44.6 60.6,44.5 C60.7,44.5 60.8,44.3 60.9,44.2 Z M61,61 C61,61.3 60.8,61.5 60.5,61.5 L58,61.5 C57.7,61.5 57.5,61.3 57.5,61 C57.5,60.7 57.7,60.5 58,60.5 L60.5,60.5 C60.8,60.5 61,60.7 61,61 Z M60.4,42.5 C60.4,42.7 60.3,42.8 60.1,42.9 C60.1,43 60,43 59.9,43 C59.7,43 59.5,42.9 59.5,42.7 L58.2,40.5 C58.2,40.4 58.1,40.3 58.1,40.2 C58.1,40 58.2,39.9 58.4,39.8 C58.6,39.7 58.9,39.8 59.1,40 L60.4,42.2 C60.4,42.3 60.4,42.4 60.4,42.5 Z M57.4,28.1 L59.6,26.8 C59.8,26.7 60.1,26.8 60.3,27 C60.3,27.1 60.4,27.2 60.4,27.2 C60.4,27.4 60.3,27.6 60.1,27.7 L57.9,29 C57.8,29 57.7,29.1 57.6,29.1 C57.4,29.1 57.3,29 57.2,28.8 C57.2,28.7 57.1,28.6 57.1,28.5 C57.2,28.3 57.3,28.2 57.4,28.1 Z M56.6,35.7 L57.9,37.9 C57.9,38 58,38.1 58,38.1 C58,38.3 57.9,38.5 57.7,38.6 C57.6,38.6 57.5,38.7 57.4,38.7 C57.2,38.7 57.1,38.6 57,38.4 L55.7,36.2 C55.7,36.1 55.6,36 55.6,35.9 C55.6,35.7 55.7,35.6 55.9,35.5 C56.1,35.4 56.4,35.5 56.6,35.7 Z M53,30.7 C53,30.6 53,30.6 53,30.7 C53,30.6 53,30.6 53,30.7 L55.3,29.4 C55.5,29.3 55.9,29.3 56,29.6 C56,29.7 56.1,29.7 56.1,29.8 C56.1,30 56,30.1 55.8,30.2 L54,31.2 C54,31.2 54.1,31.3 54.1,31.3 L55.4,33.5 C55.4,33.6 55.5,33.7 55.5,33.8 C55.5,34 55.4,34.1 55.2,34.2 C55.1,34.2 55,34.3 54.9,34.3 C54.7,34.3 54.6,34.2 54.5,34.1 L53.3,32.1 L52.5,33.5 C52.4,33.7 52.2,33.8 52.1,33.8 C52,33.8 51.9,33.8 51.8,33.7 C51.6,33.6 51.5,33.5 51.5,33.3 C51.5,33.2 51.5,33.1 51.6,33 L53,30.7 C52.9,30.8 52.9,30.8 53,30.7 C52.9,30.7 52.9,30.7 53,30.7 Z M50.9,26.8 C51.1,26.7 51.4,26.7 51.6,27 L52.9,29.2 C52.9,29.3 53,29.4 53,29.4 C53,29.6 52.9,29.7 52.7,29.9 C52.6,29.9 52.5,30 52.4,30 C52.2,30 52,29.9 52,29.7 L50.7,27.5 C50.7,27.4 50.6,27.3 50.6,27.2 C50.6,27 50.7,26.9 50.9,26.8 Z M48.3,22.4 C48.5,22.3 48.8,22.4 49,22.6 L50.3,24.8 C50.3,24.9 50.4,25 50.4,25 C50.4,25.2 50.3,25.4 50.1,25.5 C50,25.5 49.9,25.6 49.8,25.6 C49.6,25.6 49.5,25.5 49.4,25.3 L48.1,23.1 C48,23 48,22.9 48,22.8 C48.1,22.7 48.2,22.5 48.3,22.4 Z M48.5,39.3 C48.7,39.4 48.8,39.6 48.8,39.7 C48.8,39.8 48.8,39.9 48.7,40 L47.4,42.2 C47.3,42.4 47.1,42.5 47,42.5 C46.9,42.5 46.8,42.5 46.8,42.4 C46.6,42.3 46.5,42.1 46.5,42 C46.5,41.9 46.5,41.8 46.6,41.7 L47.9,39.5 C48,39.3 48.3,39.2 48.5,39.3 Z M45.8,18.1 C46,18 46.4,18 46.5,18.3 L47.8,20.5 C47.8,20.6 47.9,20.6 47.9,20.7 C47.9,20.9 47.8,21.1 47.6,21.1 C47.5,21.1 47.4,21.2 47.3,21.2 C47.1,21.2 47,21.1 46.9,20.9 L45.6,18.7 C45.6,18.6 45.5,18.5 45.5,18.4 C45.6,18.3 45.7,18.1 45.8,18.1 Z M43.3,13.7 C43.5,13.6 43.8,13.7 44,13.9 L45.3,16.1 C45.3,16.2 45.4,16.2 45.4,16.3 C45.4,16.5 45.3,16.7 45.1,16.7 C45,16.8 44.9,16.8 44.8,16.8 C44.6,16.8 44.5,16.7 44.4,16.5 L43.1,14.3 C43,14.2 43,14.1 43,14 C43.1,13.9 43.1,13.8 43.3,13.7 Z M43.5,48 C43.7,48.1 43.7,48.3 43.8,48.4 C43.8,48.5 43.8,48.6 43.7,48.7 L42.4,50.9 C42.3,51.1 42.1,51.2 42,51.2 C41.9,51.2 41.8,51.2 41.7,51.1 C41.5,51 41.4,50.8 41.4,50.7 C41.4,50.6 41.4,50.5 41.5,50.4 L42.8,48.2 C42.9,48 43.3,47.9 43.5,48 Z M40.8,9.3 C41,9.2 41.3,9.3 41.5,9.5 L42.8,11.7 C42.8,11.8 42.9,11.9 42.9,12 C42.9,12.2 42.8,12.3 42.6,12.4 C42.5,12.4 42.4,12.5 42.4,12.5 C42.2,12.5 42.1,12.4 42,12.2 L40.6,10 C40.6,9.9 40.5,9.8 40.5,9.7 C40.5,9.6 40.6,9.4 40.8,9.3 Z M38.3,5 C38.5,4.9 38.8,5 39,5.2 L40.3,7.4 C40.3,7.5 40.4,7.5 40.4,7.6 C40.4,7.8 40.3,8 40.1,8.1 C40,8.1 39.9,8.2 39.8,8.2 C39.6,8.2 39.4,8.1 39.4,7.9 L38.1,5.7 C38.1,5.6 38,5.5 38,5.4 C38,5.2 38.1,5.1 38.3,5 Z M38.4,56.7 C38.6,56.8 38.7,57 38.7,57.1 C38.7,57.2 38.7,57.3 38.6,57.4 L37.3,59.6 C37.2,59.8 37,59.9 36.9,59.9 C36.8,59.9 36.7,59.9 36.6,59.8 C36.5,59.7 36.4,59.5 36.3,59.4 C36.3,59.3 36.3,59.2 36.4,59.1 L37.7,56.9 C37.9,56.7 38.2,56.6 38.4,56.7 Z" id="Shape"></path>
                <path d="M71.1,20.2 L36.5,0.2 C36.2,8.8817842e-16 35.8,8.8817842e-16 35.5,0.2 L0.9,20.2 C0.6,20.4 0.4,20.7 0.4,21.1 L0.4,61.1 C0.4,61.5 0.6,61.8 0.9,62 L35.5,82 C35.7,82.1 35.8,82.1 36,82.1 C36.2,82.1 36.3,82.1 36.5,82 L71.1,62 C71.4,61.8 71.6,61.5 71.6,61.1 L71.6,21 C71.6,20.7 71.4,20.3 71.1,20.2 Z M69.6,58.2 L69.2,57.5 C69.1,57.3 68.7,57.2 68.5,57.3 C68.4,57.4 68.3,57.6 68.2,57.7 C68.2,57.8 68.2,57.9 68.3,58 L69.6,60.2 C69.6,60.2 69.6,60.2 69.6,60.2 L69.6,60.4 L69.5,60.5 L68.1,60.5 C67.8,60.5 67.6,60.7 67.6,61 C67.6,61.2 67.7,61.3 67.9,61.4 L36.5,79.5 L36.5,78.4 C36.5,78.1 36.3,77.9 36,77.9 C35.7,77.9 35.5,78.1 35.5,78.4 L35.5,79.5 L4.3,61.5 L5.2,61.5 C5.5,61.5 5.7,61.3 5.7,61 C5.7,60.7 5.5,60.5 5.2,60.5 L2.7,60.5 C2.7,60.5 2.7,60.5 2.6,60.5 L2.4,60.4 L2.4,60.2 L3.1,59 C3.1,58.9 3.2,58.8 3.2,58.7 C3.2,58.5 3.1,58.4 2.9,58.3 C2.7,58.2 2.5,58.2 2.4,58.3 L2.4,21.6 L34.1,3.3 L33.7,4 C33.6,4.1 33.6,4.2 33.6,4.3 C33.6,4.5 33.7,4.6 33.9,4.7 C34,4.7 34.1,4.8 34.2,4.8 C34.4,4.8 34.5,4.7 34.6,4.5 L35.9,2.3 C35.9,2.3 35.9,2.3 35.9,2.2 L36.1,2.1 L36.2,2.2 L36.9,3.4 C37,3.5 37.2,3.7 37.3,3.7 C37.4,3.7 37.5,3.7 37.6,3.6 C37.8,3.5 37.8,3.3 37.8,3.2 L69.6,21.6 L69.6,58.2 Z" id="Shape" fill="#000000" fill-rule="nonzero"></path>
                <path d="M31.4,9.1 C31.5,9.1 31.6,9.2 31.7,9.2 C31.9,9.2 32.1,9.1 32.1,8.9 L33.4,6.7 C33.4,6.6 33.5,6.5 33.5,6.4 C33.5,6.2 33.4,6.1 33.2,6 C33,5.9 32.6,6 32.5,6.2 L31.2,8.4 C31.2,8.5 31.1,8.6 31.1,8.7 C31.1,8.8 31.2,9 31.4,9.1 Z" id="Path" fill="#000000"></path>
                <path d="M28.8,13.4 C28.9,13.5 29,13.5 29.1,13.5 C29.3,13.5 29.4,13.4 29.5,13.2 L30.8,11 C30.8,10.9 30.9,10.8 30.9,10.7 C30.9,10.5 30.8,10.4 30.6,10.3 C30.4,10.2 30.1,10.3 29.9,10.5 L28.6,12.7 C28.6,12.8 28.5,12.9 28.5,13 C28.6,13.2 28.7,13.4 28.8,13.4 Z" id="Path" fill="#000000"></path>
                <path d="M26.3,17.8 C26.4,17.8 26.5,17.9 26.6,17.9 C26.8,17.9 26.9,17.8 27,17.6 L28.3,15.4 C28.3,15.3 28.4,15.2 28.4,15.1 C28.4,14.9 28.3,14.8 28.1,14.7 C27.9,14.6 27.6,14.6 27.4,14.9 L26.1,17.1 C26.1,17.2 26,17.3 26,17.4 C26.1,17.6 26.2,17.7 26.3,17.8 Z" id="Path" fill="#000000"></path>
                <path d="M21.5,26.6 C21.7,26.6 21.8,26.5 21.9,26.3 L23.2,24.1 C23.2,24 23.3,23.9 23.3,23.8 C23.3,23.6 23.2,23.5 23,23.4 C22.8,23.3 22.5,23.4 22.3,23.6 L21,25.8 C21,25.9 20.9,26 20.9,26.1 C20.9,26.3 21,26.4 21.2,26.5 C21.4,26.6 21.5,26.6 21.5,26.6 Z" id="Path" fill="#000000"></path>
                <path d="M15.5,36.6 C15.3,36.5 15,36.6 14.8,36.8 L13.5,39 C13.5,39.1 13.4,39.2 13.4,39.3 C13.4,39.5 13.5,39.6 13.7,39.7 C13.8,39.7 13.9,39.8 14,39.8 C14.2,39.8 14.3,39.7 14.4,39.5 L15.7,37.3 C15.7,37.2 15.8,37.1 15.8,37 C15.7,36.8 15.6,36.6 15.5,36.6 Z" id="Path" fill="#000000"></path>
                <path d="M18.3,32.6 C18.3,32.4 18.2,32.3 18,32.2 C17.8,32.1 17.5,32.2 17.3,32.4 L16,34.6 C16,34.7 15.9,34.8 15.9,34.9 C15.9,35.1 16,35.2 16.2,35.3 C16.3,35.3 16.4,35.4 16.5,35.4 C16.7,35.4 16.8,35.3 16.9,35.1 L18.2,32.9 C18.2,32.8 18.3,32.7 18.3,32.6 Z" id="Path" fill="#000000"></path>
                <path d="M8.2,50.1 C8.2,49.9 8.1,49.8 7.9,49.7 C7.7,49.6 7.4,49.7 7.2,49.9 L6,52 C6,52.1 5.9,52.2 5.9,52.3 C5.9,52.5 6,52.6 6.2,52.7 C6.3,52.7 6.4,52.8 6.5,52.8 C6.7,52.8 6.9,52.7 6.9,52.5 L8.2,50.3 C8.2,50.2 8.2,50.2 8.2,50.1 Z" id="Path" fill="#000000"></path>
                <path d="M4.7,54.2 L3.4,56.4 C3.4,56.5 3.3,56.6 3.3,56.7 C3.3,56.9 3.4,57 3.6,57.1 C3.7,57.1 3.8,57.2 3.9,57.2 C4.1,57.2 4.2,57.1 4.3,57 L5.6,54.8 C5.6,54.7 5.7,54.6 5.7,54.5 C5.7,54.3 5.6,54.2 5.5,54.1 C5.2,53.9 4.9,54 4.7,54.2 Z" id="Path" fill="#000000"></path>
                <path d="M23.8,22.2 C23.9,22.2 24,22.3 24.1,22.3 C24.3,22.3 24.4,22.2 24.5,22.1 L25.8,19.9 C25.8,19.8 25.9,19.7 25.9,19.6 C25.9,19.4 25.8,19.3 25.6,19.2 C25.4,19.1 25.1,19.2 24.9,19.4 L23.6,21.6 C23.6,21.7 23.5,21.8 23.5,21.9 C23.6,21.9 23.7,22.1 23.8,22.2 Z" id="Path" fill="#000000"></path>
                <path d="M10.5,45.3 C10.3,45.2 10,45.2 9.8,45.5 L8.5,47.7 C8.5,47.8 8.4,47.9 8.4,48 C8.4,48.2 8.5,48.3 8.7,48.4 C8.8,48.4 8.9,48.5 9,48.5 C9.2,48.5 9.3,48.4 9.4,48.2 L10.7,46 C10.7,45.9 10.8,45.8 10.8,45.7 C10.7,45.5 10.6,45.4 10.5,45.3 Z" id="Path" fill="#000000"></path>
                <path d="M13.2,41.3 C13.2,41.1 13.1,41 12.9,40.9 C12.7,40.8 12.4,40.9 12.2,41.1 L11,43.3 C11,43.4 10.9,43.5 10.9,43.6 C10.9,43.8 11,43.9 11.2,44 C11.3,44 11.4,44.1 11.5,44.1 C11.7,44.1 11.8,44 11.9,43.8 L13.2,41.6 C13.2,41.5 13.2,41.4 13.2,41.3 Z" id="Path" fill="#000000"></path>
                <path d="M44.4,16.6 C44.5,16.7 44.7,16.9 44.8,16.9 C44.9,16.9 45,16.9 45.1,16.8 C45.3,16.7 45.4,16.5 45.4,16.4 C45.4,16.3 45.4,16.2 45.3,16.2 L44,13.9 C43.9,13.7 43.5,13.6 43.3,13.7 C43.1,13.8 43.1,13.9 43,14.1 C43,14.2 43,14.3 43.1,14.4 L44.4,16.6 Z" id="Path" fill="#000000"></path>
                <path d="M55.6,35.9 C55.6,36 55.6,36.1 55.7,36.2 L57,38.4 C57.1,38.5 57.3,38.7 57.4,38.7 C57.5,38.7 57.6,38.7 57.7,38.6 C57.9,38.5 58,38.3 58,38.1 C58,38 58,37.9 57.9,37.9 L56.6,35.7 C56.5,35.5 56.1,35.4 55.9,35.5 C55.7,35.6 55.6,35.8 55.6,35.9 Z" id="Path" fill="#000000"></path>
                <path d="M58.4,39.9 C58.2,40 58.1,40.2 58.1,40.3 C58.1,40.4 58.1,40.5 58.2,40.6 L59.5,42.8 C59.6,43 59.8,43.1 59.9,43.1 C60,43.1 60.1,43.1 60.2,43 C60.3,42.9 60.5,42.7 60.5,42.6 C60.5,42.5 60.5,42.4 60.4,42.3 L59.1,40.1 C59,39.8 58.6,39.7 58.4,39.9 Z" id="Path" fill="#000000"></path>
                <path d="M51.9,29.6 C52,29.8 52.2,29.9 52.3,29.9 C52.4,29.9 52.5,29.9 52.6,29.8 C52.7,29.7 52.9,29.5 52.9,29.3 C52.9,29.2 52.9,29.1 52.8,29.1 L51.5,27 C51.4,26.8 51,26.7 50.8,26.8 C50.6,26.9 50.5,27.1 50.5,27.2 C50.5,27.3 50.5,27.4 50.6,27.5 L51.9,29.6 Z" id="Path" fill="#000000"></path>
                <path d="M49.4,25.3 C49.5,25.5 49.7,25.6 49.8,25.6 C49.9,25.6 50,25.6 50.1,25.5 C50.3,25.4 50.4,25.2 50.4,25 C50.4,24.9 50.4,24.8 50.3,24.8 L49,22.6 C48.9,22.4 48.5,22.3 48.3,22.4 C48.1,22.5 48,22.7 48,22.8 C48,22.9 48,23 48.1,23.1 L49.4,25.3 Z" id="Path" fill="#000000"></path>
                <path d="M39.3,7.8 C39.4,7.9 39.6,8.1 39.7,8.1 C39.8,8.1 39.9,8.1 40,8 C40.1,7.9 40.3,7.7 40.3,7.5 C40.3,7.4 40.3,7.3 40.2,7.3 L39,5.2 C38.9,5 38.5,4.9 38.3,5 C38.2,5.1 38,5.3 38,5.4 C38,5.5 38,5.6 38.1,5.7 L39.3,7.8 Z" id="Path" fill="#000000"></path>
                <path d="M46.9,20.9 C47,21 47.2,21.2 47.3,21.2 C47.4,21.2 47.5,21.2 47.6,21.1 C47.8,21 47.9,20.8 47.9,20.7 C47.9,20.6 47.9,20.5 47.8,20.5 L46.5,18.3 C46.4,18.1 46,18 45.8,18.1 C45.7,18.2 45.5,18.3 45.5,18.5 C45.5,18.6 45.5,18.7 45.6,18.8 L46.9,20.9 Z" id="Path" fill="#000000"></path>
                <path d="M62,47.1 C62.1,47.3 62.3,47.4 62.4,47.4 C62.5,47.4 62.6,47.4 62.7,47.3 C62.9,47.2 63,47 63,46.9 C63,46.8 63,46.7 62.9,46.7 L61.6,44.5 C61.5,44.3 61.2,44.2 60.9,44.3 C60.8,44.4 60.6,44.6 60.6,44.7 C60.6,44.8 60.6,44.9 60.7,45 L62,47.1 Z" id="Path" fill="#000000"></path>
                <path d="M41.9,12.2 C42,12.4 42.2,12.5 42.3,12.5 C42.4,12.5 42.5,12.5 42.5,12.4 C42.7,12.3 42.8,12.2 42.8,12 C42.8,11.9 42.8,11.8 42.7,11.7 L41.4,9.5 C41.3,9.3 40.9,9.2 40.7,9.3 C40.5,9.4 40.5,9.6 40.4,9.7 C40.4,9.8 40.4,9.9 40.5,10 L41.9,12.2 Z" id="Path" fill="#000000"></path>
                <path d="M63.5,48.6 C63.3,48.7 63.2,48.8 63.2,49 C63.2,49.1 63.2,49.2 63.3,49.3 L64.6,51.5 C64.7,51.6 64.9,51.8 65,51.8 C65.1,51.8 65.2,51.8 65.2,51.7 C65.4,51.6 65.5,51.4 65.5,51.3 C65.5,51.2 65.5,51.1 65.4,51.1 L64.1,48.9 C64,48.5 63.7,48.5 63.5,48.6 Z" id="Path" fill="#000000"></path>
                <path d="M67,55.8 C67.1,56 67.3,56.1 67.4,56.1 C67.5,56.1 67.6,56.1 67.7,56 C67.9,55.9 68,55.8 68,55.6 C68,55.5 68,55.4 67.9,55.3 L66.6,53.1 C66.5,52.9 66.2,52.8 65.9,52.9 C65.7,53 65.7,53.2 65.7,53.3 C65.7,53.4 65.7,53.5 65.8,53.6 L67,55.8 Z" id="Path" fill="#000000"></path>
                <path d="M20.2,60.5 L17.7,60.5 C17.4,60.5 17.2,60.7 17.2,61 C17.2,61.3 17.4,61.5 17.7,61.5 L20.2,61.5 C20.5,61.5 20.7,61.3 20.7,61 C20.7,60.7 20.5,60.5 20.2,60.5 Z" id="Path" fill="#000000"></path>
                <path d="M25.3,60.5 L22.8,60.5 C22.5,60.5 22.3,60.7 22.3,61 C22.3,61.3 22.5,61.5 22.8,61.5 L25.3,61.5 C25.6,61.5 25.8,61.3 25.8,61 C25.8,60.7 25.5,60.5 25.3,60.5 Z" id="Path" fill="#000000"></path>
                <path d="M36,61.5 C36.1,61.5 36.2,61.5 36.3,61.4 C36.5,61.3 36.6,61 36.5,60.7 L35.2,58.5 C35.1,58.3 34.7,58.2 34.5,58.3 C34.3,58.4 34.2,58.6 34.2,58.7 C34.2,58.8 34.2,58.9 34.3,59 L35.1,60.4 L32.8,60.4 C32.5,60.4 32.3,60.6 32.3,60.9 C32.3,61.2 32.5,61.4 32.8,61.4 L35.3,61.4 C35.4,61.4 35.5,61.3 35.6,61.3 C35.8,61.4 35.9,61.5 36,61.5 Z" id="Path" fill="#000000"></path>
                <path d="M30.3,60.5 L27.8,60.5 C27.5,60.5 27.3,60.7 27.3,61 C27.3,61.3 27.5,61.5 27.8,61.5 L30.3,61.5 C30.6,61.5 30.8,61.3 30.8,61 C30.8,60.7 30.6,60.5 30.3,60.5 Z" id="Path" fill="#000000"></path>
                <path d="M50.5,60.5 L48,60.5 C47.7,60.5 47.5,60.7 47.5,61 C47.5,61.3 47.7,61.5 48,61.5 L50.5,61.5 C50.8,61.5 51,61.3 51,61 C51,60.7 50.7,60.5 50.5,60.5 Z" id="Path" fill="#000000"></path>
                <path d="M15.2,60.5 L12.7,60.5 C12.4,60.5 12.2,60.7 12.2,61 C12.2,61.3 12.4,61.5 12.7,61.5 L15.2,61.5 C15.5,61.5 15.7,61.3 15.7,61 C15.7,60.7 15.5,60.5 15.2,60.5 Z" id="Path" fill="#000000"></path>
                <path d="M40.4,60.5 L37.9,60.5 C37.6,60.5 37.4,60.7 37.4,61 C37.4,61.3 37.6,61.5 37.9,61.5 L40.4,61.5 C40.7,61.5 40.9,61.3 40.9,61 C40.9,60.7 40.7,60.5 40.4,60.5 Z" id="Path" fill="#000000"></path>
                <path d="M55.5,60.5 L53,60.5 C52.7,60.5 52.5,60.7 52.5,61 C52.5,61.3 52.7,61.5 53,61.5 L55.5,61.5 C55.8,61.5 56,61.3 56,61 C56,60.7 55.8,60.5 55.5,60.5 Z" id="Path" fill="#000000"></path>
                <path d="M57.5,61 C57.5,61.3 57.7,61.5 58,61.5 L60.5,61.5 C60.8,61.5 61,61.3 61,61 C61,60.7 60.8,60.5 60.5,60.5 L58,60.5 C57.7,60.5 57.5,60.7 57.5,61 Z" id="Path" fill="#000000"></path>
                <path d="M62.5,61 C62.5,61.3 62.7,61.5 63,61.5 L65.5,61.5 C65.8,61.5 66,61.3 66,61 C66,60.7 65.8,60.5 65.5,60.5 L63,60.5 C62.8,60.5 62.5,60.7 62.5,61 Z" id="Path" fill="#000000"></path>
                <path d="M45.4,60.5 L42.9,60.5 C42.6,60.5 42.4,60.7 42.4,61 C42.4,61.3 42.6,61.5 42.9,61.5 L45.4,61.5 C45.7,61.5 45.9,61.3 45.9,61 C45.9,60.7 45.7,60.5 45.4,60.5 Z" id="Path" fill="#000000"></path>
                <path d="M10.2,60.5 L7.7,60.5 C7.4,60.5 7.2,60.7 7.2,61 C7.2,61.3 7.4,61.5 7.7,61.5 L10.2,61.5 C10.5,61.5 10.7,61.3 10.7,61 C10.7,60.7 10.4,60.5 10.2,60.5 Z" id="Path" fill="#000000"></path>
                <path d="M36,67.9 C35.7,67.9 35.5,68.1 35.5,68.4 L35.5,70.9 C35.5,71.2 35.7,71.4 36,71.4 C36.3,71.4 36.5,71.2 36.5,70.9 L36.5,68.4 C36.5,68.1 36.3,67.9 36,67.9 Z" id="Path" fill="#000000"></path>
                <path d="M36,62.8 C35.7,62.8 35.5,63 35.5,63.3 L35.5,65.8 C35.5,66.1 35.7,66.3 36,66.3 C36.3,66.3 36.5,66.1 36.5,65.8 L36.5,63.3 C36.5,63.1 36.3,62.8 36,62.8 Z" id="Path" fill="#000000"></path>
                <path d="M36,72.9 C35.7,72.9 35.5,73.1 35.5,73.4 L35.5,75.9 C35.5,76.2 35.7,76.4 36,76.4 C36.3,76.4 36.5,76.2 36.5,75.9 L36.5,73.4 C36.5,73.1 36.3,72.9 36,72.9 Z" id="Path" fill="#000000"></path>
                <path d="M41.9,31 C41.9,30.7 41.7,30.5 41.4,30.5 L38.9,30.5 C38.6,30.5 38.4,30.7 38.4,31 C38.4,31.3 38.6,31.5 38.9,31.5 L41.4,31.5 C41.6,31.5 41.9,31.3 41.9,31 Z" id="Path" fill="#000000"></path>
                <path d="M51.9,31 C51.9,30.7 51.7,30.5 51.4,30.5 L48.9,30.5 C48.6,30.5 48.4,30.7 48.4,31 C48.4,31.3 48.6,31.5 48.9,31.5 L51.4,31.5 C51.7,31.5 51.9,31.3 51.9,31 Z" id="Path" fill="#000000"></path>
                <path d="M33.8,31.5 L36.3,31.5 C36.6,31.5 36.8,31.3 36.8,31 C36.8,30.7 36.6,30.5 36.3,30.5 L33.8,30.5 C33.5,30.5 33.3,30.7 33.3,31 C33.3,31.3 33.5,31.5 33.8,31.5 Z" id="Path" fill="#000000"></path>
                <path d="M31.3,30.5 L28.8,30.5 C28.5,30.5 28.3,30.7 28.3,31 C28.3,31.3 28.5,31.5 28.8,31.5 L31.3,31.5 C31.6,31.5 31.8,31.3 31.8,31 C31.8,30.7 31.6,30.5 31.3,30.5 Z" id="Path" fill="#000000"></path>
                <path d="M26.3,30.5 L23.8,30.5 C23.5,30.5 23.3,30.7 23.3,31 C23.3,31.3 23.5,31.5 23.8,31.5 L26.3,31.5 C26.6,31.5 26.8,31.3 26.8,31 C26.8,30.7 26.5,30.5 26.3,30.5 Z" id="Path" fill="#000000"></path>
                <path d="M46.9,31 C46.9,30.7 46.7,30.5 46.4,30.5 L43.9,30.5 C43.6,30.5 43.4,30.7 43.4,31 C43.4,31.3 43.6,31.5 43.9,31.5 L46.4,31.5 C46.7,31.5 46.9,31.3 46.9,31 Z" id="Path" fill="#000000"></path>
                <path d="M21.2,30.5 L19.6,30.5 L20.7,28.5 C20.7,28.4 20.8,28.3 20.8,28.2 C20.8,28 20.7,27.9 20.5,27.8 C20.3,27.7 19.9,27.8 19.8,28 L18.5,30.2 C18.5,30.2 18.5,30.3 18.5,30.3 L16.7,29.3 C16.5,29.2 16.2,29.2 16,29.5 C16,29.6 15.9,29.7 15.9,29.8 C15.9,30 16,30.1 16.2,30.2 L18.4,31.5 C18.4,31.5 18.4,31.5 18.4,31.5 C18.5,31.5 18.6,31.6 18.6,31.6 L21.1,31.6 C21.4,31.6 21.6,31.4 21.6,31.1 C21.6,30.8 21.5,30.5 21.2,30.5 Z" id="Path" fill="#000000"></path>
                <path d="M36.4,59.4 C36.4,59.6 36.5,59.7 36.7,59.8 C36.8,59.8 36.9,59.9 37,59.9 C37.2,59.9 37.4,59.8 37.4,59.6 L38.7,57.4 C38.7,57.3 38.8,57.2 38.8,57.1 C38.8,56.9 38.7,56.8 38.5,56.7 C38.3,56.6 38,56.7 37.8,56.9 L36.5,59.1 C36.5,59.2 36.4,59.3 36.4,59.4 Z" id="Path" fill="#000000"></path>
                <path d="M41.5,50.4 C41.5,50.5 41.4,50.6 41.4,50.7 C41.4,50.9 41.5,51 41.7,51.1 C41.8,51.1 41.9,51.2 42,51.2 C42.2,51.2 42.3,51.1 42.4,50.9 L43.7,48.7 C43.7,48.6 43.8,48.5 43.8,48.4 C43.8,48.2 43.7,48.1 43.5,48 C43.3,47.9 43,48 42.8,48.2 L41.5,50.4 Z" id="Path" fill="#000000"></path>
                <path d="M46.6,41.7 C46.6,41.8 46.5,41.9 46.5,42 C46.5,42.2 46.6,42.3 46.8,42.4 C46.9,42.4 47,42.5 47,42.5 C47.2,42.5 47.3,42.4 47.4,42.2 L48.7,40 C48.7,39.9 48.8,39.8 48.8,39.7 C48.8,39.5 48.7,39.4 48.5,39.3 C48.3,39.2 48,39.3 47.8,39.5 L46.6,41.7 Z" id="Path" fill="#000000"></path>
                <path d="M51,34.9 C50.8,34.8 50.4,34.9 50.3,35.1 L49,37.3 C49,37.4 48.9,37.5 48.9,37.6 C48.9,37.8 49,37.9 49.2,38 C49.3,38.1 49.4,38.1 49.5,38.1 C49.7,38.1 49.9,38 49.9,37.8 L51.2,35.6 C51.2,35.5 51.3,35.4 51.3,35.4 C51.3,35.2 51.2,35 51,34.9 Z" id="Path" fill="#000000"></path>
                <path d="M40.3,52.6 L39,54.8 C39,54.9 38.9,55 38.9,55.1 C38.9,55.3 39,55.4 39.2,55.5 C39.3,55.5 39.4,55.6 39.5,55.6 C39.7,55.6 39.8,55.5 39.9,55.3 L41.2,53.1 C41.2,53 41.3,52.9 41.3,52.8 C41.3,52.6 41.2,52.5 41,52.4 C40.7,52.3 40.4,52.3 40.3,52.6 Z" id="Path" fill="#000000"></path>
                <path d="M45.3,43.8 L44,46 C44,46.1 43.9,46.2 43.9,46.3 C43.9,46.5 44,46.6 44.2,46.7 C44.3,46.7 44.4,46.8 44.5,46.8 C44.7,46.8 44.8,46.7 44.9,46.5 L46.2,44.3 C46.2,44.2 46.3,44.1 46.3,44 C46.3,43.8 46.2,43.7 46,43.6 C45.8,43.5 45.5,43.6 45.3,43.8 Z" id="Path" fill="#000000"></path>
                <path d="M20.1,32.4 C20,32.2 19.6,32.1 19.4,32.2 C19.2,32.3 19.2,32.5 19.1,32.6 C19.1,32.7 19.1,32.8 19.2,32.9 L20.5,35.1 C20.6,35.3 20.8,35.4 20.9,35.4 C21,35.4 21.1,35.4 21.2,35.3 C21.4,35.2 21.5,35 21.5,34.8 C21.5,34.7 21.5,34.6 21.4,34.6 L20.1,32.4 Z" id="Path" fill="#000000"></path>
                <path d="M28.5,48.4 C28.6,48.4 28.7,48.4 28.7,48.3 C28.9,48.2 29,48 29,47.9 C29,47.8 29,47.7 28.9,47.7 L27.6,45.5 C27.5,45.3 27.1,45.2 26.9,45.3 C26.7,45.4 26.6,45.6 26.6,45.7 C26.6,45.8 26.6,45.9 26.7,46 L28,48.2 C28.1,48.3 28.3,48.4 28.5,48.4 Z" id="Path" fill="#000000"></path>
                <path d="M33.5,57.1 C33.6,57.1 33.7,57.1 33.8,57 C34,56.9 34.1,56.7 34.1,56.5 C34.1,56.4 34.1,56.3 34,56.3 L32.7,54.1 C32.5,54 32.2,53.9 32,54 C31.8,54.1 31.8,54.3 31.7,54.4 C31.7,54.5 31.7,54.6 31.8,54.7 L33.1,56.9 C33.1,57 33.3,57.1 33.5,57.1 Z" id="Path" fill="#000000"></path>
                <path d="M30.1,49.8 C30,49.6 29.6,49.5 29.4,49.6 C29.2,49.7 29.2,49.9 29.1,50 C29.1,50.1 29.1,50.2 29.2,50.3 L30.5,52.5 C30.6,52.7 30.8,52.8 30.9,52.8 C31,52.8 31.1,52.8 31.2,52.7 C31.4,52.6 31.5,52.4 31.5,52.3 C31.5,52.2 31.5,52.1 31.4,52.1 L30.1,49.8 Z" id="Path" fill="#000000"></path>
                <path d="M23.4,39.7 C23.5,39.7 23.6,39.7 23.7,39.6 C23.9,39.5 24,39.3 24,39.2 C24,39.1 24,39 23.9,39 L22.6,36.8 C22.5,36.6 22.1,36.5 21.9,36.6 C21.8,36.7 21.6,36.8 21.6,37 C21.6,37.1 21.6,37.2 21.7,37.3 L23,39.5 C23.1,39.6 23.2,39.7 23.4,39.7 Z" id="Path" fill="#000000"></path>
                <path d="M25.1,41.1 C25,40.9 24.6,40.8 24.4,40.9 C24.2,41 24.1,41.1 24.1,41.3 C24.1,41.4 24.1,41.5 24.2,41.6 L25.5,43.8 C25.6,44 25.8,44.1 25.9,44.1 C26,44.1 26.1,44.1 26.2,44 C26.4,43.9 26.5,43.7 26.5,43.6 C26.5,43.5 26.5,43.4 26.4,43.4 L25.1,41.1 Z" id="Path" fill="#000000"></path>
                <path d="M5.6,24 C5.8,24 6,23.9 6,23.7 C6,23.6 6.1,23.5 6.1,23.4 C6.1,23.2 6,23.1 5.9,23 L3.7,21.7 C3.5,21.6 3.1,21.7 3,21.9 C3,22 2.9,22.1 2.9,22.2 C2.9,22.4 3,22.5 3.2,22.6 L5.4,23.9 C5.4,23.9 5.5,24 5.6,24 Z" id="Path" fill="#000000"></path>
                <path d="M11.9,27.7 L14.1,29 C14.2,29 14.3,29.1 14.4,29.1 C14.6,29.1 14.7,29 14.8,28.8 C14.8,28.7 14.9,28.6 14.9,28.5 C14.9,28.3 14.8,28.2 14.6,28.1 L12.4,26.8 C12.2,26.7 11.8,26.8 11.7,27 C11.7,27.1 11.6,27.2 11.6,27.3 C11.7,27.4 11.8,27.6 11.9,27.7 Z" id="Path" fill="#000000"></path>
                <path d="M9.7,26.4 C9.8,26.4 9.9,26.5 10,26.5 C10.2,26.5 10.3,26.4 10.4,26.2 C10.4,26.1 10.5,26 10.5,25.9 C10.5,25.7 10.4,25.6 10.2,25.5 L8,24.3 C7.8,24.2 7.5,24.3 7.3,24.5 C7.3,24.6 7.2,24.7 7.2,24.8 C7.2,25 7.3,25.1 7.4,25.2 L9.7,26.4 Z" id="Path" fill="#000000"></path>
                <path d="M62,26.5 C62.1,26.5 62.2,26.5 62.3,26.4 L64.5,25.1 C64.7,25 64.8,24.8 64.8,24.7 C64.8,24.6 64.8,24.5 64.7,24.5 C64.6,24.3 64.2,24.2 64,24.3 L61.8,25.6 C61.7,25.7 61.6,25.9 61.5,26 C61.5,26.1 61.5,26.2 61.6,26.3 C61.7,26.4 61.8,26.5 62,26.5 Z" id="Path" fill="#000000"></path>
                <path d="M66.4,24 C66.5,24 66.6,24 66.7,23.9 L68.9,22.6 C69.1,22.5 69.2,22.3 69.2,22.1 C69.2,22 69.2,21.9 69.1,21.9 C69,21.7 68.6,21.6 68.4,21.7 L66.1,23 C65.9,23.1 65.9,23.3 65.8,23.4 C65.8,23.5 65.8,23.6 65.9,23.7 C66,23.9 66.2,24 66.4,24 Z" id="Path" fill="#000000"></path>
                <path d="M57.7,29 C57.8,29 57.9,29 58,28.9 L60.2,27.6 C60.4,27.5 60.5,27.3 60.5,27.1 C60.5,27 60.5,26.9 60.4,26.9 C60.3,26.7 59.9,26.6 59.7,26.7 L57.5,28 C57.3,28.1 57.2,28.3 57.2,28.4 C57.2,28.5 57.2,28.6 57.3,28.7 C57.3,28.9 57.5,29 57.7,29 Z" id="Path" fill="#000000"></path>
                <path d="M51.6,32.9 C51.6,33 51.5,33.1 51.5,33.2 C51.5,33.4 51.6,33.5 51.8,33.6 C51.9,33.6 52,33.7 52.1,33.7 C52.3,33.7 52.4,33.6 52.5,33.4 L53.3,32 L54.5,34 C54.6,34.2 54.8,34.2 54.9,34.2 C55,34.2 55.1,34.2 55.2,34.1 C55.4,34 55.5,33.8 55.5,33.7 C55.5,33.6 55.5,33.5 55.4,33.4 L54.1,31.2 C54.1,31.2 54,31.1 54,31.1 L55.8,30.1 C56,30 56.1,29.8 56.1,29.7 C56.1,29.6 56.1,29.5 56,29.5 C55.9,29.3 55.5,29.2 55.3,29.3 L53,30.6 C53,30.6 53,30.6 53,30.6 C53,30.6 53,30.6 52.9,30.7 C52.9,30.7 52.8,30.8 52.8,30.8 C52.8,30.8 52.8,30.8 52.8,30.8 L51.6,32.9 Z" id="Path" fill="#000000"></path>
            </g>
        </g>
    </g>
</svg>