<?xml version="1.0" encoding="UTF-8"?>
<svg width="92px" height="69px" viewBox="0 0 92 69" version="1.1" xmlns="http://www.w3.org/2000/svg" xmlns:xlink="http://www.w3.org/1999/xlink">
    <!-- Generator: Sketch 52.6 (67491) - http://www.bohemiancoding.com/sketch -->
    <title>noun_Torus knot_531851</title>
    <desc>Created with Sketch.</desc>
    <g id="Page-1" stroke="none" stroke-width="1" fill="none" fill-rule="evenodd">
        <g id="noun_Torus-knot_531851" fill="#000000" fill-rule="nonzero">
            <path d="M91.94,29.5 C91.16,20 87.1,10.83 79.29,5.07 C71.72,-0.53 62,-1.23 53.27,1.69 C48.9830512,3.14633763 44.9382381,5.23615771 41.27,7.89 C39.2648668,9.3505182 37.3356841,10.9125554 35.49,12.57 C34.63,13.33 33.82,14.14 32.99,14.94 C32.68,15.24 32.37,15.54 32.08,15.85 C31.44,16.51 31.51,16.75 30.7,16.45 C26,14.69 21.61,11.95 17.23,9.56 C13.53,7.56 9.23,4.42 4.88,6.14 C2.82136886,6.98221496 1.22021895,8.66324406 0.479144588,10.7604081 C-0.261929774,12.8575721 -0.0724285251,15.1713632 1,17.12 C2.2552722,19.1018892 3.76103881,20.9135146 5.48,22.51 C6.92,24 8.37,25.56 9.92,27 C12.17,29.09 14.41,31.19 16.67,33.27 C17.13,33.7 18.11,34.27 18.14,34.76 C18.17,35.25 17.5,35.91 17.31,36.27 C16.97,36.91 16.65,37.57 16.31,38.21 C14.1631722,42.3224029 12.5469268,46.6906338 11.5,51.21 C10.5,55.63 10.5,60.49 13.22,64.33 C15.94,68.17 21.05,69.25 25.4,68.13 C29.92,66.96 33.88,64.27 37.59,61.53 C39.59,60.05 41.5,58.53 43.43,56.93 C44.32,56.2 45.24,55.48 46.12,54.73 C46.58,54.33 46.66,54.11 47.17,54.17 C47.8108759,54.3728048 48.425229,54.6514458 49,55 C57.29,58.5 67.09,60.53 75.78,57.22 C84.63,53.86 90.18,45.76 91.6,36.57 C91.9399301,34.2297026 92.0537885,31.8621169 91.94,29.5 Z M27.28,17.11 L29.87,18.23 C28.79,19.48 27.72,20.72 26.69,22 C22.57,18.3 18.63,14.54 14.79,10.56 C18.92,12.85 23.07,15 27.28,17.11 Z M10.89,25.21 C9.28,23.6 7.61,22 6.07,20.35 C4.53,18.7 2.46,16.71 2.07,14.3 C1.6982448,12.1062733 2.63005061,9.89567128 4.46,8.63 C6.46,7.17 8.97,7.51 11.12,8.54 C11.3238594,8.60392276 11.5138429,8.70569959 11.68,8.84 C11.87,9.09 11.63,9.6 11.82,10.05 C11.9569816,10.3001147 12.1249751,10.5319457 12.32,10.74 C12.89,11.43 13.58,12.06 14.21,12.74 C16.09,14.68 17.96,16.65 19.84,18.58 C23.1224801,21.820058 26.5917428,24.8652626 30.23,27.7 C34.3638393,31.099695 38.6802672,34.2710844 43.16,37.2 L36.22,43.41 C35.87,43.72 35.31,44.41 34.87,44.61 C34.43,44.81 34.8,44.76 34.25,44.54 C33.0025148,43.8581056 31.8323861,43.0433741 30.76,42.11 C26.11,38.73 21.65,35.11 17.36,31.26 C15.17,29.27 13.05,27.22 10.89,25.21 Z M28.89,49.4 C28.41,49.75 27.89,50.1 27.44,50.4 C28.2437992,48.2495984 29.1754617,46.1491835 30.23,44.11 C31.15,44.79 32.1,45.43 33.04,46.11 L28.89,49.4 Z M38.71,58.27 C35.8206508,60.5494526 32.7617945,62.6054051 29.56,64.42 C26.56,66 22.93,67.22 19.56,66.31 C11,64 12.54,53.67 14.64,47.37 C15.9980415,43.4116027 17.7151903,39.5856746 19.77,35.94 C22.09,37.94 24.46,39.8533333 26.88,41.68 C27.3879396,41.9514013 27.8585319,42.2875386 28.28,42.68 C28.58,43.11 28.53,42.75 28.28,43.36 C28.1585634,43.6406868 28.0216875,43.9144387 27.87,44.18 C27.17,45.63 26.51,47.09 25.87,48.58 C25.63,49.17 25.42,49.77 25.21,50.37 C25.0832391,50.9946134 24.8747806,51.5998156 24.59,52.17 C24.0249566,52.613808 23.3847931,52.9525189 22.7,53.17 C22.01,53.49 20.5,53.62 20.18,54.28 C19.62,55.47 20.95,55.83 21.82,55.64 C22.5155647,55.4301607 23.1861902,55.1451449 23.82,54.79 C25.0918312,54.176859 26.3153386,53.4681607 27.48,52.67 C32.39,49.41 36.77,45.4 41.2,41.54 C43.2,39.77 45.2,37.91 47.1,36.07 C49.0474512,34.3402396 50.8843968,32.4899344 52.6,30.53 C53.16,29.84 53.76,28.46 52.36,28.21 C51.43,28.04 50.78,29.59 50.25,30.21 C49.09,31.54 47.77,32.73 46.51,33.97 C45.94,34.53 46.01,34.56 45.25,34.42 C44.18,34.22 43.11,33.98 42.04,33.76 C40.62,33.46 39.44,32.26 38.27,31.43 C39.72,29.63 41.27,27.89 42.83,26.23 C43.64,25.39 44.49,24.57 45.35,23.78 C46.21,22.99 46.53,23.42 47.49,23.58 L54.98,24.88 C57.21,25.27 59.54,25.72 61.24,27.34 C64.66,30.63 63.24,35.17 60.48,38.34 C57.1903065,41.8526263 53.7188844,45.1905322 50.08,48.34 C46.43,51.77 42.62,55 38.69,58.27 L38.71,58.27 Z M76.96,33.77 C76.51,36.77 75.61,39.92 73.12,41.9 C70.6909373,43.6347885 67.6804488,44.3524259 64.73,43.9 C62.8605462,43.7006303 61.0150866,43.3188111 59.22,42.76 C62.38,39.61 65.97,36.02 65.42,31.16 C64.84,26.06 60.42,23.88 55.87,23.08 L48,21.65 C52.54,18.16 57.76,14.8 63.7,14.78 C69.64,14.76 73.85,19.26 75.76,24.5 C76.7966967,27.4735411 77.1953526,30.6321225 76.93,33.77 L76.96,33.77 Z M90,32.4 C89.66,39.75 87.14,46.92 81.37,51.76 C75.6,56.6 67.77,57.58 60.51,56.4 C56.361778,55.6605323 52.3277423,54.3830877 48.51,52.6 C51.15,50.22 53.87,47.9 56.45,45.46 C57.09,44.85 57.25,44.36 58.09,44.46 C58.93,44.56 59.71,44.94 60.52,45.14 C62.0282531,45.5288687 63.5673271,45.7864963 65.12,45.91 C68.2072345,46.2302227 71.3100207,45.4704288 73.9,43.76 C76.3182688,41.8639291 77.9697208,39.1576788 78.55,36.14 C79.9601794,29.6394382 78.3210532,22.8508773 74.1,17.71 C69.4,12.29 62.4,11.82 56,14.4 C49.83,16.91 44.59,21.48 40.12,26.32 C39.57,26.91 39.05,27.51 38.53,28.12 C38.28,28.42 37.22,30.12 36.8,30.21 C36.38,30.3 35.05,29 34.68,28.67 C34.31,28.34 33.86,28.04 33.46,27.67 L30.93,25.58 C30.0458466,25.0130686 29.2333106,24.3415513 28.51,23.58 C28.46,23.5 28.21,23.41 28.19,23.31 C28.17,23.21 28.95,22.31 29.09,22.19 C29.65,21.51 30.24,20.85 30.82,20.19 C35.1058063,15.1288488 40.1690007,10.7812525 45.82,7.31 C51.43,4 58,1.67 64.62,2 C71.2729717,2.30600032 77.528846,5.25396408 82,10.19 C86.3546424,15.1075651 89.0702998,21.258861 89.77,27.79 C89.9381296,29.3207371 90.0149322,30.8601297 90,32.4 Z" id="Shape"></path>
        </g>
    </g>
</svg>