<?xml version="1.0" encoding="UTF-8"?>
<svg width="92px" height="74px" viewBox="0 0 92 74" version="1.1" xmlns="http://www.w3.org/2000/svg" xmlns:xlink="http://www.w3.org/1999/xlink">
    <!-- Generator: Sketch 52.6 (67491) - http://www.bohemiancoding.com/sketch -->
    <title>Group</title>
    <desc>Created with Sketch.</desc>
    <g id="Page-1" stroke="none" stroke-width="1" fill="none" fill-rule="evenodd">
        <g id="noun_application_1295208" transform="translate(0.000000, -1.000000)" fill="#000000" fill-rule="nonzero">
            <g id="Group" transform="translate(0.000000, 0.637820)">
                <path d="M45.741312,0.38388 C45.6649432,0.406299586 45.5915238,0.437755464 45.522612,0.47758 L1.5226117,22.47758 C1.1880339,22.6484925 0.977470071,22.9925011 0.977470071,23.368205 C0.977470071,23.7439089 1.1880339,24.0879175 1.5226117,24.25883 L45.522612,46.2588 C45.7988049,46.3931605 46.1214191,46.3931605 46.397612,46.2588 L90.397612,24.25883 C90.7321898,24.0879175 90.9427536,23.7439089 90.9427536,23.368205 C90.9427536,22.9925011 90.7321898,22.6484925 90.397612,22.47758 L46.397612,0.47758 C46.1958613,0.372637199 45.9643691,0.339587046 45.741312,0.38388 Z M45.960112,2.47763 L87.741312,23.38388 L45.960112,44.2589 L4.1789117,23.38388 L45.960112,2.47763 Z M89.991312,36.3214 C89.8244744,36.333451 89.6633243,36.3871563 89.522612,36.4776 L45.960112,58.2589 L2.3976117,36.4776 C2.25400369,36.3981014 2.09303568,36.355172 1.9289117,36.3526 C1.46315574,36.3602826 1.06437745,36.6885035 0.967275872,37.1440898 C0.870174296,37.5996762 1.10046508,38.0619739 1.5226117,38.2589 L45.522612,60.2589 C45.7988049,60.3932605 46.1214191,60.3932605 46.397612,60.2589 L90.397612,38.2589 C90.8645341,38.0883536 91.1353235,37.6007546 91.0333005,37.1142429 C90.9312774,36.6277312 90.487413,36.2899974 89.991312,36.3214 Z M89.991312,50.3214 C89.8244655,50.3334811 89.6633147,50.387221 89.522612,50.4777 L45.960112,72.2589 L2.3976117,50.4777 C2.25400369,50.3982014 2.09303568,50.355272 1.9289117,50.3527 C1.46323873,50.3604776 1.06457452,50.6886702 0.967485045,51.1441759 C0.870395567,51.5996816 1.10058383,52.061912 1.5226117,52.2589 L45.522612,74.2589 C45.7988049,74.3932605 46.1214191,74.3932605 46.397612,74.2589 L90.397612,52.2589 C90.8645341,52.0883536 91.1353235,51.6007546 91.0333005,51.1142429 C90.9312774,50.6277312 90.487413,50.2899974 89.991312,50.3214 Z" id="Shape"></path>
            </g>
        </g>
    </g>
</svg>