<?xml version="1.0" encoding="UTF-8"?>
<svg width="96px" height="89px" viewBox="0 0 96 89" version="1.1" xmlns="http://www.w3.org/2000/svg" xmlns:xlink="http://www.w3.org/1999/xlink">
    <!-- Generator: Sketch 52.6 (67491) - http://www.bohemiancoding.com/sketch -->
    <title>noun_lego brick_847031</title>
    <desc>Created with Sketch.</desc>
    <g id="Page-1" stroke="none" stroke-width="1" fill="none" fill-rule="evenodd">
        <g id="noun_lego-brick_847031" fill="#000000" fill-rule="nonzero">
            <path d="M38.969,38.447 C38.969,38.448 38.969,38.449 38.969,38.45 L38.969,40.134 L38.969,40.149 L38.969,43.373 L38.969,45.014 C38.969,45.016 38.97,45.018 38.97,45.02 C38.97,45.052 38.983,45.083 38.99,45.115 C38.997,45.149 38.999,45.184 39.012,45.215 C39.013,45.217 39.013,45.219 39.013,45.221 L39.735,46.818 C39.74,46.829 39.752,46.834 39.757,46.843 C39.777,46.881 39.795,46.921 39.826,46.954 L41.182,48.397 C41.198,48.414 41.218,48.42 41.236,48.434 C41.254,48.449 41.266,48.468 41.286,48.481 L43.189,49.64 C43.201,49.647 43.214,49.644 43.227,49.651 C43.248,49.662 43.265,49.678 43.288,49.686 L45.65,50.496 C45.665,50.501 45.68,50.5 45.694,50.504 C45.705,50.506 45.714,50.514 45.725,50.516 L48.329,50.976 C48.358,50.982 48.387,50.984 48.415,50.984 C48.415,50.984 48.415,50.984 48.415,50.984 L51.105,50.984 C51.105,50.984 51.105,50.984 51.106,50.984 C51.133,50.984 51.163,50.982 51.192,50.976 L53.795,50.516 C53.806,50.514 53.814,50.507 53.825,50.504 C53.841,50.5 53.856,50.502 53.872,50.496 L56.212,49.686 C56.237,49.677 56.255,49.66 56.278,49.647 C56.29,49.641 56.303,49.644 56.315,49.636 L58.219,48.433 C58.238,48.421 58.249,48.402 58.266,48.388 C58.282,48.375 58.299,48.369 58.313,48.355 L59.67,46.933 C59.706,46.895 59.729,46.849 59.751,46.804 C59.755,46.796 59.765,46.792 59.768,46.783 L60.446,45.186 C60.454,45.169 60.452,45.151 60.458,45.133 C60.472,45.085 60.486,45.037 60.486,44.989 L60.486,40.091 C60.486,40.09 60.486,40.089 60.486,40.088 L60.486,38.428 C60.486,38.426 60.485,38.424 60.485,38.421 C60.484,38.389 60.472,38.356 60.465,38.323 C60.457,38.29 60.455,38.256 60.442,38.226 C60.441,38.224 60.442,38.221 60.44,38.219 L59.719,36.644 C59.705,36.617 59.684,36.597 59.667,36.574 C59.652,36.553 59.645,36.527 59.625,36.508 L58.27,35.086 C58.255,35.07 58.236,35.065 58.22,35.052 C58.203,35.038 58.194,35.02 58.174,35.008 L56.272,33.805 C56.254,33.794 56.235,33.793 56.217,33.784 C56.199,33.775 56.187,33.762 56.167,33.755 L53.827,32.946 C53.812,32.941 53.799,32.944 53.785,32.94 C53.769,32.936 53.758,32.927 53.742,32.924 L51.117,32.508 C51.104,32.506 51.092,32.511 51.079,32.51 C51.065,32.509 51.053,32.502 51.039,32.502 L48.35,32.502 C48.336,32.502 48.325,32.509 48.311,32.51 C48.295,32.512 48.28,32.506 48.263,32.51 L45.66,32.97 C45.647,32.972 45.637,32.981 45.624,32.985 C45.61,32.988 45.597,32.985 45.583,32.99 L43.242,33.8 C43.224,33.806 43.211,33.82 43.195,33.828 C43.178,33.835 43.161,33.836 43.146,33.846 L41.243,35.005 C41.223,35.017 41.212,35.036 41.195,35.05 C41.177,35.065 41.155,35.072 41.139,35.09 L39.805,36.512 C39.787,36.532 39.779,36.556 39.764,36.577 C39.747,36.602 39.724,36.623 39.711,36.652 L39.011,38.25 C39.011,38.251 39.011,38.253 39.01,38.254 C38.998,38.281 38.997,38.314 38.99,38.343 C38.982,38.377 38.97,38.412 38.969,38.447 Z M41.821,35.822 L43.619,34.726 L45.875,33.947 L48.392,33.503 L51,33.503 L53.546,33.906 L55.787,34.68 L57.592,35.821 L58.846,37.136 L59.488,38.536 L59.488,39.988 L58.884,41.43 L57.638,42.737 L55.838,43.833 L53.582,44.614 L51.064,45.058 L48.459,45.058 L45.93,44.654 L43.67,43.88 L41.865,42.739 L40.611,41.424 L39.969,40.025 L39.969,38.555 L40.593,37.13 L41.821,35.822 Z M57.635,47.618 L55.832,48.758 L53.581,49.537 L51.063,49.981 L48.459,49.981 L45.937,49.536 L43.665,48.757 L41.866,47.662 L40.612,46.327 L39.969,44.905 L39.969,43.372 L39.969,42.201 L41.185,43.475 C41.199,43.49 41.217,43.496 41.232,43.507 C41.249,43.522 41.26,43.54 41.279,43.553 L43.182,44.756 C43.194,44.764 43.208,44.761 43.221,44.767 C43.244,44.78 43.262,44.797 43.287,44.806 L45.649,45.616 C45.665,45.621 45.68,45.62 45.696,45.624 C45.709,45.627 45.719,45.636 45.732,45.638 L48.336,46.054 C48.362,46.058 48.389,46.06 48.415,46.06 L51.105,46.06 C51.105,46.06 51.105,46.06 51.106,46.06 C51.133,46.06 51.163,46.058 51.192,46.052 L53.795,45.592 C53.806,45.59 53.814,45.583 53.825,45.58 C53.841,45.576 53.856,45.578 53.872,45.572 L56.212,44.762 C56.235,44.754 56.252,44.738 56.273,44.726 C56.285,44.72 56.298,44.723 56.31,44.716 L58.212,43.557 C58.233,43.544 58.245,43.525 58.263,43.51 C58.28,43.497 58.299,43.49 58.314,43.475 L59.487,42.246 L59.487,44.889 L58.884,46.309 L57.635,47.618 Z" id="Shape"></path>
            <path d="M95.659,57.196 L95.659,27.797 C95.659,27.426 95.454,27.086 95.126,26.913 L45.011,0.444 C44.678,0.267 44.273,0.295 43.965,0.512 L0.762,31.203 C0.498,31.391 0.341,31.694 0.341,32.018 L0.341,61.461 C0.341,61.832 0.546,62.172 0.874,62.346 L51.012,88.815 C51.158,88.892 51.319,88.93 51.479,88.93 C51.683,88.93 51.886,88.868 52.059,88.744 L95.24,58.01 C95.502,57.823 95.659,57.52 95.659,57.196 Z M2.341,33.111 L50.979,58.767 L50.979,86.536 L2.341,60.859 L2.341,33.111 Z M20.821,20.693 L23.349,20.289 L25.933,20.248 L28.45,20.691 L30.722,21.47 L32.542,22.566 L33.774,23.898 L34.418,25.323 L34.418,26.751 L33.793,28.175 L32.561,29.508 L30.764,30.623 L28.511,31.402 L25.993,31.846 L23.386,31.846 L20.847,31.402 L18.618,30.624 L16.794,29.525 L15.565,28.215 L14.921,26.791 L14.921,25.36 L15.525,23.918 L16.773,22.609 L18.577,21.469 L20.821,20.693 Z M32.566,34.405 L30.764,35.503 L28.515,36.322 L25.994,36.724 L23.387,36.724 L20.84,36.322 L18.621,35.547 L16.793,34.404 L15.563,33.134 L14.921,31.713 L14.921,30.137 L14.921,28.991 L16.113,30.261 C16.128,30.277 16.148,30.283 16.164,30.297 C16.184,30.313 16.197,30.334 16.22,30.348 L18.145,31.507 C18.157,31.514 18.171,31.512 18.183,31.518 C18.202,31.528 18.217,31.543 18.238,31.55 L20.556,32.36 C20.572,32.366 20.587,32.364 20.603,32.368 C20.614,32.371 20.623,32.379 20.635,32.381 L23.26,32.84 C23.288,32.846 23.318,32.848 23.345,32.848 C23.345,32.848 23.345,32.848 23.345,32.848 L26.035,32.848 C26.035,32.848 26.035,32.848 26.035,32.848 C26.063,32.848 26.092,32.846 26.121,32.84 L28.725,32.381 C28.736,32.379 28.745,32.372 28.755,32.369 C28.771,32.365 28.786,32.366 28.802,32.361 L31.143,31.551 C31.167,31.543 31.185,31.526 31.206,31.514 C31.218,31.508 31.231,31.51 31.243,31.503 L33.146,30.321 C33.167,30.308 33.179,30.289 33.197,30.273 C33.214,30.259 33.235,30.252 33.25,30.236 L34.417,28.973 L34.417,31.672 L33.793,33.096 L32.566,34.405 Z M13.96,25.065 C13.936,25.123 13.926,25.183 13.924,25.243 C13.924,25.248 13.921,25.253 13.921,25.259 C13.921,25.26 13.921,25.261 13.921,25.262 L13.921,26.9 L13.921,30.138 L13.921,31.822 C13.921,31.824 13.922,31.826 13.922,31.828 C13.922,31.86 13.935,31.891 13.942,31.923 C13.949,31.957 13.951,31.992 13.964,32.023 C13.965,32.025 13.965,32.027 13.965,32.029 L14.687,33.627 C14.692,33.638 14.703,33.642 14.709,33.652 C14.73,33.692 14.75,33.734 14.784,33.768 L16.119,35.146 C16.133,35.161 16.152,35.167 16.167,35.179 C16.184,35.193 16.194,35.21 16.213,35.222 L18.138,36.425 C18.15,36.433 18.163,36.43 18.176,36.436 C18.197,36.448 18.215,36.464 18.238,36.473 L20.556,37.283 C20.573,37.289 20.589,37.287 20.605,37.292 C20.618,37.295 20.629,37.304 20.643,37.306 L23.268,37.721 C23.294,37.725 23.32,37.727 23.346,37.727 L26.036,37.727 C26.062,37.727 26.089,37.725 26.115,37.721 L28.719,37.306 C28.734,37.303 28.745,37.294 28.76,37.291 C28.778,37.286 28.795,37.287 28.812,37.281 L31.153,36.427 C31.174,36.419 31.188,36.404 31.207,36.394 C31.218,36.388 31.231,36.391 31.242,36.384 L33.145,35.225 C33.166,35.212 33.179,35.192 33.197,35.176 C33.214,35.162 33.234,35.155 33.249,35.14 L34.583,33.718 C34.615,33.684 34.633,33.643 34.654,33.604 C34.66,33.593 34.672,33.589 34.676,33.578 L35.376,31.981 C35.376,31.98 35.376,31.978 35.377,31.977 C35.389,31.95 35.39,31.917 35.397,31.888 C35.405,31.853 35.418,31.818 35.418,31.783 C35.418,31.782 35.418,31.781 35.418,31.78 L35.418,26.866 C35.418,26.865 35.418,26.865 35.418,26.865 L35.418,26.858 L35.418,25.217 C35.418,25.215 35.417,25.213 35.417,25.211 C35.417,25.179 35.404,25.148 35.397,25.116 C35.39,25.082 35.388,25.047 35.375,25.016 C35.374,25.014 35.374,25.012 35.374,25.01 L34.652,23.412 C34.641,23.389 34.622,23.372 34.608,23.351 C34.593,23.327 34.584,23.299 34.564,23.278 L33.229,21.835 C33.212,21.816 33.19,21.809 33.171,21.793 C33.152,21.778 33.14,21.759 33.119,21.746 L31.194,20.587 C31.177,20.577 31.159,20.576 31.142,20.568 C31.126,20.561 31.115,20.548 31.098,20.543 L28.736,19.733 C28.723,19.728 28.71,19.731 28.697,19.728 C28.684,19.724 28.675,19.716 28.661,19.713 L26.057,19.254 C26.043,19.251 26.03,19.256 26.016,19.254 C25.998,19.253 25.98,19.244 25.962,19.246 L23.293,19.289 C23.281,19.289 23.271,19.296 23.259,19.297 C23.246,19.298 23.235,19.293 23.222,19.295 L20.619,19.711 C20.603,19.714 20.592,19.723 20.577,19.727 C20.563,19.731 20.549,19.728 20.535,19.733 L20.194,19.851 L36.037,8.596 L35.553,9.701 C35.552,9.704 35.553,9.706 35.552,9.708 C35.54,9.736 35.539,9.769 35.532,9.799 C35.525,9.833 35.512,9.868 35.512,9.903 C35.512,9.906 35.511,9.908 35.511,9.91 L35.532,11.548 L35.532,11.551 L35.513,14.8 C35.513,14.802 35.514,14.803 35.514,14.805 C35.514,14.807 35.513,14.808 35.513,14.81 L35.534,16.47 L35.534,16.471 L35.534,16.473 C35.535,16.541 35.55,16.607 35.576,16.666 L36.275,18.282 C36.278,18.289 36.285,18.291 36.289,18.298 C36.312,18.347 36.338,18.395 36.378,18.435 L37.734,19.813 C37.748,19.827 37.766,19.833 37.78,19.844 C37.796,19.857 37.806,19.874 37.823,19.885 L39.726,21.088 C39.738,21.096 39.752,21.093 39.765,21.1 C39.788,21.112 39.806,21.129 39.831,21.138 L42.193,21.948 C42.209,21.954 42.224,21.952 42.24,21.956 C42.253,21.959 42.263,21.968 42.276,21.97 L44.879,22.386 C44.905,22.39 44.932,22.392 44.958,22.392 L47.649,22.392 C47.649,22.392 47.649,22.392 47.649,22.392 C47.677,22.392 47.706,22.39 47.735,22.384 L50.338,21.924 C50.35,21.922 50.359,21.914 50.37,21.911 C50.386,21.907 50.4,21.909 50.416,21.903 L52.734,21.094 C52.755,21.087 52.769,21.072 52.789,21.062 C52.802,21.056 52.816,21.059 52.828,21.051 L54.754,19.891 C54.776,19.877 54.791,19.856 54.811,19.838 C54.827,19.825 54.846,19.819 54.86,19.804 L56.194,18.382 C56.23,18.344 56.253,18.299 56.274,18.254 C56.278,18.245 56.288,18.242 56.291,18.233 L56.969,16.618 C56.994,16.557 57.009,16.492 57.009,16.422 L57.009,16.421 L57.009,16.42 L57.009,11.524 C57.009,11.523 57.009,11.523 57.009,11.522 L57.009,9.86 C57.009,9.859 57.009,9.858 57.009,9.857 C57.008,9.822 56.995,9.788 56.988,9.753 C56.981,9.723 56.98,9.691 56.968,9.663 C56.967,9.661 56.968,9.66 56.967,9.659 L56.603,8.83 L72.395,17.17 L69.94,17.17 C69.926,17.17 69.916,17.177 69.902,17.178 C69.888,17.179 69.875,17.174 69.861,17.176 L67.26,17.59 C67.242,17.593 67.229,17.604 67.211,17.608 C67.195,17.613 67.18,17.61 67.165,17.616 L64.846,18.47 C64.83,18.476 64.821,18.488 64.807,18.494 C64.792,18.501 64.777,18.501 64.762,18.51 L62.86,19.648 C62.839,19.66 62.827,19.679 62.809,19.694 C62.79,19.709 62.768,19.716 62.751,19.735 L61.412,21.16 C61.412,21.161 61.412,21.162 61.411,21.162 L61.395,21.179 C61.375,21.2 61.367,21.226 61.351,21.248 C61.334,21.274 61.312,21.295 61.299,21.325 L60.621,22.92 C60.602,22.962 60.599,23.009 60.593,23.055 C60.59,23.076 60.58,23.097 60.58,23.117 L60.58,24.758 L60.58,24.765 L60.58,24.766 L60.58,28.039 L60.58,29.68 C60.58,29.681 60.581,29.682 60.581,29.683 C60.581,29.718 60.594,29.752 60.602,29.787 C60.609,29.817 60.61,29.849 60.622,29.877 C60.623,29.879 60.623,29.88 60.623,29.881 L61.323,31.478 C61.328,31.489 61.34,31.494 61.345,31.503 C61.366,31.543 61.384,31.584 61.416,31.619 L62.772,33.063 C62.788,33.08 62.809,33.086 62.827,33.101 C62.847,33.117 62.86,33.138 62.882,33.151 L64.808,34.289 C64.819,34.296 64.832,34.293 64.844,34.299 C64.863,34.308 64.875,34.322 64.894,34.329 L67.236,35.16 C67.251,35.166 67.266,35.164 67.282,35.168 C67.295,35.172 67.303,35.18 67.316,35.182 L69.919,35.641 C69.948,35.647 69.977,35.649 70.006,35.649 C70.008,35.649 70.012,35.649 70.014,35.649 L72.727,35.605 C72.729,35.605 72.731,35.604 72.732,35.604 C72.753,35.604 72.776,35.602 72.797,35.599 L75.401,35.184 C75.417,35.182 75.427,35.172 75.441,35.169 C75.458,35.165 75.474,35.166 75.491,35.16 L77.831,34.329 C77.853,34.321 77.869,34.305 77.89,34.293 C77.904,34.287 77.917,34.29 77.929,34.282 L79.812,33.1 C79.832,33.087 79.843,33.068 79.861,33.053 C79.877,33.04 79.896,33.034 79.91,33.019 L81.266,31.576 C81.3,31.54 81.32,31.498 81.341,31.456 C81.345,31.447 81.356,31.443 81.36,31.434 L82.059,29.836 C82.059,29.835 82.059,29.834 82.06,29.834 C82.074,29.802 82.076,29.766 82.081,29.73 C82.088,29.699 82.1,29.668 82.101,29.638 C82.101,29.637 82.101,29.636 82.101,29.635 L82.101,24.764 C82.101,24.763 82.101,24.763 82.101,24.763 L82.101,24.757 C82.101,24.756 82.1,24.755 82.1,24.754 C82.1,24.752 82.101,24.751 82.101,24.75 L82.08,23.065 C82.079,23.001 82.066,22.934 82.038,22.871 L81.69,22.078 L93.252,28.184 L51.532,57.814 C51.525,57.732 51.507,57.649 51.457,57.575 C51.304,57.345 50.994,57.283 50.764,57.436 L50.692,57.484 L2.789,32.217 L14.428,23.948 L13.96,25.065 Z M54.182,19.067 L52.355,20.169 L50.128,20.945 L47.607,21.39 L45.001,21.39 L42.473,20.986 L40.213,20.212 L38.406,19.069 L37.156,17.799 L36.533,16.359 L36.512,14.798 L36.52,13.643 L37.726,14.926 C37.742,14.943 37.762,14.949 37.78,14.963 C37.798,14.978 37.81,14.997 37.83,15.01 L39.733,16.169 C39.745,16.176 39.758,16.173 39.771,16.18 C39.792,16.191 39.809,16.207 39.832,16.215 L42.194,17.025 C42.209,17.03 42.224,17.029 42.238,17.033 C42.249,17.035 42.258,17.043 42.269,17.045 L44.872,17.505 C44.901,17.511 44.93,17.513 44.958,17.513 C44.958,17.513 44.958,17.513 44.958,17.513 C44.96,17.513 44.963,17.513 44.966,17.513 L47.657,17.469 C47.658,17.469 47.66,17.468 47.661,17.468 C47.683,17.467 47.705,17.466 47.727,17.463 L50.33,17.047 C50.344,17.045 50.354,17.036 50.368,17.032 C50.384,17.028 50.4,17.03 50.416,17.024 L52.734,16.214 C52.758,16.206 52.775,16.189 52.796,16.177 C52.809,16.171 52.822,16.174 52.835,16.166 L54.759,14.963 C54.78,14.95 54.791,14.931 54.809,14.916 C54.826,14.902 54.845,14.896 54.859,14.881 L56.007,13.657 L56.007,16.32 L55.403,17.762 L54.182,19.067 Z M54.699,7.822 L55.387,8.543 L56.01,9.965 L56.01,11.42 L55.406,12.841 L54.177,14.151 L52.353,15.292 L50.134,16.065 L47.603,16.47 L44.996,16.512 L42.48,16.068 L40.208,15.289 L38.409,14.194 L37.158,12.862 L36.533,11.436 L36.514,10.006 L37.137,8.584 L38.367,7.273 L40.169,6.133 L42.418,5.357 L44.937,4.912 L47.564,4.912 L50.005,5.344 L54.699,7.822 Z M44.894,3.912 C44.879,3.912 44.867,3.919 44.852,3.921 C44.837,3.922 44.823,3.917 44.807,3.92 L42.204,4.38 C42.19,4.383 42.181,4.391 42.168,4.395 C42.154,4.398 42.141,4.395 42.128,4.4 L41.776,4.521 L44.621,2.5 L47.295,3.912 L44.894,3.912 Z M79.225,32.285 L77.44,33.405 L75.202,34.2 L72.673,34.603 L70.044,34.645 L67.53,34.202 L65.278,33.402 L63.453,32.324 L62.205,30.995 L61.581,29.572 L61.581,28.037 L61.581,26.87 L62.773,28.14 C62.789,28.157 62.81,28.164 62.828,28.178 C62.846,28.192 62.857,28.211 62.877,28.223 L64.801,29.404 C64.813,29.411 64.825,29.408 64.837,29.414 C64.858,29.425 64.873,29.441 64.895,29.449 L67.237,30.281 C67.255,30.288 67.273,30.286 67.292,30.291 C67.305,30.294 67.315,30.303 67.329,30.305 L69.933,30.699 C69.957,30.703 69.982,30.705 70.007,30.705 L72.72,30.705 C72.747,30.705 72.775,30.703 72.803,30.698 L75.407,30.26 C75.421,30.258 75.43,30.249 75.444,30.245 C75.46,30.241 75.475,30.243 75.492,30.237 L77.832,29.406 C77.854,29.398 77.87,29.382 77.891,29.37 C77.905,29.364 77.918,29.367 77.93,29.359 L79.813,28.177 C79.832,28.165 79.842,28.147 79.859,28.133 C79.874,28.12 79.892,28.115 79.906,28.101 L81.102,26.866 L81.102,29.53 L80.48,30.952 L79.225,32.285 Z M79.799,21.079 L80.455,21.757 L81.079,23.18 L81.098,24.655 L80.479,26.07 L79.229,27.361 L77.44,28.484 L75.2,29.28 L72.678,29.704 L70.043,29.704 L67.525,29.323 L65.28,28.525 L63.459,27.408 L62.206,26.074 L61.582,24.651 L61.582,23.217 L62.186,21.795 L63.432,20.468 L65.235,19.391 L67.462,18.572 L69.983,18.17 L72.612,18.17 L75.014,18.553 L79.799,21.079 Z M51.979,58.724 L93.659,29.12 L93.659,56.681 L51.979,86.348 L51.979,58.724 Z" id="Shape"></path>
        </g>
    </g>
</svg>