<?xml version="1.0" encoding="UTF-8"?>
<svg width="60px" height="60px" viewBox="0 0 60 60" version="1.1" xmlns="http://www.w3.org/2000/svg" xmlns:xlink="http://www.w3.org/1999/xlink">
    <!-- Generator: Sketch 52.6 (67491) - http://www.bohemiancoding.com/sketch -->
    <title>noun_Network_219761</title>
    <desc>Created with Sketch.</desc>
    <g id="Page-1" stroke="none" stroke-width="1" fill="none" fill-rule="evenodd">
        <g id="noun_Network_219761" fill="#000000" fill-rule="nonzero">
            <path d="M54.9952774,25.4960899 C52.6844673,25.4960899 50.7669563,27.2562942 50.5112801,29.5079269 L50.5112801,29.5081672 L37.5509529,29.5081672 L37.5509529,29.5079269 C37.4428024,27.7870922 36.7643013,26.2335891 35.6826553,25.0140266 C35.682476,25.0137863 35.6821785,25.0135459 35.6819954,25.0133056 L38.3562126,22.3386669 C38.356575,22.3391476 38.3569336,22.3393879 38.357296,22.3396282 C39.1537933,22.9786987 40.1371269,23.3325634 41.1696129,23.3325634 C42.3693123,23.3325634 43.5001106,22.8605843 44.3556633,22.0150509 C46.1059647,20.2548466 46.1059647,17.4032765 44.3556633,15.6430702 C43.5001106,14.7972984 42.3693123,14.3253174 41.1696129,14.3253174 C39.9699745,14.3253174 38.839119,14.7972984 37.9836235,15.6430702 C36.3513145,17.28516 36.2431641,19.871212 37.6591682,21.6412601 C37.6597061,21.6419792 37.6604881,21.6427001 37.661026,21.6434211 L34.9866905,24.3180579 C34.9858475,24.3173388 34.9853096,24.3166179 34.9844703,24.3158969 C33.7651443,23.2343749 32.21146,22.5556926 30.4906272,22.4476604 L30.4906272,9.4873943 C32.7425002,9.231718 34.5026435,7.3140258 34.5026435,5.0033364 C34.5026435,2.5154745 32.486824,0.4995932 29.9989604,0.4995932 C27.5209426,0.4995932 25.4952773,2.5154747 25.4952773,5.0033364 C25.4952773,7.3140258 27.2554835,9.231718 29.5072955,9.4873943 L29.5072955,22.4476604 C27.7766188,22.5556926 26.2131518,23.2442188 25.0036105,24.3158969 L22.3388156,21.651102 C22.9779471,20.8545455 23.331993,19.8616084 23.331993,18.8290614 C23.331993,17.629423 22.8599509,16.4984454 22.0142993,15.6430701 C21.1588038,14.7972983 20.0279464,14.3253173 18.8283099,14.3253173 C17.6286105,14.3253173 16.4978141,14.7972983 15.6423186,15.6430701 C13.8919562,17.4032763 13.8919562,20.2548465 15.6423186,22.0150508 C16.4978141,22.8605842 17.6286105,23.3325633 18.8283099,23.3325633 C19.8607978,23.3325633 20.8539733,22.9786986 21.6504706,22.3396281 L24.3153266,25.004423 C23.2434653,26.2139033 22.5551204,27.7772501 22.446968,29.5079268 L9.4866428,29.5079268 C9.2309665,27.2562941 7.3134541,25.4960898 5.002645,25.4960898 C2.5246258,25.4960898 0.4989614,27.5117301 0.4989614,29.9995936 C0.4989614,32.4874533 2.5246257,34.5033377 5.002645,34.5033377 C7.3134541,34.5033377 9.2309666,32.7431296 9.4866428,30.4912604 L22.446968,30.4912604 C22.5551204,32.2219351 23.2434062,33.7855223 24.3152656,34.9950026 L21.6505317,37.6597975 L21.6504707,37.6597975 C20.8539734,37.0207289 19.8607978,36.666622 18.82831,36.666622 C17.6286106,36.666622 16.4978142,37.138603 15.6423187,37.9843748 C13.8919563,39.7445791 13.8919563,42.5961492 15.6423187,44.3563574 C16.4978142,45.2021292 17.6286106,45.6741102 18.82831,45.6741102 C20.0279465,45.6741102 21.1588039,45.2021292 22.0142994,44.3563574 C22.859951,43.5009802 23.3319931,42.3700026 23.3319931,41.1703642 C23.3319931,40.1378172 22.9779472,39.1446417 22.3388157,38.3480833 L25.0036106,35.6832884 C26.2131519,36.7552069 27.7766189,37.4434927 29.5072956,37.5515249 L29.5072956,50.5120313 C27.2554836,50.7677076 25.4952774,52.6851613 25.4952774,54.9960897 C25.4952774,57.483711 27.5209427,59.4995916 29.9989605,59.4995916 C32.486824,59.4995916 34.5026436,57.483711 34.5026436,54.9960897 C34.5026436,52.6851614 32.7425003,50.7677076 30.4906273,50.5120313 L30.4906273,37.5515251 C32.2213059,37.4434929 33.784832,36.755207 34.9943123,35.6832886 L37.6591683,38.3480835 C36.2431641,40.1181297 36.3513146,42.7140274 37.9836236,44.3563576 C38.8391191,45.2021294 39.9699746,45.6741104 41.169613,45.6741104 C42.3693124,45.6741104 43.5001107,45.2021294 44.3556634,44.3563576 C46.1059648,42.5961495 46.1059648,39.7445793 44.3556634,37.984375 C43.5001107,37.1386032 42.3693124,36.6666222 41.169613,36.6666222 C40.137127,36.6666222 39.1439477,37.0207291 38.3474504,37.6597977 L35.6826555,34.9950028 C36.7543985,33.7855225 37.4426233,32.2221757 37.5508959,30.491499 L50.5113413,30.491499 C50.7671358,32.7433701 52.6845286,34.5033379 54.9952776,34.5033379 C57.4831392,34.5033379 59.4989626,32.4874535 59.4989626,29.9995938 C59.4989624,27.5117302 57.483139,25.4960899 54.9952774,25.4960899 Z M41.1696129,15.308651 C42.113636,15.308651 42.9986611,15.6723595 43.6574745,16.341198 C45.0341682,17.7177697 45.0341682,19.949955 43.6574745,21.3169232 C42.329998,22.6442795 40.0092888,22.6442795 38.6818123,21.3169232 C37.3051224,19.949955 37.3051224,17.7177697 38.6818123,16.341198 C39.3504715,15.6723595 40.2354965,15.308651 41.1696129,15.308651 Z M16.3404465,21.3169231 C14.9638167,19.9499549 14.9638167,17.7177696 16.3404465,16.3411979 C17.0091667,15.6723594 17.8842869,15.3086509 18.82831,15.3086509 C19.7723312,15.3086509 20.6572952,15.6723594 21.3161106,16.3411979 C21.9848308,17.009798 22.3486595,17.884859 22.3486595,18.8290614 C22.3486595,19.6056918 22.1028251,20.3431929 21.6406288,20.9529742 C21.5423183,21.0806922 21.4341659,21.1988086 21.3161106,21.316923 C21.1981163,21.4347971 21.0801201,21.5430697 20.9424991,21.6314162 C19.5952778,22.6344357 17.5499878,22.5264034 16.3404465,21.3169231 Z M16.3404465,43.658226 C14.9638167,42.2912598 14.9638167,40.0492325 16.3404465,38.6825027 C17.0091667,38.0139045 17.8842869,37.6499557 18.82831,37.6499557 C19.6051216,37.6499557 20.3426208,37.8957901 20.9522819,38.3579254 C21.08012,38.456356 21.1981163,38.5646286 21.3161106,38.6825027 C21.4341659,38.8003768 21.5423183,38.9283371 21.630785,39.0562934 C22.1028252,39.6658362 22.3486595,40.3934936 22.3486595,41.1703643 C22.3486595,42.1143264 21.9848308,42.9896278 21.3161106,43.6582259 C19.988636,44.9855843 17.6679821,44.9855843 16.3404465,43.658226 Z M41.1696129,37.6499557 C42.113636,37.6499557 42.9986611,38.0139045 43.6574745,38.6825027 C45.0341682,40.0492324 45.0341682,42.2912597 43.6574745,43.658226 C42.329998,44.9855842 40.0092888,44.9855842 38.6818123,43.658226 C37.4231148,42.4093742 37.3149643,40.4230232 38.357296,39.0462112 C38.4556656,38.9184951 38.5638161,38.8003768 38.6818123,38.6825027 C38.7998085,38.5646286 38.9276467,38.456356 39.0554848,38.3677711 C39.6651459,37.8957901 40.4026451,37.6499557 41.1696129,37.6499557 Z M54.9952774,33.5200043 C53.0581398,33.5200043 51.474987,31.9367314 51.474987,29.9995938 C51.474987,28.0624562 53.0581398,26.4794236 54.9952774,26.4794236 C56.942318,26.4794236 58.5156288,28.0624562 58.5156288,29.9995938 C58.5156288,31.9367314 56.942318,33.5200043 54.9952774,33.5200043 Z M30.4906273,36.5681915 C30.3234787,36.5782737 30.166111,36.5878792 29.9989605,36.5878792 C29.8318119,36.5878792 29.6744442,36.5782738 29.5072956,36.5681915 C28.051981,36.4601593 26.7342873,35.880146 25.7017994,34.9851608 C25.455967,34.7786979 25.2199764,34.5427093 25.0134544,34.296875 C24.1088047,33.264328 23.538454,31.9367313 23.4303016,30.4912605 C23.4204597,30.3241691 23.4106159,30.1669235 23.4106159,29.9995937 C23.4106159,29.8325023 23.4204597,29.6752567 23.4303016,29.5079269 C23.538454,28.0624561 24.1088046,26.7348594 25.0134544,25.7025508 C25.2199764,25.4567184 25.4559669,25.2207278 25.7017994,25.0140266 C26.7342873,24.1192798 28.051981,23.5390262 29.5072956,23.430994 C29.6744442,23.4211502 29.8318119,23.4113083 29.9989605,23.4113083 C30.166111,23.4113083 30.3234787,23.4211502 30.4906273,23.430994 C33.9028244,23.6768264 36.587307,26.5283985 36.587307,29.9995937 C36.587307,31.6419239 35.9874878,33.1462135 34.9844704,34.296875 C34.7779465,34.5427094 34.5419579,34.778698 34.2961235,34.9851608 C33.2636337,35.8897514 31.9361591,36.4601593 30.4906273,36.5681915 Z M29.9989605,1.4829265 C31.9361591,1.4829265 33.51931,3.0661988 33.51931,5.0033366 C33.51931,6.9404744 31.9361591,8.5237467 29.9989605,8.5237467 C28.0618229,8.5237467 26.478611,6.9404747 26.478611,5.0033366 C26.478611,3.0661985 28.0618229,1.4829265 29.9989605,1.4829265 Z M8.522995,29.9995937 C8.522995,30.1669235 8.5131521,30.334013 8.4836235,30.4912605 C8.247633,32.192646 6.7726331,33.5200043 5.002645,33.5200043 C3.0654471,33.5200043 1.4822948,31.9367314 1.4822948,29.9995938 C1.4822948,28.0624562 3.0654471,26.4794236 5.002645,26.4794236 C6.7726331,26.4794236 8.247633,27.8067799 8.4836235,29.507927 C8.5131521,29.6654129 8.522995,29.8325024 8.522995,29.9995937 Z M29.9989605,58.5162582 C28.0618229,58.5162582 26.478611,56.9332275 26.478611,54.9960899 C26.478611,53.2260399 27.8061466,51.7510414 29.5072956,51.5150528 C29.6646614,51.4855232 29.8318119,51.4756813 29.9989605,51.4756813 C30.166111,51.4756813 30.3333206,51.4855232 30.4906273,51.5150528 C32.1917763,51.7510414 33.51931,53.2260399 33.51931,54.9960899 C33.51931,56.9332275 31.9361591,58.5162582 29.9989605,58.5162582 Z" id="Shape"></path>
        </g>
    </g>
</svg>