<?xml version="1.0" encoding="UTF-8"?>
<svg width="88px" height="78px" viewBox="0 0 88 78" version="1.1" xmlns="http://www.w3.org/2000/svg" xmlns:xlink="http://www.w3.org/1999/xlink">
    <!-- Generator: Sketch 52.6 (67491) - http://www.bohemiancoding.com/sketch -->
    <title>Shape</title>
    <desc>Created with Sketch.</desc>
    <g id="Page-1" stroke="none" stroke-width="1" fill="none" fill-rule="evenodd">
        <g id="noun_polygon_2596326" fill="#000000" fill-rule="nonzero">
            <path d="M66.3,1.3 L65.9,0.5 L22.2,0.5 L0.3,39 L22.1,77.5 L65.8,77.5 L87.7,39 L66.3,1.3 Z M27.3,14.3 L3.9,36.7 L22.5,3.9 L27.3,14.3 Z M64.7,3.8 L71.1,39.5 L30.9,14.8 L64.7,3.8 Z M29.5,16.3 L70.5,41.5 L29.5,64.8 L29.5,16.3 Z M71,43.5 L63.8,74.3 L31.2,66.2 L71,43.5 Z M27.5,64 L3.9,39.5 L27.5,16.8 L27.5,64 Z M27.2,66.6 L22.6,74.3 L5.5,44.1 L27.2,66.6 Z M29,67.6 L60.4,75.5 L24.2,75.5 L29,67.6 Z M73.3,42.3 L84.9,39.8 L66.1,73 L73.3,42.3 Z M84.7,37.9 L73.3,40.4 L67.4,7.3 L84.7,37.9 Z M29,13.3 L24,2.5 L62.2,2.5 L29,13.3 Z" id="Shape"></path>
        </g>
    </g>
</svg>