<?xml version="1.0" encoding="UTF-8"?>
<svg width="90px" height="80px" viewBox="0 0 90 80" version="1.1" xmlns="http://www.w3.org/2000/svg" xmlns:xlink="http://www.w3.org/1999/xlink">
    <!-- Generator: Sketch 52.6 (67491) - http://www.bohemiancoding.com/sketch -->
    <title>noun_Pyramid Transparent_106331</title>
    <desc>Created with Sketch.</desc>
    <g id="Page-1" stroke="none" stroke-width="1" fill="none" fill-rule="evenodd">
        <g id="noun_Pyramid-Transparent_106331" fill="#000000">
            <g id="Group">
                <path d="M89.761,52.064 L45.739,1.232 C45.718,1.208 45.691,1.194 45.669,1.173 C45.632,1.138 45.596,1.104 45.553,1.074 C45.511,1.045 45.467,1.022 45.421,1 C45.393,0.987 45.37,0.966 45.341,0.955 C45.324,0.949 45.307,0.95 45.29,0.945 C45.24,0.929 45.189,0.921 45.137,0.914 C45.092,0.908 45.048,0.901 45.002,0.901 C44.951,0.901 44.9,0.908 44.849,0.916 C44.802,0.923 44.756,0.931 44.711,0.945 C44.693,0.951 44.675,0.95 44.657,0.956 C44.626,0.967 44.602,0.989 44.573,1.003 C44.529,1.024 44.487,1.046 44.446,1.074 C44.403,1.104 44.365,1.138 44.328,1.174 C44.306,1.195 44.279,1.209 44.259,1.233 L0.239,52.064 C0.048,52.285 -0.035,52.579 0.014,52.867 C0.063,53.155 0.237,53.406 0.49,53.552 L44.512,78.968 C44.663,79.055 44.832,79.1 45.001,79.1 C45.17,79.1 45.339,79.057 45.49,78.968 L89.511,53.552 C89.766,53.406 89.94,53.156 89.989,52.867 C90.035,52.579 89.952,52.285 89.761,52.064 Z M3.932,50.788 L4.39,51.582 L6.386,50.43 L5.652,49.159 L5.032,49.515 L44.021,4.495 L44.021,27.005 L43.583,27.258 L44.021,28.016 L44.021,76.425 L2.493,52.45 L3.932,50.788 Z M45.979,76.426 L45.979,28.017 L46.417,27.259 L45.979,27.006 L45.979,4.496 L84.966,49.516 L84.348,49.159 L83.615,50.43 L85.61,51.582 L86.067,50.788 L87.506,52.45 L45.979,76.426 Z" id="Shape" fill-rule="nonzero"></path>
                <rect id="Rectangle" transform="translate(32.969112, 34.231948) rotate(-120.013517) translate(-32.969112, -34.231948) " x="32.235618" y="33.0794576" width="1.46698742" height="2.30498023"></rect>
                <rect id="Rectangle" transform="translate(28.978376, 36.536859) rotate(-120.013517) translate(-28.978376, -36.536859) " x="28.2448818" y="35.3843692" width="1.46698742" height="2.30498023"></rect>
                <rect id="Rectangle" transform="translate(40.954326, 29.621218) rotate(-119.992901) translate(-40.954326, -29.621218) " x="40.2208156" y="28.4687012" width="1.46702143" height="2.30503368"></rect>
                <rect id="Rectangle" transform="translate(24.985225, 38.844786) rotate(-120.021344) translate(-24.985225, -38.844786) " x="24.2517579" y="37.6923379" width="1.46693379" height="2.30489596"></rect>
                <rect id="Rectangle" transform="translate(36.961788, 31.926520) rotate(-119.992901) translate(-36.961788, -31.926520) " x="36.2282769" y="30.7740029" width="1.46702143" height="2.30503368"></rect>
                <rect id="Rectangle" transform="translate(13.011005, 45.755579) rotate(-120.031265) translate(-13.011005, -45.755579) " x="12.2779645" y="44.6030152" width="1.46608055" height="2.30512664"></rect>
                <rect id="Rectangle" transform="translate(9.010076, 48.064180) rotate(-119.975149) translate(-9.010076, -48.064180) " x="8.27611185" y="46.9117363" width="1.46792851" height="2.30488774"></rect>
                <rect id="Rectangle" transform="translate(16.999676, 43.452161) rotate(-119.992901) translate(-16.999676, -43.452161) " x="16.2656655" y="42.2996446" width="1.46802145" height="2.30503368"></rect>
                <rect id="Rectangle" transform="translate(20.990120, 41.144428) rotate(-120.005690) translate(-20.990120, -41.144428) " x="20.2565995" y="39.9918961" width="1.46704108" height="2.30506455"></rect>
                <rect id="Rectangle" transform="translate(80.982201, 48.068929) rotate(-149.999272) translate(-80.982201, -48.068929) " x="79.8297264" y="47.3354451" width="2.30494929" height="1.46696773"></rect>
                <rect id="Rectangle" transform="translate(69.005317, 41.151951) rotate(-149.999272) translate(-69.005317, -41.151951) " x="67.8528424" y="40.4184671" width="2.30494929" height="1.46696773"></rect>
                <rect id="Rectangle" transform="translate(72.998426, 43.458445) rotate(-149.960907) translate(-72.998426, -43.458445) " x="71.8454051" y="42.7249316" width="2.30604249" height="1.46702703"></rect>
                <rect id="Rectangle" transform="translate(76.977879, 45.758206) rotate(-149.981522) translate(-76.977879, -45.758206) " x="75.8253315" y="45.0251759" width="2.30509554" height="1.46606076"></rect>
                <rect id="Rectangle" transform="translate(65.003440, 38.847414) rotate(-149.994310) translate(-65.003440, -38.847414) " x="63.8509075" y="38.1138937" width="2.30506455" height="1.46704108"></rect>
                <rect id="Rectangle" transform="translate(49.042309, 29.625467) rotate(-149.999272) translate(-49.042309, -29.625467) " x="47.8898344" y="28.8919831" width="2.30494929" height="1.46696773"></rect>
                <rect id="Rectangle" transform="translate(53.028064, 31.930434) rotate(-149.994310) translate(-53.028064, -31.930434) " x="51.8755318" y="31.1969133" width="2.30506455" height="1.46704108"></rect>
                <rect id="Rectangle" transform="translate(57.027399, 34.236007) rotate(-149.999272) translate(-57.027399, -34.236007) " x="55.8749244" y="33.5025231" width="2.30494929" height="1.46696773"></rect>
                <rect id="Rectangle" transform="translate(61.019493, 36.537709) rotate(-149.999272) translate(-61.019493, -36.537709) " x="59.8670184" y="35.8042251" width="2.30494929" height="1.46696773"></rect>
            </g>
        </g>
    </g>
</svg>