<?xml version="1.0" encoding="UTF-8"?>
<svg width="96px" height="89px" viewBox="0 0 96 89" version="1.1" xmlns="http://www.w3.org/2000/svg" xmlns:xlink="http://www.w3.org/1999/xlink">
    <!-- Generator: Sketch 52.6 (67491) - http://www.bohemiancoding.com/sketch -->
    <title>noun_Shipping_1185967</title>
    <desc>Created with Sketch.</desc>
    <g id="Page-1" stroke="none" stroke-width="1" fill="none" fill-rule="evenodd">
        <g id="noun_Shipping_1185967" fill="#000000">
            <g id="Group">
                <path d="M95.0869141,68.3046875 C95.0882569,68.2681274 95.0783692,68.2333984 95.0776368,68.1971436 L95.0781251,68.1806641 C95.0783692,68.1727295 95.0742189,68.1660767 95.0742189,68.1582032 C95.0499269,67.6015015 94.7868654,67.0822144 94.3310548,66.7529298 L93.5991212,66.2227174 C93.4797364,64.7622071 92.6069337,62.9808351 91.6591798,61.2558595 L91.053711,60.154297 C90.4023438,58.9687501 89.9765626,57.6865236 89.7890626,56.3437501 L88.265625,45.4155273 C88.0263672,43.696289 87.0380859,42.1938476 85.5546875,41.2924804 L72.5361328,33.38031 L72.5361328,28.6547851 C72.5361328,28.6527099 72.5354004,28.6508789 72.5354004,28.6488037 C72.5354004,28.6465454 72.5361328,28.6443481 72.5361328,28.6420898 C72.5354004,28.5925293 72.5229492,28.5457153 72.5151367,28.4976196 C72.5091553,28.4607544 72.5089111,28.4224853 72.4990234,28.3868408 C72.4871826,28.3446655 72.4655761,28.3067016 72.4484863,28.2666015 C72.4316406,28.2268676 72.4194336,28.1849365 72.397583,28.1477661 C72.3822021,28.121582 72.3596191,28.1004639 72.3417969,28.0758057 C72.2607422,27.9629517 72.161377,27.8630371 72.0374756,27.7910767 C72.0349121,27.7895508 72.032959,27.7871705 72.0302735,27.7856446 L72.0302735,27.7855836 C72.0295411,27.7851564 72.0290528,27.784546 72.0283204,27.7841798 C72.027588,27.7838136 72.0268556,27.7836915 72.0261231,27.7833253 L38.7988281,8.8745117 C38.484375,8.6958008 38.0976562,8.699707 37.7880859,8.8876953 L15.1223145,22.5755615 C15.1223145,22.5756225 15.1220704,22.5756225 15.1220704,22.5756836 C15.1219483,22.5757446 15.1219483,22.5758057 15.1218263,22.5758667 L15.1083986,22.5839844 C15.0742189,22.6046753 15.0473634,22.6333618 15.0163576,22.6575928 C14.9801027,22.685791 14.9409181,22.7106324 14.9093019,22.7431031 C14.8792726,22.7739869 14.857422,22.8107911 14.8317873,22.8450318 C14.8059084,22.8795167 14.7763674,22.9110718 14.7551271,22.9485474 C14.7308351,22.9915162 14.7165529,23.0391236 14.6987306,23.0853272 C14.6857911,23.1192627 14.6679689,23.150879 14.6586915,23.1861573 C14.645752,23.2349244 14.6440431,23.2864381 14.638672,23.3372193 C14.6350098,23.3721924 14.625,23.4057617 14.625,23.4414062 L14.625,23.4530029 C14.625,23.4530639 14.625,23.4530639 14.625,23.453125 C14.625,23.4531861 14.625,23.453186 14.625,23.4532471 L14.6630859,53.2148438 C14.6630859,53.5751954 14.8574218,53.9072266 15.1708984,54.0839844 L19.1892089,56.3566284 C18.9431151,57.0216064 18.8116454,57.7768555 18.8095702,58.6210937 C18.798828,62.5458984 21.4648436,67.1640625 24.8779296,69.133789 C25.9199218,69.7353515 26.9433593,70.0390624 27.8876952,70.0390624 C28.5917968,70.0390624 29.251953,69.8701171 29.8417968,69.5302733 C29.8446044,69.5286864 29.8469238,69.5264281 29.8497314,69.5248412 C29.8515625,69.5238036 29.8536376,69.5235595 29.8554687,69.5224608 L33.3574218,67.4873046 C34.1759032,67.0115356 34.8876952,66.4902343 35.2421874,65.4361571 L48.3945312,72.875 C48.3962402,72.8759766 48.3981933,72.8762817 48.4000244,72.8772583 C48.4023437,72.87854 48.4039306,72.8805542 48.40625,72.8818359 L52.2553711,74.989685 C52.1823731,75.4144287 52.1369629,75.8604736 52.1357422,76.336914 C52.1230469,80.6064452 55.022461,85.6308593 58.7373047,87.7753906 C59.8642578,88.4257812 60.96875,88.7539062 61.9863281,88.7539062 C62.7421875,88.7539062 63.4492187,88.5722656 64.0810547,88.2089843 C64.0845947,88.2069701 64.0875244,88.2041625 64.0910645,88.2021484 C64.0925293,88.2012939 64.0942383,88.2010498 64.0957032,88.2001953 L64.0966798,88.2001953 C64.0976564,88.1992187 64.0986329,88.1992187 64.100586,88.1982422 L66.9562989,86.5382691 C67.003418,86.6063843 67.0427247,86.6799927 67.1064454,86.7353516 L67.9785157,87.491211 C68.0341798,87.5390626 68.0937501,87.5800782 68.1582032,87.6152344 C68.732422,87.9257813 69.3681641,88.0800782 70.0039063,88.0800782 C70.7021485,88.0800782 71.3994141,87.8935548 72.0136719,87.522461 L93.5664063,74.4316407 C94.881836,73.6357423 94.9843751,71.8173829 94.9843751,71.3095704 L95.0715333,68.3989259 C95.0744629,68.3669434 95.0856934,68.3370361 95.0869141,68.3046875 Z M89.90625,62.21875 C90.4199219,63.1533203 91.6230469,65.3417969 91.6230469,66.5527344 C91.6230469,66.6845703 91.6517334,66.8090821 91.6979981,66.9242554 C91.7324219,67.1873169 91.8657227,67.4364014 92.0976563,67.6044922 L92.9550782,68.225586 L71.0463867,81.8674927 L70.9951172,79.3427735 C70.9951172,77.9707032 70.2363281,76.7392579 69.5673828,75.6523438 C69.3876953,75.359375 69.2109375,75.0732422 69.0585937,74.7958985 L68.4531249,73.694336 C68.0068358,72.8820801 67.6749267,72.0218506 67.44458,71.1304322 L88.2875976,58.7194825 C88.5463867,59.5474854 88.8797607,60.350586 89.3007812,61.1171876 L89.90625,62.21875 Z M63.9840088,61.3794556 L64.9488526,68.3001099 L56.84375,63.8134766 L56.84375,57.4472657 L63.9840088,61.3794556 Z M87.8181152,56.6708374 L67.0688477,69.0259399 L65.9875489,61.269165 L86.6772462,48.5037841 L87.8085939,56.6191405 C87.8110352,56.6365967 87.8156738,56.6534424 87.8181152,56.6708374 Z M86.2851562,45.6918945 L86.3754882,46.340393 L65.6859131,59.1057739 L65.6650391,58.9560547 C65.4257813,57.2363281 64.4365235,55.7333985 62.9541016,54.8330078 L51.0285645,47.5846557 L71.3884278,35.0231933 L84.5156251,43.0014648 C85.4833984,43.5898438 86.1289062,44.5703125 86.2851562,45.6918945 Z M70.5361328,30.4255981 L70.5361328,33.1986084 L49.8439941,45.9660034 L49.8388671,42.9038086 L52.0124511,41.5933228 L70.5361328,30.4255981 Z M38.3193359,10.902832 L69.5576171,28.6796875 L68.1501464,29.5282593 L48.822998,41.180481 L17.6015625,23.4140625 L38.3193359,10.902832 Z M25.8779297,67.4013672 C23.1220703,65.8115234 20.8007813,61.7929688 20.8095703,58.6269531 C20.8106689,58.1605224 20.8684082,57.7387085 20.9680176,57.3627929 L29.3233643,62.0885009 C29.8247071,63.298828 29.984375,64.0169677 29.9814454,65.071289 C29.9804688,65.4048462 29.9544678,65.71521 29.9050293,66 C29.875,66.1717529 29.8200684,66.3148193 29.7731934,66.4672241 C29.7424317,66.5676269 29.7242432,66.6829834 29.6861573,66.7745361 C29.6353761,66.8966064 29.5620118,66.9884643 29.4987794,67.0941772 C29.4423829,67.1884155 29.397339,67.2980346 29.3311769,67.378601 C29.2788087,67.4425048 29.2089845,67.4794921 29.1506349,67.5345458 C29.0517579,67.6275634 28.9592287,67.7305297 28.8437501,67.7968749 C28.1181641,68.2148438 27.0380859,68.0703125 25.8779297,67.4013672 Z M32.3515625,65.7587891 L31.9248047,66.006836 C31.9277344,65.9827881 31.9266358,65.9559937 31.9294434,65.9317628 C31.9604493,65.6565553 31.9805909,65.3734742 31.9814454,65.0771485 C31.9833985,64.4918214 31.927002,63.9924927 31.8422852,63.5131837 L33.4416504,64.4178468 C33.3352051,65.1743164 32.9997559,65.381897 32.3515625,65.7587891 Z M35.2004395,63.1152344 C35.0808106,62.9917603 34.9256592,62.913147 34.7561036,62.8639527 L16.6621094,52.6298828 L16.6269532,25.1606445 L47.8388673,42.9213867 L47.8464357,47.5789795 L47.8837892,70.2890625 L35.2004395,63.1152344 Z M49.8867188,49.2314453 L61.9160157,56.5419922 C62.7788087,57.0665894 63.3640137,57.9116211 63.5957032,58.8823853 L57.279297,55.4042969 C56.7666017,55.1220703 56.1591798,55.1289063 55.6503908,55.428711 C55.145508,55.7265626 54.8437502,56.2558594 54.8437502,56.8427735 L54.8437502,64.0244141 C54.8437502,64.6220703 55.1689455,65.1728516 55.6914064,65.4619141 L65.326172,70.7952271 C65.5827638,72.1488038 66.0356447,73.4472046 66.7001954,74.6572266 L67.3056642,75.7587891 C67.473633,76.0644532 67.6660158,76.3789063 67.864258,76.7001953 C68.4199221,77.6035156 68.9951174,78.5371094 68.9951174,79.3632812 L69.0439455,81.7861328 L67.0947267,80.4130859 C66.5888673,78.993164 64.3564455,73.6123047 58.9931642,71.461914 C58.0697023,71.0910034 57.2130128,70.9649658 56.4350587,71.0051269 C56.3742677,71.0063476 56.3116456,71.000061 56.2517091,71.003601 C56.1550294,71.0093383 56.0627443,71.0294799 55.9678956,71.0413818 C55.8483888,71.0563964 55.7270509,71.0650634 55.6105958,71.0898437 C55.5227052,71.1085205 55.4393312,71.1411132 55.3532716,71.1654052 C55.2348634,71.1987914 55.1145021,71.2265624 54.999878,71.2705077 C54.9603272,71.2856444 54.9237061,71.3082885 54.8847657,71.3246459 C53.9012452,71.6828612 53.1114503,72.2847899 52.5615235,72.876953 L49.8867188,71.4121092 L49.8867188,49.2314453 Z M59.7373047,86.0429688 C56.6904297,84.2841797 54.125,79.8417969 54.1357422,76.3427735 C54.1396484,74.8449097 54.5979004,73.7570191 55.4248047,73.2769166 C55.432251,73.2725831 55.4407959,73.2702027 55.4482422,73.2659913 C55.5628662,73.2016602 55.6893311,73.1599122 55.8161621,73.1188966 C55.9602051,73.0797731 56.1102295,73.0485231 56.2683105,73.0283815 C56.3127441,73.0236818 56.3552246,73.0151979 56.4003906,73.0128175 C56.4716797,73.0065919 56.5463867,73.0062257 56.6202392,73.0045167 C56.7438964,73.0081178 56.8699951,73.0175782 57.0002441,73.0373536 C57.0501709,73.044983 57.1015625,73.0565797 57.1524658,73.0665284 C57.2685547,73.0892335 57.3867187,73.1176148 57.5070801,73.15271 C57.5661621,73.1699219 57.6254883,73.1881104 57.6855469,73.208313 C57.8051758,73.2484131 57.927002,73.2962647 58.0500489,73.3480835 C58.1098634,73.3734131 58.1689454,73.395874 58.2294923,73.4239502 C58.3846437,73.4955444 58.5422364,73.5775147 58.7016603,73.6671143 C58.727173,73.6814576 58.7517091,73.6922608 58.7773439,73.7070313 C59.5388185,74.1464844 60.2702638,74.7537232 60.938965,75.4720459 C62.9450685,77.6276245 64.3862306,80.7819824 64.3789064,83.40625 C64.378296,83.5934448 64.3706056,83.774231 64.3559572,83.9483032 C64.3513185,84.0027466 64.341797,84.052185 64.3359377,84.1052856 C64.3228762,84.2217407 64.3110354,84.3393554 64.2916262,84.4491577 C64.2797854,84.5161133 64.2619631,84.5765991 64.247803,84.6410522 C64.2281497,84.7307128 64.2109378,84.823059 64.1867678,84.9076538 C64.1691897,84.968811 64.1459963,85.0230713 64.1262209,85.081543 C64.0988771,85.1620484 64.0739748,85.2454224 64.0422365,85.3206787 C64.0184328,85.3775024 63.9887697,85.427063 63.9624025,85.4808349 C63.928589,85.5498657 63.897217,85.6220092 63.8593752,85.685852 C63.8286135,85.7377929 63.7921145,85.7819824 63.7587893,85.8303832 C63.7192385,85.8877562 63.6822512,85.9486083 63.6391604,86.0008544 C63.601929,86.0460204 63.5590823,86.0829467 63.5192874,86.1242065 C63.4737552,86.1712036 63.4309085,86.2218627 63.3820804,86.2637329 C63.3387454,86.3007812 63.2901615,86.3294067 63.2443851,86.3623657 C63.1911624,86.4005737 63.1406253,86.4429931 63.0839847,86.4755859 C62.2451172,86.9580078 61.0576172,86.8056641 59.7373047,86.0429688 Z M66.3005371,84.4819336 C66.3459473,84.1392822 66.3776855,83.7863159 66.3789062,83.4121094 C66.3798828,83.0491944 66.352539,82.6797486 66.3127441,82.3081665 L66.6318359,82.53302 L66.7009277,84.3743286 L66.2910156,84.6123047 C66.2971191,84.5710449 66.2950439,84.5236816 66.3005371,84.4819336 Z M92.5292969,72.7216797 L70.9765625,85.8125 C70.4355469,86.1367188 69.7636719,86.1689453 69.1972656,85.9003906 L68.7451172,85.5078125 L68.6875,83.9815063 L69.5078125,84.5595703 C69.6796875,84.6806641 69.8818359,84.7421875 70.0839844,84.7421875 C70.2451172,84.7421875 70.40625,84.703125 70.553711,84.625 C70.6923829,84.5513916 70.8022462,84.4429321 70.8903809,84.3198242 L93.0061036,70.5499267 L92.9843751,71.2792968 C92.984375,72.0371094 92.7509766,72.5878906 92.5292969,72.7216797 Z" id="Shape" fill-rule="nonzero"></path>
                <polygon id="Path" points="72.4328613 79.071167 76.0333252 76.7630005 76.0333252 74.2688599 72.4328613 76.5770264"></polygon>
                <polygon id="Path" points="86.7087402 70.5512695 90.309082 68.243042 90.309082 65.7489014 86.7087402 68.0570679"></polygon>
                <path d="M10.8496094,18.1645508 L1.5292969,13.2426758 C1.0419922,12.9838867 0.4355469,13.1713867 0.178711,13.6601563 C-0.0800781,14.1484375 0.1074219,14.753418 0.5957032,15.0112305 L9.9160157,19.9331055 C10.0644532,20.0117188 10.2246095,20.0488282 10.381836,20.0488282 C10.741211,20.0488282 11.0878907,19.8554688 11.2666016,19.5156251 C11.5253906,19.0273438 11.3378906,18.4223633 10.8496094,18.1645508 Z" id="Path"></path>
                <path d="M10.1845703,8.4042969 L19.5058594,13.3261719 C19.6542969,13.4047852 19.8144532,13.4418946 19.9716797,13.4418946 C20.3310547,13.4418946 20.6777344,13.2480469 20.8574219,12.9086915 C21.1152344,12.4204103 20.9277344,11.8154298 20.4394531,11.5576173 L11.118164,6.6357423 C10.6308593,6.3774415 10.0253906,6.5649415 9.7666015,7.0532228 C9.5087891,7.5415039 9.6962891,8.1464844 10.1845703,8.4042969 Z" id="Path"></path>
                <path d="M21.0849609,2.6337891 L30.4052734,7.5556641 C30.5537109,7.6342774 30.7138672,7.6713868 30.8710937,7.6713868 C31.2304687,7.6713868 31.5771484,7.4780274 31.7558593,7.1381837 C32.0146484,6.6499025 31.8271484,6.044922 31.3388671,5.7871095 L22.0185546,0.8652345 C21.5312499,0.6064454 20.9248046,0.7939454 20.6679687,1.282715 C20.4091797,1.7709961 20.5966797,2.3759766 21.0849609,2.6337891 Z" id="Path"></path>
                <path d="M10.8496094,28.0996094 L1.5292969,23.1777344 C1.0419922,22.9199219 0.4355469,23.1069336 0.178711,23.5952149 C-0.0800781,24.0834961 0.1074219,24.6884766 0.5957032,24.9462891 L9.9160157,29.8681641 C10.0644532,29.9467774 10.2246095,29.9838868 10.381836,29.9838868 C10.741211,29.9838868 11.0878907,29.7905274 11.2666016,29.4506837 C11.5253906,28.9624023 11.3378906,28.3574219 10.8496094,28.0996094 Z" id="Path"></path>
                <path d="M10.8496094,38.8178711 L1.5292969,33.8959961 C1.0419922,33.6386719 0.4355469,33.8256836 0.178711,34.3134766 C-0.0800781,34.8017578 0.1074219,35.4067383 0.5957032,35.6645508 L9.9160157,40.5864258 C10.0644532,40.6650391 10.2246095,40.7021485 10.381836,40.7021485 C10.741211,40.7021485 11.0878907,40.5087891 11.2666016,40.1689454 C11.5253906,39.6806641 11.3378906,39.0756836 10.8496094,38.8178711 Z" id="Path"></path>
                <path d="M10.8496094,49.0292969 L1.5292969,44.1079102 C1.0419922,43.8500977 0.4355469,44.0366211 0.178711,44.5253907 C-0.0800781,45.0136719 0.1074219,45.6186524 0.5957032,45.8764649 L9.9160157,50.7978516 C10.0644532,50.8769532 10.2246095,50.9140625 10.381836,50.9140625 C10.741211,50.9140625 11.0878907,50.7207031 11.2666016,50.3808594 C11.5253906,49.8925781 11.3378906,49.2880859 10.8496094,49.0292969 Z" id="Path"></path>
            </g>
        </g>
    </g>
</svg>