<?xml version="1.0" encoding="UTF-8"?>
<svg width="96px" height="96px" viewBox="0 0 96 96" version="1.1" xmlns="http://www.w3.org/2000/svg" xmlns:xlink="http://www.w3.org/1999/xlink">
    <!-- Generator: Sketch 52.6 (67491) - http://www.bohemiancoding.com/sketch -->
    <title>Group</title>
    <desc>Created with Sketch.</desc>
    <g id="Page-1" stroke="none" stroke-width="1" fill="none" fill-rule="evenodd">
        <g id="noun_capture_2490487" fill="#000000">
            <g id="Group">
                <g>
                    <path d="M85.4,48 C85.4,27.4 68.6,10.6 48,10.6 C27.4,10.6 10.6,27.4 10.6,48 C10.6,68.6 27.4,85.4 48,85.4 C68.6,85.4 85.4,68.6 85.4,48 Z M81.4,48 C81.4,55 79.2,61.6 75.5,66.9 L58.5,37.5 L79.7,37.5 C80.8,40.9 81.4,44.4 81.4,48 Z M60,48 L54,58.4 L42,58.4 L36,48 L42,37.6 L54,37.6 L60,48 Z M78.2,33.6 L44.2,33.6 L54.8,15.2 C65.2,17.4 73.7,24.4 78.2,33.6 Z M48,14.6 C48.9,14.6 49.8,14.7 50.6,14.7 L33.6,44.1 L23.1,25.7 C29.2,18.9 38.1,14.6 48,14.6 Z M14.6,48 C14.6,41 16.8,34.4 20.5,29.1 L37.5,58.5 L16.2,58.5 C15.2,55.1 14.6,51.6 14.6,48 Z M17.8,62.4 L51.7,62.4 L41.1,80.7 C30.8,78.6 22.3,71.6 17.8,62.4 Z M48,81.4 C47.1,81.4 46.2,81.3 45.4,81.3 L62.4,51.9 L73,70.2 C66.8,77.1 57.9,81.4 48,81.4 Z" id="Shape" fill-rule="nonzero"></path>
                    <path d="M2.5,27.2 C3.6,27.2 4.5,26.3 4.5,25.2 L4.5,4.4 L25.3,4.4 C26.4,4.4 27.3,3.5 27.3,2.4 C27.3,1.3 26.4,0.4 25.3,0.4 L2.5,0.4 C1.4,0.4 0.5,1.3 0.5,2.4 L0.5,25.2 C0.5,26.4 1.4,27.2 2.5,27.2 Z" id="Path"></path>
                    <path d="M93.5,68.8 C92.4,68.8 91.5,69.7 91.5,70.8 L91.5,91.6 L70.7,91.6 C69.6,91.6 68.7,92.5 68.7,93.6 C68.7,94.7 69.6,95.6 70.7,95.6 L93.5,95.6 C94.6,95.6 95.5,94.7 95.5,93.6 L95.5,70.7 C95.5,69.6 94.6,68.8 93.5,68.8 Z" id="Path"></path>
                    <path d="M93.5,0.5 L70.7,0.5 C69.6,0.5 68.7,1.4 68.7,2.5 C68.7,3.6 69.6,4.5 70.7,4.5 L91.5,4.5 L91.5,25.3 C91.5,26.4 92.4,27.3 93.5,27.3 C94.6,27.3 95.5,26.4 95.5,25.3 L95.5,2.5 C95.5,1.4 94.6,0.5 93.5,0.5 Z" id="Path"></path>
                    <path d="M25.3,91.6 L4.4,91.6 L4.4,70.7 C4.4,69.6 3.5,68.7 2.4,68.7 C1.3,68.7 0.4,69.6 0.4,70.7 L0.4,93.5 C0.4,94.6 1.3,95.5 2.4,95.5 L25.2,95.5 C26.3,95.5 27.2,94.6 27.2,93.5 C27.2,92.4 26.4,91.6 25.3,91.6 Z" id="Path"></path>
                </g>
            </g>
        </g>
    </g>
</svg>