<?xml version="1.0" encoding="UTF-8"?>
<svg width="24px" height="24px" viewBox="0 0 24 24" version="1.1" xmlns="http://www.w3.org/2000/svg" xmlns:xlink="http://www.w3.org/1999/xlink">
    <!-- Generator: Sketch 52.6 (67491) - http://www.bohemiancoding.com/sketch -->
    <title>Group</title>
    <desc>Created with Sketch.</desc>
    <g id="Page-1" stroke="none" stroke-width="1" fill="none" fill-rule="evenodd">
        <g id="noun_socket_1442358" fill="#000000">
            <g id="Group">
                <path d="M12.08,4.245 C7.723,4.245 4.177,7.791 4.177,12.149 C4.177,16.506 7.723,20.052 12.08,20.052 C16.437,20.052 19.983,16.506 19.984,12.149 C19.984,7.791 16.438,4.245 12.08,4.245 Z M12.08,19.252 C8.163,19.252 4.977,16.066 4.977,12.149 C4.977,8.232 8.163,5.045 12.08,5.045 C15.997,5.045 19.184,8.232 19.184,12.149 C19.183,16.066 15.996,19.252 12.08,19.252 Z" id="Shape" fill-rule="nonzero"></path>
                <path d="M19.271,0.13 L4.729,0.13 C2.195,0.13 0.132,2.193 0.132,4.729 L0.132,19.273 C0.132,21.808 2.195,23.871 4.729,23.871 L19.272,23.871 C21.806,23.871 23.869,21.808 23.869,19.272 L23.869,4.729 C23.868,2.193 21.806,0.13 19.271,0.13 Z M23.067,19.271 C23.067,21.366 21.365,23.069 19.271,23.069 L4.729,23.069 C2.635,23.069 0.933,21.366 0.933,19.272 L0.933,4.729 C0.933,2.634 2.635,0.931 4.729,0.931 L19.272,0.931 C21.366,0.931 23.068,2.634 23.068,4.729 L23.068,19.271 L23.067,19.271 Z" id="Shape" fill-rule="nonzero"></path>
                <path d="M12,8.176 C11.779,8.176 11.6,8.356 11.6,8.576 L11.6,10.529 C11.6,10.75 11.78,10.929 12,10.929 C12.22,10.929 12.4,10.749 12.4,10.529 L12.4,8.576 C12.4,8.355 12.221,8.176 12,8.176 Z" id="Path"></path>
                <path d="M9.721,14.107 L7.768,14.107 C7.547,14.107 7.368,14.287 7.368,14.507 C7.368,14.727 7.548,14.907 7.768,14.907 L9.721,14.907 C9.942,14.907 10.121,14.727 10.121,14.507 C10.121,14.287 9.941,14.107 9.721,14.107 Z" id="Path"></path>
                <path d="M16.232,14.107 L14.278,14.107 C14.057,14.107 13.878,14.287 13.878,14.507 C13.878,14.727 14.058,14.907 14.278,14.907 L16.232,14.907 C16.453,14.907 16.632,14.727 16.632,14.507 C16.632,14.287 16.453,14.107 16.232,14.107 Z" id="Path"></path>
            </g>
        </g>
    </g>
</svg>