<?xml version="1.0" encoding="UTF-8"?>
<svg width="82px" height="99px" viewBox="0 0 82 99" version="1.1" xmlns="http://www.w3.org/2000/svg" xmlns:xlink="http://www.w3.org/1999/xlink">
    <!-- Generator: Sketch 52.6 (67491) - http://www.bohemiancoding.com/sketch -->
    <title>noun_stock storage_1185969</title>
    <desc>Created with Sketch.</desc>
    <g id="Page-1" stroke="none" stroke-width="1" fill="none" fill-rule="evenodd">
        <g id="noun_stock-storage_1185969" fill="#000000" fill-rule="nonzero">
            <path d="M80.3486023,39.6460609 C79.8819351,39.6460609 79.5043106,40.0236854 79.5043106,40.4903564 L79.5043106,43.8103981 L69.0192337,37.4890404 L69.0452042,23.5350476 C69.0588074,23.4746018 69.0693207,23.4130212 69.0693207,23.3496361 C69.0693207,23.0536385 68.9143143,22.7790756 68.6611862,22.6265412 L52.9542885,13.157054 C52.6855011,12.995451 52.3490982,12.995451 52.0819588,13.157054 L47.8433647,15.7165881 L47.8497543,11.0586272 C47.8703651,10.9850398 47.8827324,10.908721 47.8827324,10.8302899 C47.8827324,10.5342913 47.727726,10.2597294 47.4746018,10.107195 L31.767704,0.6377075 C31.4939651,0.4728057 31.1493187,0.4761037 30.8788795,0.6484261 L15.3838806,10.5013104 C15.1575527,10.644517 15.0213032,10.8870774 15.0009994,11.1509724 C14.9575061,11.2527991 14.9328746,11.3646231 14.9328746,11.4824763 L14.9328746,20.8197327 L2.6740722,28.2193413 L2.6740722,22.4105206 C2.6740722,21.9438477 2.2964467,21.5662232 1.8297748,21.5662232 C1.3631029,21.5662232 0.9854774,21.9438477 0.9854774,22.4105206 L0.9854774,64.9024258 C0.9854774,65.369093 1.3631029,65.7467175 1.8297748,65.7467175 C2.2964467,65.7467175 2.6740722,65.369093 2.6740722,64.9024258 L2.6740722,58.0828038 L53.6130752,88.793295 L53.6130752,98.1556989 C53.6130753,98.6223755 53.9906998,99 54.4573669,99 C54.9240417,99 55.3016662,98.6223755 55.3016662,98.1557007 L55.3016662,88.548729 L79.5043105,73.9566193 L79.5043105,82.9822617 C79.5043105,83.4489365 79.881935,83.826561 80.3486022,83.826561 C80.815277,83.826561 81.1929015,83.4489365 81.1929015,82.9822617 L81.1929015,40.4903564 C81.1929016,40.0236855 80.8152771,39.6460609 80.3486023,39.6460609 Z M55.3016663,77.967186 L62.640831,73.5987778 L55.3016663,85.6613999 L55.3016663,77.967186 Z M55.3016663,76.0020676 L55.3016663,61.3926964 L66.9264222,54.3839531 L66.9264222,66.5547943 L64.5151444,70.5178985 L55.3016663,76.0020676 Z M51.2071533,60.3354683 L51.2071533,77.4341354 L37.1764831,69.0826873 L37.1764831,51.7275925 L51.2339515,60.2028771 C51.226532,60.2478142 51.2071533,60.2884178 51.2071533,60.3354683 Z M35.4878883,50.9789391 L35.4878883,62.5464402 C35.3901825,62.5637551 35.2928924,62.5928193 35.2026062,62.6465684 L31.5500336,64.8205415 L31.5500336,48.3353539 L35.5363274,50.7387467 C35.5128288,50.8162537 35.4878883,50.8937035 35.4878883,50.9789391 Z M14.14217,38.3655968 L14.14217,48.5240135 C14.0558033,48.5435447 13.9691258,48.5665283 13.8890458,48.6150703 L2.8967924,55.24263 L13.6612759,37.550209 L14.2835732,37.9253616 C14.2017403,38.0553741 14.14217,38.200489 14.14217,38.3655968 Z M15.8307648,38.8581886 L29.9450226,47.367691 C29.8943138,47.4762153 29.8614388,47.5943298 29.8614388,47.722126 L29.8614388,64.8208008 L15.8307648,56.4693451 L15.8307648,38.8581886 Z M52.8957481,61.2048111 L53.6130752,61.6372643 L53.6130752,77.0071488 L52.8957481,77.4341355 L52.8957481,61.2048111 Z M66.9264221,68.177887 L66.9264221,69.0826874 L66.0633697,69.5964051 L66.9264221,68.177887 Z M68.6150131,63.7794418 L68.6150131,53.5126534 C68.6150131,53.4662247 68.5958481,53.4261857 68.5886307,53.3818169 L78.6212616,47.3329583 L68.6150131,63.7794418 Z M67.3543396,24.8683815 L67.3221893,41.9588089 L53.4085922,50.2410011 L53.4085922,33.2675552 L67.0368042,25.0519905 L67.3543396,24.8683815 Z M51.7142258,50.2377052 L37.805584,41.9579849 L37.7242661,24.8707008 L51.6515656,33.2670402 L51.7142258,50.2377052 Z M52.5181236,14.8662615 L66.5900192,23.3496361 L66.1835403,23.5946713 L52.2457275,31.6531144 L38.4709625,23.3488122 L52.5181236,14.8662615 Z M36.4006195,22.6265411 C36.1474953,22.7799015 35.9924889,23.0544624 35.9924889,23.349636 C35.9924889,23.4333762 36.0077401,23.5142287 36.0313416,23.5922488 C36.0313416,23.5953921 36.0295907,23.5979689 36.0295907,23.6011122 L36.0862733,35.4996031 C35.977337,35.5144957 35.8695336,35.5509299 35.7690469,35.6109122 L32.2228318,37.7224807 L32.2228318,20.7689227 C32.2228318,20.7626361 32.2194291,20.7574309 32.2193261,20.7511443 L46.1593018,12.3464068 L46.1537362,16.4905451 C46.1535302,16.5684603 46.1780625,16.6386469 46.1978494,16.7103289 L36.4006195,22.6265411 Z M16.6214695,29.4411106 L16.6214695,12.6516304 L30.5342369,20.7962856 L30.5342369,37.7221718 L16.6214695,29.4411106 Z M31.3430786,2.3535111 L45.4034347,10.8302901 L31.3381347,19.3103659 L17.4566974,11.1840041 L31.3430786,2.3535111 Z M14.9328747,22.7924232 L14.9328747,29.9209747 C14.9328747,30.2186222 15.089531,30.494009 15.345129,30.6465416 L30.9464912,39.9329872 C30.9493751,39.934742 30.9526748,39.9351005 30.9555587,39.9368019 C30.9576225,39.9380379 30.9591674,39.9399986 30.9613303,39.9412346 C30.9983329,39.9622078 31.0384253,39.9734917 31.077381,39.9885407 C31.1060332,39.9995156 31.1334494,40.0155945 31.1627196,40.0233231 C31.2200202,40.0385781 31.2790755,40.0435753 31.3381346,40.0464631 C31.3513258,40.0470811 31.364517,40.0517198 31.3777083,40.0517198 C31.3779143,40.0517198 31.3779143,40.0516664 31.3781203,40.0516664 C31.3783263,40.0516664 31.3783263,40.0517198 31.3785323,40.0517198 C31.3843039,40.0517198 31.3900756,40.0495035 31.3958472,40.0494005 C31.4631499,40.0479585 31.5300368,40.0399706 31.5947608,40.0228082 C31.6184653,40.016575 31.6400069,40.0038453 31.6630935,39.9955484 C31.7097816,39.9787485 31.7563667,39.9624635 31.799652,39.937626 C31.8031577,39.9356157 31.8070716,39.9350511 31.8105773,39.9329873 L36.0953445,37.3822137 L36.119461,42.4436189 C36.1211089,42.7396165 36.2777671,43.0133554 36.5317153,43.1650659 L52.1322516,52.4515115 C52.1351393,52.4532129 52.138439,52.4536744 52.141323,52.4553262 C52.1433829,52.4565622 52.1449317,52.4585191 52.1470946,52.4597551 C52.1858481,52.4817087 52.2276915,52.4938203 52.268505,52.5092279 C52.2948874,52.5191728 52.3198279,52.5339128 52.3468322,52.5411264 C52.4179458,52.5601923 52.4909133,52.5702402 52.5642966,52.5702402 C52.6374701,52.5702402 52.7106475,52.5602419 52.78207,52.5411264 C52.8109282,52.5334474 52.8374136,52.5178339 52.8654478,52.5070612 C52.9050253,52.49181 52.9456327,52.4803164 52.9831465,52.4589312 C52.9852064,52.4577982 52.9865492,52.4559443 52.9885061,52.4548113 C52.990978,52.4533655 52.9938657,52.4530069 52.9963377,52.4515116 L68.5977018,43.165066 C68.8524778,43.0133555 69.0091322,42.7379687 69.0099561,42.4411471 L69.0155179,39.4588969 L78.7136075,45.3054927 L55.3016663,59.4205208 L55.3016663,55.6637993 C55.3016663,55.1971283 54.9240418,54.8195 54.457367,54.8195 C53.9906998,54.8195 53.6130753,55.1971283 53.6130753,55.6637993 L53.6130753,59.6650887 L3.6997614,29.5722065 L14.9328747,22.7924232 Z M12.9387989,37.1146088 L2.6740723,53.9856644 L2.6740723,30.9259472 L12.9387989,37.1146088 Z M3.7005863,56.7298889 L14.14217,50.4346085 L14.14217,56.9492073 C14.14217,57.2468567 14.2988263,57.5222435 14.5544243,57.674778 L30.2736931,67.0313034 C30.277195,67.033371 30.2811127,67.0339355 30.2846146,67.0359421 C30.3291397,67.0615082 30.3769608,67.0783539 30.4248848,67.0953598 C30.4466324,67.1030884 30.4670372,67.1151504 30.4892998,67.1210785 C30.5543328,67.1383362 30.6214295,67.1463776 30.6890373,67.1478195 C30.6946029,67.1479263 30.7001686,67.1500397 30.7057342,67.1500397 C30.7059402,67.1500397 30.7059402,67.1499863 30.7061462,67.1499863 C30.7063522,67.1499863 30.7063522,67.1500397 30.7065582,67.1500397 C30.7207832,67.1500397 30.7349014,67.1451416 30.7492256,67.1444168 C30.806839,67.1413803 30.8646583,67.1366348 30.9211387,67.1216965 C30.9519538,67.1135483 30.980812,67.0969086 31.0110092,67.0851059 C31.0485229,67.0704193 31.0872764,67.0597534 31.1229362,67.0395508 C31.1250991,67.0383148 31.1266479,67.0363541 31.1287078,67.0351181 C31.1315917,67.0334167 31.1348914,67.0330582 31.1377753,67.0313034 L35.4878882,64.4421921 L35.4878882,69.5625534 C35.4878882,69.860199 35.6445426,70.135582 35.9001425,70.2881164 L51.6194075,79.6446456 C51.6222952,79.646347 51.6255911,79.6468123 51.6284789,79.6484603 C51.6305388,79.6496963 51.6320838,79.651657 51.6342505,79.652893 C51.6714552,79.673973 51.7117537,79.6854095 51.7511252,79.7004546 C51.7791556,79.7111739 51.8056449,79.7266311 51.8344,79.7343139 C51.9056166,79.7533264 51.9785841,79.7633743 52.0514525,79.7633743 C52.124317,79.7633743 52.1972884,79.7533264 52.268505,79.7343139 C52.2972602,79.7266311 52.3237456,79.7111739 52.3517798,79.7004546 C52.3911475,79.6854094 52.4314459,79.673973 52.4686545,79.652893 C52.4708174,79.651657 52.4723624,79.6496963 52.4744261,79.6484603 C52.47731,79.6468124 52.4806097,79.646347 52.4834936,79.6446456 L53.6130751,78.9723128 L53.6130751,86.8211211 L3.7005863,56.7298889 Z M55.9818878,86.1664658 L64.1888428,72.6772843 L68.2027588,70.2881165 C68.4583588,70.135582 68.6150131,69.860199 68.6150131,69.5625535 L68.6150131,66.3537675 C68.6378937,66.370926 68.6519165,66.3954011 68.676857,66.4104539 L78.7136078,72.4615251 L55.9818878,86.1664658 Z M69.5491867,64.9642639 C69.3585205,64.8496017 69.1424942,64.8239441 68.9417267,64.8655243 L79.5043106,47.504715 L79.5043106,70.9664307 L69.5491867,64.9642639 Z" id="Shape"></path>
        </g>
    </g>
</svg>