<?xml version="1.0" encoding="UTF-8"?>
<svg width="90px" height="70px" viewBox="0 0 90 70" version="1.1" xmlns="http://www.w3.org/2000/svg" xmlns:xlink="http://www.w3.org/1999/xlink">
    <!-- Generator: Sketch 52.6 (67491) - http://www.bohemiancoding.com/sketch -->
    <title>Group</title>
    <desc>Created with Sketch.</desc>
    <g id="Page-1" stroke="none" stroke-width="1" fill="none" fill-rule="evenodd">
        <g id="noun_API_719181" fill="#000000">
            <g id="Group">
                <path d="M89.4,20.7 L89.4,0.2 L0.6,0.2 L0.6,20.7 L0.6,69.7 L89.4,69.7 L89.4,20.7 Z M87.4,67.8 L2.6,67.8 L2.6,20.8 L87.4,20.8 L87.4,67.8 Z M87.4,18.7 L2.6,18.7 L2.6,2.2 L87.4,2.2 L87.4,18.7 Z" id="Shape" fill-rule="nonzero"></path>
                <path d="M10.7,16.7 C14.1,16.7 16.8,14 16.8,10.6 C16.8,7.2 14.1,4.5 10.7,4.5 C7.3,4.5 4.6,7.2 4.6,10.6 C4.6,14 7.3,16.7 10.7,16.7 Z M10.7,6.6 C13,6.6 14.8,8.4 14.8,10.7 C14.8,13 13,14.8 10.7,14.8 C8.4,14.8 6.6,13 6.6,10.7 C6.6,8.4 8.4,6.6 10.7,6.6 Z" id="Shape" fill-rule="nonzero"></path>
                <path d="M24.6,16.7 C28,16.7 30.7,14 30.7,10.6 C30.7,7.2 28,4.5 24.6,4.5 C21.2,4.5 18.5,7.2 18.5,10.6 C18.5,14 21.2,16.7 24.6,16.7 Z M24.6,6.6 C26.9,6.6 28.7,8.4 28.7,10.7 C28.7,13 26.9,14.8 24.6,14.8 C22.3,14.8 20.5,13 20.5,10.7 C20.5,8.4 22.3,6.6 24.6,6.6 Z" id="Shape" fill-rule="nonzero"></path>
                <path d="M38.5,16.7 C41.9,16.7 44.6,14 44.6,10.6 C44.6,7.2 41.9,4.5 38.5,4.5 C35.1,4.5 32.4,7.2 32.4,10.6 C32.4,14 35.1,16.7 38.5,16.7 Z M38.5,6.6 C40.8,6.6 42.6,8.4 42.6,10.7 C42.6,13 40.8,14.8 38.5,14.8 C36.2,14.8 34.4,13 34.4,10.7 C34.4,8.4 36.2,6.6 38.5,6.6 Z" id="Shape" fill-rule="nonzero"></path>
                <path d="M14.6,56.2 C14.8,56.4 15.1,56.5 15.3,56.5 C15.5,56.5 15.8,56.4 16,56.2 L27.6,44.6 C28,44.2 28,43.6 27.6,43.2 L16,31.6 C15.6,31.2 15,31.2 14.6,31.6 C14.2,32 14.2,32.6 14.6,33 L25.5,43.9 L14.6,54.8 C14.2,55.2 14.2,55.8 14.6,56.2 Z" id="Path"></path>
                <path d="M35.8,44.9 L54.1,44.9 C54.7,44.9 55.1,44.5 55.1,43.9 C55.1,43.3 54.7,42.9 54.1,42.9 L35.8,42.9 C35.2,42.9 34.8,43.3 34.8,43.9 C34.8,44.5 35.3,44.9 35.8,44.9 Z" id="Path"></path>
            </g>
        </g>
    </g>
</svg>