<?xml version="1.0" encoding="UTF-8"?>
<svg width="60px" height="76px" viewBox="0 0 60 76" version="1.1" xmlns="http://www.w3.org/2000/svg" xmlns:xlink="http://www.w3.org/1999/xlink">
    <!-- Generator: Sketch 52.6 (67491) - http://www.bohemiancoding.com/sketch -->
    <title>noun_window_1571291</title>
    <desc>Created with Sketch.</desc>
    <g id="Page-1" stroke="none" stroke-width="1" fill="none" fill-rule="evenodd" stroke-linecap="round" stroke-linejoin="round">
        <g id="noun_window_1571291" transform="translate(1.000000, 1.000000)" stroke="#000000" stroke-width="2">
            <polygon id="Path" points="52.104 32.889 52.104 47.278 0.132 17.272 0.132 2.883"></polygon>
            <polygon id="Path" points="52.104 47.278 52.104 74 0.132 43.994 0.132 17.272"></polygon>
            <polyline id="Path" points="5.895 0 57.868 30.004 57.868 44.39"></polyline>
            <path d="M57.86753,71.11688 L57.86753,44.39039" id="Path"></path>
            <path d="M9.093,15.251 C9.093,16.95389 7.88947,17.6395 6.40484,16.78234 C4.82102065,15.7541649 3.82247636,14.0323209 3.71668,12.147 C3.71668,10.44411 4.92021,9.7585 6.40484,10.61566 C7.98865935,11.6438351 8.98720364,13.3656791 9.093,15.251 Z" id="Path"></path>
            <path d="M18.05353,20.42433 C18.05353,22.12722 16.85,22.81283 15.36537,21.95567 C13.7815452,20.9274908 12.7830001,19.2056381 12.67721,17.32031 C12.67721,15.61742 13.88074,14.93181 15.36537,15.78897 C16.9491948,16.8171492 17.9477399,18.5390019 18.05353,20.42433 Z" id="Path"></path>
            <path d="M27.01406,25.5977 C27.01406,27.30059 25.81053,27.9862 24.3259,27.12904 C22.7420752,26.1008608 21.7435301,24.3790081 21.63774,22.49368 C21.63774,20.79079 22.84127,20.10518 24.3259,20.96234 C25.9097248,21.9905192 26.9082699,23.7123719 27.01406,25.5977 Z" id="Path"></path>
            <path d="M0.13247,2.88312 L5.89454,0" id="Path"></path>
            <path d="M52.10353,32.88862 L57.86753,30.00364" id="Path"></path>
            <path d="M52.10353,74 L57.86753,71.11688" id="Path"></path>
            <path d="M52.10353,47.2776 L57.86753,44.39039" id="Path"></path>
        </g>
    </g>
</svg>